NunitoSans-M1000XghtMin250SlantedItalic.ufo
<glyph name="exclam" format="2">
  <advance width="285"/>
  <unicode hex="0021"/>
  <outline>
    <contour>
      <point x="85" y="255" type="line"/>
      <point x="210" y="255" type="line"/>
      <point x="347" y="705" type="line"/>
      <point x="92" y="705" type="line"/>
    </contour>
    <contour>
      <point x="2" y="0" type="line"/>
      <point x="213" y="0" type="line"/>
      <point x="246" y="207" type="line"/>
      <point x="35" y="207" type="line"/>
    </contour>
  </outline>
</glyph>
<glyph name="ampersand" format="2">
  <advance width="788"/>
  <unicode hex="0026"/>
  <guideline x="570" y="194" angle="317.61220000000003"/>
  <guideline x="347" y="156" angle="317.46659999999997"/>
  <guideline x="445" y="557" angle="90"/>
  <guideline x="250" y="226" angle="270"/>
  <outline>
    <contour>
      <point x="301" y="-12" type="curve" smooth="yes"/>
      <point x="396" y="-12"/>
      <point x="470" y="17"/>
      <point x="532" y="68" type="curve"/>
      <point x="509" y="71" type="line"/>
      <point x="575" y="0" type="line"/>
      <point x="808" y="0" type="line"/>
      <point x="626" y="195" type="line"/>
      <point x="627" y="151" type="line"/>
      <point x="701" y="230"/>
      <point x="755" y="335"/>
      <point x="767" y="442" type="curve"/>
      <point x="599" y="442" type="line"/>
      <point x="582" y="377"/>
      <point x="557" y="317"/>
      <point x="515" y="263" type="curve"/>
      <point x="549" y="263" type="line"/>
      <point x="431" y="389" type="line"/>
      <point x="436" y="352" type="line"/>
      <point x="516" y="388"/>
      <point x="601" y="465"/>
      <point x="601" y="558" type="curve" smooth="yes"/>
      <point x="601" y="651"/>
      <point x="527" y="717"/>
      <point x="403" y="717" type="curve" smooth="yes"/>
      <point x="269" y="717"/>
      <point x="157" y="641"/>
      <point x="157" y="508" type="curve" smooth="yes"/>
      <point x="157" y="457"/>
      <point x="174" y="401"/>
      <point x="209" y="370" type="curve"/>
      <point x="247" y="408" type="line"/>
      <point x="208" y="390" type="line" smooth="yes"/>
      <point x="113" y="346"/>
      <point x="44" y="279"/>
      <point x="44" y="177" type="curve" smooth="yes"/>
      <point x="44" y="69"/>
      <point x="147" y="-12"/>
    </contour>
    <contour>
      <point x="334" y="143" type="curve" smooth="yes"/>
      <point x="277" y="143"/>
      <point x="249" y="174"/>
      <point x="249" y="209" type="curve" smooth="yes"/>
      <point x="249" y="242"/>
      <point x="274" y="279"/>
      <point x="322" y="298" type="curve" smooth="yes"/>
      <point x="349" y="309" type="line"/>
      <point x="269" y="315" type="line"/>
      <point x="435" y="138" type="line"/>
      <point x="438" y="183" type="line"/>
      <point x="400" y="157"/>
      <point x="374" y="143"/>
    </contour>
    <contour>
      <point x="402" y="585" type="curve" smooth="yes"/>
      <point x="432" y="585"/>
      <point x="445" y="566"/>
      <point x="445" y="543" type="curve" smooth="yes"/>
      <point x="445" y="504"/>
      <point x="408" y="454"/>
      <point x="345" y="457" type="curve"/>
      <point x="376" y="448" type="line"/>
      <point x="349" y="476"/>
      <point x="344" y="497"/>
      <point x="344" y="517" type="curve" smooth="yes"/>
      <point x="344" y="562"/>
      <point x="368" y="585"/>
    </contour>
  </outline>
</glyph>
<glyph name="parenleft" format="2">
  <advance width="434"/>
  <unicode hex="0028"/>
  <outline>
    <contour>
      <point x="198" y="-200" type="curve"/>
      <point x="341" y="-144" type="line"/>
      <point x="307" y="18"/>
      <point x="303" y="120"/>
      <point x="326" y="263" type="curve" smooth="yes"/>
      <point x="348" y="406"/>
      <point x="384" y="508"/>
      <point x="470" y="670" type="curve"/>
      <point x="345" y="726" type="line"/>
      <point x="196" y="582"/>
      <point x="128" y="426"/>
      <point x="103" y="263" type="curve" smooth="yes"/>
      <point x="77" y="100"/>
      <point x="95" y="-56"/>
    </contour>
  </outline>
</glyph>
<glyph name="asterisk" format="2">
  <advance width="457"/>
  <unicode hex="002A"/>
  <outline>
    <contour>
      <point x="230" y="309" type="line"/>
      <point x="287" y="448" type="line"/>
      <point x="264" y="448" type="line"/>
      <point x="319" y="307" type="line"/>
      <point x="439" y="377" type="line"/>
      <point x="346" y="508" type="line"/>
      <point x="317" y="464" type="line"/>
      <point x="478" y="449" type="line"/>
      <point x="478" y="584" type="line"/>
      <point x="317" y="569" type="line"/>
      <point x="346" y="524" type="line"/>
      <point x="439" y="655" type="line"/>
      <point x="319" y="725" type="line"/>
      <point x="264" y="587" type="line"/>
      <point x="287" y="587" type="line"/>
      <point x="232" y="725" type="line"/>
      <point x="113" y="657" type="line"/>
      <point x="206" y="522" type="line"/>
      <point x="235" y="569" type="line"/>
      <point x="73" y="584" type="line"/>
      <point x="73" y="450" type="line"/>
      <point x="234" y="464" type="line"/>
      <point x="204" y="508" type="line"/>
      <point x="112" y="377" type="line"/>
    </contour>
  </outline>
</glyph>
<glyph name="plus" format="2">
  <advance width="600"/>
  <unicode hex="002B"/>
  <outline>
    <contour>
      <point x="201" y="40" type="line"/>
      <point x="343" y="40" type="line"/>
      <point x="371" y="219" type="line"/>
      <point x="544" y="219" type="line"/>
      <point x="566" y="355" type="line"/>
      <point x="393" y="355" type="line"/>
      <point x="420" y="528" type="line"/>
      <point x="278" y="528" type="line"/>
      <point x="251" y="355" type="line"/>
      <point x="78" y="355" type="line"/>
      <point x="56" y="219" type="line"/>
      <point x="229" y="219" type="line"/>
    </contour>
  </outline>
</glyph>
<glyph name="hyphen" format="2">
  <advance width="452"/>
  <unicode hex="002D"/>
  <outline>
    <contour>
      <point x="51" y="164" type="line"/>
      <point x="383" y="164" type="line"/>
      <point x="408" y="324" type="line"/>
      <point x="76" y="324" type="line"/>
    </contour>
  </outline>
</glyph>
<glyph name="slash" format="2">
  <advance width="370"/>
  <unicode hex="002F"/>
  <outline>
    <contour>
      <point x="80" y="-87" type="line"/>
      <point x="472" y="731" type="line"/>
      <point x="329" y="775" type="line"/>
      <point x="-63" y="-43" type="line"/>
    </contour>
  </outline>
</glyph>
<glyph name="two" format="2">
  <advance width="600"/>
  <unicode hex="0032"/>
  <guideline x="89" y="635" angle="217.5191"/>
  <guideline x="311" y="163" angle="41.6637"/>
  <guideline x="129" y="563" angle="111.0877"/>
  <outline>
    <contour>
      <point x="34" y="0" type="line"/>
      <point x="535" y="0" type="line"/>
      <point x="563" y="174" type="line"/>
      <point x="266" y="174" type="line"/>
      <point x="266" y="120" type="line"/>
      <point x="426" y="256" type="line" smooth="yes"/>
      <point x="523" y="338"/>
      <point x="586" y="405"/>
      <point x="586" y="526" type="curve" smooth="yes"/>
      <point x="586" y="635"/>
      <point x="493" y="717"/>
      <point x="355" y="717" type="curve" smooth="yes"/>
      <point x="261" y="717"/>
      <point x="171" y="692"/>
      <point x="93" y="644" type="curve"/>
      <point x="153" y="486" type="line"/>
      <point x="209" y="523"/>
      <point x="260" y="542"/>
      <point x="306" y="542" type="curve" smooth="yes"/>
      <point x="346" y="542"/>
      <point x="376" y="524"/>
      <point x="376" y="488" type="curve" smooth="yes"/>
      <point x="376" y="450"/>
      <point x="350" y="422"/>
      <point x="290" y="368" type="curve" smooth="yes"/>
      <point x="59" y="158" type="line"/>
    </contour>
  </outline>
</glyph>
<glyph name="three" format="2">
  <advance width="600"/>
  <unicode hex="0033"/>
  <guideline x="116" y="563" angle="291.0877"/>
  <outline>
    <contour>
      <point x="281" y="-12" type="curve" smooth="yes"/>
      <point x="472" y="-12"/>
      <point x="567" y="97"/>
      <point x="567" y="206" type="curve" smooth="yes"/>
      <point x="567" y="291"/>
      <point x="518" y="354"/>
      <point x="431" y="371" type="curve"/>
      <point x="431" y="356" type="line"/>
      <point x="529" y="374"/>
      <point x="598" y="437"/>
      <point x="596" y="530" type="curve" smooth="yes"/>
      <point x="594" y="623"/>
      <point x="526" y="717"/>
      <point x="352" y="717" type="curve" smooth="yes"/>
      <point x="263" y="717"/>
      <point x="161" y="692"/>
      <point x="83" y="644" type="curve"/>
      <point x="143" y="486" type="line"/>
      <point x="199" y="523"/>
      <point x="262" y="542"/>
      <point x="320" y="542" type="curve" smooth="yes"/>
      <point x="362" y="542"/>
      <point x="392" y="526"/>
      <point x="392" y="494" type="curve" smooth="yes"/>
      <point x="392" y="455"/>
      <point x="358" y="438"/>
      <point x="306" y="438" type="curve" smooth="yes"/>
      <point x="194" y="438" type="line"/>
      <point x="168" y="270" type="line"/>
      <point x="294" y="270" type="line" smooth="yes"/>
      <point x="341" y="270"/>
      <point x="362" y="254"/>
      <point x="362" y="222" type="curve" smooth="yes"/>
      <point x="362" y="182"/>
      <point x="328" y="163"/>
      <point x="281" y="163" type="curve" smooth="yes"/>
      <point x="210" y="163"/>
      <point x="146" y="179"/>
      <point x="92" y="218" type="curve"/>
      <point x="13" y="68" type="line"/>
      <point x="73" y="13"/>
      <point x="185" y="-12"/>
    </contour>
  </outline>
</glyph>
<glyph name="four" format="2">
  <advance width="600"/>
  <unicode hex="0034"/>
  <guideline x="577" y="364" angle="180"/>
  <outline>
    <contour>
      <point x="269" y="0" type="line"/>
      <point x="474" y="0" type="line"/>
      <point x="491" y="109" type="line"/>
      <point x="578" y="109" type="line"/>
      <point x="603" y="267" type="line"/>
      <point x="516" y="267" type="line"/>
      <point x="585" y="705" type="line"/>
      <point x="412" y="705" type="line"/>
      <point x="30" y="257" type="line"/>
      <point x="7" y="109" type="line"/>
      <point x="286" y="109" type="line"/>
    </contour>
    <contour>
      <point x="311" y="267" type="line"/>
      <point x="183" y="267" type="line"/>
      <point x="175" y="218" type="line"/>
      <point x="365" y="449" type="line"/>
      <point x="340" y="449" type="line"/>
    </contour>
  </outline>
</glyph>
<glyph name="five" format="2">
  <advance width="600"/>
  <unicode hex="0035"/>
  <guideline x="567" y="323" angle="270"/>
  <guideline x="302" y="163" angle="0"/>
  <guideline x="308" y="291" angle="180"/>
  <outline>
    <contour>
      <point x="262" y="-12" type="curve" smooth="yes"/>
      <point x="427" y="-12"/>
      <point x="567" y="86"/>
      <point x="567" y="258" type="curve" smooth="yes"/>
      <point x="567" y="364"/>
      <point x="501" y="460"/>
      <point x="371" y="460" type="curve" smooth="yes"/>
      <point x="322" y="460"/>
      <point x="271" y="444"/>
      <point x="228" y="413" type="curve"/>
      <point x="275" y="413" type="line"/>
      <point x="294" y="531" type="line"/>
      <point x="569" y="531" type="line"/>
      <point x="596" y="705" type="line"/>
      <point x="121" y="705" type="line"/>
      <point x="50" y="257" type="line"/>
      <point x="181" y="257" type="line"/>
      <point x="212" y="279"/>
      <point x="252" y="291"/>
      <point x="287" y="291" type="curve" smooth="yes"/>
      <point x="329" y="291"/>
      <point x="363" y="274"/>
      <point x="363" y="235" type="curve" smooth="yes"/>
      <point x="363" y="188"/>
      <point x="323" y="163"/>
      <point x="262" y="163" type="curve" smooth="yes"/>
      <point x="206" y="163"/>
      <point x="147" y="179"/>
      <point x="93" y="218" type="curve"/>
      <point x="14" y="68" type="line"/>
      <point x="74" y="13"/>
      <point x="178" y="-12"/>
    </contour>
  </outline>
</glyph>
<glyph name="six" format="2">
  <advance width="600"/>
  <unicode hex="0036"/>
  <guideline x="606" y="564" angle="242.2257"/>
  <outline>
    <contour>
      <point x="321" y="-12" type="curve" smooth="yes"/>
      <point x="477" y="-12"/>
      <point x="581" y="105"/>
      <point x="581" y="264" type="curve" smooth="yes"/>
      <point x="581" y="375"/>
      <point x="510" y="470"/>
      <point x="401" y="470" type="curve" smooth="yes"/>
      <point x="327" y="470"/>
      <point x="260" y="427"/>
      <point x="232" y="355" type="curve"/>
      <point x="247" y="354" type="line"/>
      <point x="253" y="394" type="line" smooth="yes"/>
      <point x="268" y="496"/>
      <point x="319" y="543"/>
      <point x="404" y="543" type="curve" smooth="yes"/>
      <point x="455" y="543"/>
      <point x="505" y="525"/>
      <point x="552" y="491" type="curve"/>
      <point x="632" y="640" type="line"/>
      <point x="569" y="693"/>
      <point x="497" y="717"/>
      <point x="414" y="717" type="curve" smooth="yes"/>
      <point x="195" y="717"/>
      <point x="48" y="574"/>
      <point x="48" y="268" type="curve" smooth="yes"/>
      <point x="48" y="95"/>
      <point x="145" y="-12"/>
    </contour>
    <contour>
      <point x="314" y="150" type="curve" smooth="yes"/>
      <point x="275" y="150"/>
      <point x="251" y="176"/>
      <point x="251" y="215" type="curve" smooth="yes"/>
      <point x="251" y="273"/>
      <point x="280" y="308"/>
      <point x="323" y="308" type="curve" smooth="yes"/>
      <point x="362" y="308"/>
      <point x="386" y="282"/>
      <point x="386" y="243" type="curve" smooth="yes"/>
      <point x="386" y="185"/>
      <point x="357" y="150"/>
    </contour>
  </outline>
</glyph>
<glyph name="colon" format="2">
  <advance width="285"/>
  <unicode hex="003A"/>
  <outline>
    <contour>
      <point x="42" y="253" type="line"/>
      <point x="253" y="253" type="line"/>
      <point x="283" y="444" type="line"/>
      <point x="72" y="444" type="line"/>
    </contour>
    <contour>
      <point x="2" y="0" type="line"/>
      <point x="213" y="0" type="line"/>
      <point x="243" y="191" type="line"/>
      <point x="32" y="191" type="line"/>
    </contour>
  </outline>
</glyph>
<glyph name="equal" format="2">
  <advance width="600"/>
  <unicode hex="003D"/>
  <outline>
    <contour>
      <point x="71" y="319" type="line"/>
      <point x="559" y="319" type="line"/>
      <point x="581" y="455" type="line"/>
      <point x="93" y="455" type="line"/>
    </contour>
    <contour>
      <point x="40" y="119" type="line"/>
      <point x="528" y="119" type="line"/>
      <point x="549" y="255" type="line"/>
      <point x="61" y="255" type="line"/>
    </contour>
  </outline>
</glyph>
<glyph name="greater" format="2">
  <advance width="600"/>
  <unicode hex="003E"/>
  <outline>
    <contour>
      <point x="26" y="28" type="line"/>
      <point x="543" y="211" type="line"/>
      <point x="567" y="364" type="line"/>
      <point x="108" y="546" type="line"/>
      <point x="85" y="404" type="line"/>
      <point x="500" y="244" type="line"/>
      <point x="516" y="345" type="line"/>
      <point x="51" y="185" type="line"/>
    </contour>
  </outline>
</glyph>
<glyph name="at" format="2">
  <advance width="957"/>
  <unicode hex="0040"/>
  <outline>
    <contour>
      <point x="501" y="-168" type="curve" smooth="yes"/>
      <point x="614" y="-168"/>
      <point x="712" y="-141"/>
      <point x="774" y="-95" type="curve"/>
      <point x="722" y="6" type="line"/>
      <point x="659" y="-34"/>
      <point x="586" y="-53"/>
      <point x="501" y="-53" type="curve" smooth="yes"/>
      <point x="309" y="-53"/>
      <point x="186" y="65"/>
      <point x="186" y="258" type="curve" smooth="yes"/>
      <point x="186" y="472"/>
      <point x="316" y="602"/>
      <point x="524" y="602" type="curve" smooth="yes"/>
      <point x="712" y="602"/>
      <point x="812" y="515"/>
      <point x="812" y="337" type="curve" smooth="yes"/>
      <point x="812" y="238"/>
      <point x="780" y="170"/>
      <point x="738" y="170" type="curve" smooth="yes"/>
      <point x="714" y="170"/>
      <point x="702" y="183"/>
      <point x="702" y="219" type="curve" smooth="yes"/>
      <point x="702" y="236"/>
      <point x="705" y="258"/>
      <point x="710" y="287" type="curve" smooth="yes"/>
      <point x="747" y="494" type="line"/>
      <point x="603" y="494" type="line"/>
      <point x="584" y="401" type="line"/>
      <point x="612" y="401" type="line"/>
      <point x="592" y="473"/>
      <point x="550" y="506"/>
      <point x="481" y="506" type="curve" smooth="yes"/>
      <point x="358" y="506"/>
      <point x="271" y="400"/>
      <point x="271" y="256" type="curve" smooth="yes"/>
      <point x="271" y="135"/>
      <point x="336" y="58"/>
      <point x="449" y="58" type="curve" smooth="yes"/>
      <point x="530" y="58"/>
      <point x="594" y="111"/>
      <point x="626" y="223" type="curve"/>
      <point x="573" y="183" type="line"/>
      <point x="590" y="102"/>
      <point x="644" y="58"/>
      <point x="728" y="58" type="curve" smooth="yes"/>
      <point x="848" y="58"/>
      <point x="929" y="166"/>
      <point x="929" y="337" type="curve" smooth="yes"/>
      <point x="929" y="570"/>
      <point x="771" y="717"/>
      <point x="524" y="717" type="curve" smooth="yes"/>
      <point x="239" y="717"/>
      <point x="54" y="538"/>
      <point x="54" y="258" type="curve" smooth="yes"/>
      <point x="54" y="8"/>
      <point x="239" y="-168"/>
    </contour>
    <contour>
      <point x="484" y="178" type="curve" smooth="yes"/>
      <point x="446" y="178"/>
      <point x="425" y="205"/>
      <point x="425" y="258" type="curve" smooth="yes"/>
      <point x="425" y="335"/>
      <point x="459" y="384"/>
      <point x="513" y="384" type="curve" smooth="yes"/>
      <point x="552" y="384"/>
      <point x="569" y="359"/>
      <point x="569" y="316" type="curve" smooth="yes"/>
      <point x="569" y="230"/>
      <point x="536" y="178"/>
    </contour>
  </outline>
</glyph>
<glyph name="A" format="2">
  <advance width="773"/>
  <unicode hex="0041"/>
  <anchor x="372" y="0" name="bottom"/>
  <anchor x="697" y="0" name="ogonek"/>
  <anchor x="460" y="705" name="top"/>
  <outline>
    <contour>
      <point x="-68" y="0" type="line"/>
      <point x="154" y="0" type="line"/>
      <point x="254" y="170" type="line"/>
      <point x="186" y="131" type="line"/>
      <point x="577" y="131" type="line"/>
      <point x="521" y="175" type="line"/>
      <point x="566" y="0" type="line"/>
      <point x="771" y="0" type="line"/>
      <point x="549" y="705" type="line"/>
      <point x="379" y="705" type="line"/>
    </contour>
    <contour>
      <point x="438" y="483" type="line"/>
      <point x="440" y="483" type="line"/>
      <point x="501" y="251" type="line"/>
      <point x="535" y="295" type="line"/>
      <point x="282" y="295" type="line"/>
      <point x="304" y="256" type="line"/>
    </contour>
  </outline>
</glyph>
<glyph name="B" format="2">
  <advance width="710"/>
  <unicode hex="0042"/>
  <guideline x="302" y="541" angle="0"/>
  <anchor x="319" y="0" name="bottom"/>
  <anchor x="430" y="705" name="top"/>
  <outline>
    <contour>
      <point x="22" y="0" type="line"/>
      <point x="401" y="0" type="line" smooth="yes"/>
      <point x="565" y="0"/>
      <point x="672" y="76"/>
      <point x="672" y="212" type="curve" smooth="yes"/>
      <point x="672" y="293"/>
      <point x="623" y="355"/>
      <point x="536" y="372" type="curve"/>
      <point x="536" y="355" type="line"/>
      <point x="634" y="373"/>
      <point x="703" y="437"/>
      <point x="703" y="534" type="curve" smooth="yes"/>
      <point x="703" y="628"/>
      <point x="640" y="705"/>
      <point x="467" y="705" type="curve" smooth="yes"/>
      <point x="134" y="705" type="line"/>
    </contour>
    <contour>
      <point x="252" y="156" type="line"/>
      <point x="272" y="280" type="line"/>
      <point x="397" y="280" type="line" smooth="yes"/>
      <point x="444" y="280"/>
      <point x="469" y="263"/>
      <point x="469" y="227" type="curve" smooth="yes"/>
      <point x="469" y="183"/>
      <point x="443" y="156"/>
      <point x="387" y="156" type="curve" smooth="yes"/>
    </contour>
    <contour>
      <point x="296" y="436" type="line"/>
      <point x="314" y="549" type="line"/>
      <point x="430" y="549" type="line" smooth="yes"/>
      <point x="479" y="549"/>
      <point x="499" y="533"/>
      <point x="499" y="505" type="curve" smooth="yes"/>
      <point x="499" y="458"/>
      <point x="471" y="436"/>
      <point x="410" y="436" type="curve" smooth="yes"/>
    </contour>
  </outline>
</glyph>
<glyph name="C" format="2">
  <advance width="692"/>
  <unicode hex="0043"/>
  <guideline x="622" y="387" angle="81"/>
  <guideline x="702" y="387" angle="81"/>
  <guideline x="671" y="560" angle="244.946"/>
  <anchor x="381" y="0" name="bottom"/>
  <anchor x="454" y="705" name="top"/>
  <outline>
    <contour>
      <point x="415" y="-12" type="curve" smooth="yes"/>
      <point x="496" y="-12"/>
      <point x="599" y="14"/>
      <point x="653" y="54" type="curve"/>
      <point x="602" y="223" type="line"/>
      <point x="543" y="189"/>
      <point x="487" y="175"/>
      <point x="442" y="175" type="curve" smooth="yes"/>
      <point x="331" y="175"/>
      <point x="289" y="223"/>
      <point x="289" y="324" type="curve" smooth="yes"/>
      <point x="289" y="437"/>
      <point x="344" y="530"/>
      <point x="467" y="530" type="curve" smooth="yes"/>
      <point x="520" y="530"/>
      <point x="579" y="510"/>
      <point x="631" y="475" type="curve"/>
      <point x="710" y="644" type="line"/>
      <point x="661" y="685"/>
      <point x="567" y="717"/>
      <point x="471" y="717" type="curve" smooth="yes"/>
      <point x="203" y="717"/>
      <point x="62" y="539"/>
      <point x="62" y="315" type="curve" smooth="yes"/>
      <point x="62" y="102"/>
      <point x="214" y="-12"/>
    </contour>
  </outline>
</glyph>
<glyph name="D" format="2">
  <advance width="800"/>
  <unicode hex="0044"/>
  <anchor x="369" y="0" name="bottom"/>
  <anchor x="234" y="358" name="center"/>
  <anchor x="463" y="705" name="top"/>
  <outline>
    <contour>
      <point x="22" y="0" type="line"/>
      <point x="368" y="0" type="line" smooth="yes"/>
      <point x="631" y="0"/>
      <point x="781" y="164"/>
      <point x="780" y="392" type="curve" smooth="yes"/>
      <point x="779" y="587"/>
      <point x="642" y="705"/>
      <point x="398" y="705" type="curve" smooth="yes"/>
      <point x="134" y="705" type="line"/>
    </contour>
    <contour>
      <point x="264" y="174" type="line"/>
      <point x="322" y="531" type="line"/>
      <point x="398" y="531" type="line" smooth="yes"/>
      <point x="503" y="531"/>
      <point x="557" y="481"/>
      <point x="557" y="388" type="curve" smooth="yes"/>
      <point x="557" y="250"/>
      <point x="488" y="174"/>
      <point x="370" y="174" type="curve" smooth="yes"/>
    </contour>
  </outline>
</glyph>
<glyph name="E" format="2">
  <advance width="624"/>
  <unicode hex="0045"/>
  <guideline x="279" y="0" angle="0"/>
  <anchor x="303" y="0" name="bottom"/>
  <anchor x="465" y="0" name="ogonek"/>
  <anchor x="408" y="705" name="top"/>
  <anchor x="93" y="705" name="topleft"/>
  <outline>
    <contour>
      <point x="22" y="0" type="line"/>
      <point x="535" y="0" type="line"/>
      <point x="561" y="164" type="line"/>
      <point x="252" y="164" type="line"/>
      <point x="270" y="276" type="line"/>
      <point x="556" y="276" type="line"/>
      <point x="582" y="440" type="line"/>
      <point x="296" y="440" type="line"/>
      <point x="312" y="541" type="line"/>
      <point x="621" y="541" type="line"/>
      <point x="647" y="705" type="line"/>
      <point x="133" y="705" type="line"/>
    </contour>
  </outline>
</glyph>
<glyph name="F" format="2">
  <advance width="588"/>
  <unicode hex="0046"/>
  <anchor x="269" y="0" name="bottom"/>
  <anchor x="386" y="705" name="top"/>
  <outline>
    <contour>
      <point x="22" y="0" type="line"/>
      <point x="237" y="0" type="line"/>
      <point x="279" y="267" type="line"/>
      <point x="550" y="267" type="line"/>
      <point x="576" y="431" type="line"/>
      <point x="305" y="431" type="line"/>
      <point x="322" y="541" type="line"/>
      <point x="616" y="541" type="line"/>
      <point x="642" y="705" type="line"/>
      <point x="133" y="705" type="line"/>
    </contour>
  </outline>
</glyph>
<glyph name="G" format="2">
  <advance width="754"/>
  <unicode hex="0047"/>
  <anchor x="410" y="0" name="bottom"/>
  <anchor x="463" y="705" name="top"/>
  <outline>
    <contour>
      <point x="415" y="-12" type="curve" smooth="yes"/>
      <point x="498" y="-12"/>
      <point x="595" y="1"/>
      <point x="675" y="39" type="curve"/>
      <point x="733" y="406" type="line"/>
      <point x="429" y="406" type="line"/>
      <point x="406" y="258" type="line"/>
      <point x="536" y="258" type="line"/>
      <point x="512" y="110" type="line"/>
      <point x="559" y="185" type="line"/>
      <point x="518" y="173"/>
      <point x="479" y="167"/>
      <point x="448" y="167" type="curve" smooth="yes"/>
      <point x="348" y="167"/>
      <point x="284" y="216"/>
      <point x="284" y="326" type="curve" smooth="yes"/>
      <point x="284" y="429"/>
      <point x="348" y="534"/>
      <point x="479" y="534" type="curve" smooth="yes"/>
      <point x="540" y="534"/>
      <point x="601" y="516"/>
      <point x="655" y="483" type="curve"/>
      <point x="733" y="650" type="line"/>
      <point x="691" y="685"/>
      <point x="599" y="717"/>
      <point x="489" y="717" type="curve" smooth="yes"/>
      <point x="210" y="717"/>
      <point x="62" y="539"/>
      <point x="62" y="317" type="curve" smooth="yes"/>
      <point x="62" y="103"/>
      <point x="216" y="-12"/>
    </contour>
  </outline>
</glyph>
<glyph name="J" format="2">
  <advance width="411"/>
  <unicode hex="004A"/>
  <anchor x="215" y="0" name="bottom"/>
  <anchor x="326" y="705" name="top"/>
  <outline>
    <contour>
      <point x="-25" y="-12" type="line"/>
      <point x="90" y="-6" type="line" smooth="yes"/>
      <point x="273" y="4"/>
      <point x="335" y="74"/>
      <point x="357" y="215" type="curve" smooth="yes"/>
      <point x="435" y="705" type="line"/>
      <point x="220" y="705" type="line"/>
      <point x="144" y="227" type="line" smooth="yes"/>
      <point x="137" y="182"/>
      <point x="117" y="166"/>
      <point x="73" y="164" type="curve" smooth="yes"/>
      <point x="-19" y="159" type="line"/>
    </contour>
  </outline>
</glyph>
<glyph name="N" format="2">
  <advance width="763"/>
  <unicode hex="004E"/>
  <anchor x="357" y="0" name="bottom"/>
  <anchor x="453" y="705" name="top"/>
  <outline>
    <contour>
      <point x="22" y="0" type="line"/>
      <point x="222" y="0" type="line"/>
      <point x="288" y="415" type="line"/>
      <point x="255" y="415" type="line"/>
      <point x="514" y="0" type="line"/>
      <point x="671" y="0" type="line"/>
      <point x="783" y="705" type="line"/>
      <point x="583" y="705" type="line"/>
      <point x="517" y="290" type="line"/>
      <point x="550" y="290" type="line"/>
      <point x="291" y="705" type="line"/>
      <point x="134" y="705" type="line"/>
    </contour>
  </outline>
</glyph>
<glyph name="O" format="2">
  <advance width="820"/>
  <unicode hex="004F"/>
  <anchor x="390" y="-12" name="Qtail"/>
  <anchor x="378" y="0" name="bottom"/>
  <anchor x="429" y="353" name="center"/>
  <anchor x="457" y="0" name="ogonek"/>
  <anchor x="468" y="705" name="top"/>
  <anchor x="101" y="705" name="topleft"/>
  <anchor x="533" y="705" name="topright"/>
  <outline>
    <contour>
      <point x="407" y="-12" type="curve" smooth="yes"/>
      <point x="638" y="-12"/>
      <point x="799" y="151"/>
      <point x="799" y="397" type="curve" smooth="yes"/>
      <point x="799" y="597"/>
      <point x="661" y="717"/>
      <point x="452" y="717" type="curve" smooth="yes"/>
      <point x="222" y="717"/>
      <point x="61" y="554"/>
      <point x="61" y="308" type="curve" smooth="yes"/>
      <point x="61" y="108"/>
      <point x="199" y="-12"/>
    </contour>
    <contour>
      <point x="410" y="167" type="curve" smooth="yes"/>
      <point x="332" y="167"/>
      <point x="284" y="214"/>
      <point x="284" y="312" type="curve" smooth="yes"/>
      <point x="284" y="448"/>
      <point x="346" y="538"/>
      <point x="449" y="538" type="curve" smooth="yes"/>
      <point x="527" y="538"/>
      <point x="576" y="491"/>
      <point x="576" y="393" type="curve" smooth="yes"/>
      <point x="576" y="257"/>
      <point x="513" y="167"/>
    </contour>
  </outline>
</glyph>
<glyph name="P" format="2">
  <advance width="689"/>
  <unicode hex="0050"/>
  <guideline x="290" y="335" angle="261.0524"/>
  <anchor x="311" y="0" name="bottom"/>
  <anchor x="422" y="705" name="top"/>
  <outline>
    <contour>
      <point x="22" y="0" type="line"/>
      <point x="237" y="0" type="line"/>
      <point x="274" y="231" type="line"/>
      <point x="405" y="231" type="line" smooth="yes"/>
      <point x="603" y="231"/>
      <point x="709" y="324"/>
      <point x="709" y="497" type="curve" smooth="yes"/>
      <point x="709" y="624"/>
      <point x="624" y="705"/>
      <point x="445" y="705" type="curve" smooth="yes"/>
      <point x="134" y="705" type="line"/>
    </contour>
    <contour>
      <point x="300" y="395" type="line"/>
      <point x="323" y="541" type="line"/>
      <point x="415" y="541" type="line" smooth="yes"/>
      <point x="478" y="541"/>
      <point x="505" y="521"/>
      <point x="505" y="477" type="curve" smooth="yes"/>
      <point x="505" y="423"/>
      <point x="474" y="395"/>
      <point x="413" y="395" type="curve" smooth="yes"/>
    </contour>
  </outline>
</glyph>
<glyph name="S" format="2">
  <advance width="663"/>
  <unicode hex="0053"/>
  <guideline x="365" y="163" angle="0"/>
  <guideline x="429" y="222" angle="90"/>
  <guideline x="292" y="510" angle="270"/>
  <anchor x="320" y="0" name="bottom"/>
  <anchor x="400" y="705" name="top"/>
  <outline>
    <contour>
      <point x="309" y="-12" type="curve" smooth="yes"/>
      <point x="480" y="-12"/>
      <point x="639" y="66"/>
      <point x="639" y="235" type="curve" smooth="yes"/>
      <point x="639" y="327"/>
      <point x="575" y="398"/>
      <point x="471" y="422" type="curve" smooth="yes"/>
      <point x="352" y="450" type="line" smooth="yes"/>
      <point x="311" y="460"/>
      <point x="292" y="476"/>
      <point x="292" y="496" type="curve" smooth="yes"/>
      <point x="292" y="522"/>
      <point x="327" y="542"/>
      <point x="391" y="542" type="curve" smooth="yes"/>
      <point x="446" y="542"/>
      <point x="523" y="527"/>
      <point x="584" y="488" type="curve"/>
      <point x="656" y="641" type="line"/>
      <point x="576" y="693"/>
      <point x="479" y="717"/>
      <point x="392" y="717" type="curve" smooth="yes"/>
      <point x="229" y="717"/>
      <point x="82" y="631"/>
      <point x="82" y="473" type="curve" smooth="yes"/>
      <point x="82" y="381"/>
      <point x="146" y="310"/>
      <point x="250" y="286" type="curve" smooth="yes"/>
      <point x="369" y="258" type="line" smooth="yes"/>
      <point x="409" y="249"/>
      <point x="429" y="234"/>
      <point x="429" y="210" type="curve" smooth="yes"/>
      <point x="429" y="184"/>
      <point x="396" y="163"/>
      <point x="330" y="163" type="curve" smooth="yes"/>
      <point x="262" y="163"/>
      <point x="169" y="184"/>
      <point x="85" y="232" type="curve"/>
      <point x="17" y="70" type="line"/>
      <point x="97" y="16"/>
      <point x="205" y="-12"/>
    </contour>
  </outline>
</glyph>
<glyph name="U" format="2">
  <advance width="754"/>
  <unicode hex="0055"/>
  <guideline x="451" y="515" angle="81.1065"/>
  <guideline x="456" y="705" angle="0"/>
  <anchor x="345" y="0" name="bottom"/>
  <anchor x="423" y="0" name="ogonek"/>
  <anchor x="453" y="705" name="top"/>
  <anchor x="625" y="705" name="topright"/>
  <outline>
    <contour>
      <point x="359" y="-12" type="curve" smooth="yes"/>
      <point x="582" y="-12"/>
      <point x="683" y="99"/>
      <point x="714" y="296" type="curve" smooth="yes"/>
      <point x="779" y="705" type="line"/>
      <point x="568" y="705" type="line"/>
      <point x="501" y="284" type="line" smooth="yes"/>
      <point x="488" y="205"/>
      <point x="444" y="166"/>
      <point x="377" y="166" type="curve" smooth="yes"/>
      <point x="298" y="166"/>
      <point x="268" y="224"/>
      <point x="282" y="314" type="curve" smooth="yes"/>
      <point x="344" y="705" type="line"/>
      <point x="129" y="705" type="line"/>
      <point x="69" y="325" type="line" smooth="yes"/>
      <point x="32" y="95"/>
      <point x="174" y="-12"/>
    </contour>
  </outline>
</glyph>
<glyph name="V" format="2">
  <advance width="759"/>
  <unicode hex="0056"/>
  <anchor x="345" y="0" name="bottom"/>
  <anchor x="455" y="705" name="top"/>
  <outline>
    <contour>
      <point x="261" y="0" type="line"/>
      <point x="430" y="0" type="line"/>
      <point x="866" y="705" type="line"/>
      <point x="631" y="705" type="line"/>
      <point x="335" y="203" type="line"/>
      <point x="397" y="203" type="line"/>
      <point x="261" y="705" type="line"/>
      <point x="47" y="705" type="line"/>
    </contour>
  </outline>
</glyph>
<glyph name="W" format="2">
  <advance width="1136"/>
  <unicode hex="0057"/>
  <anchor x="533" y="0" name="bottom"/>
  <anchor x="640" y="705" name="top"/>
  <outline>
    <contour>
      <point x="226" y="0" type="line"/>
      <point x="397" y="0" type="line"/>
      <point x="614" y="411" type="line"/>
      <point x="588" y="411" type="line"/>
      <point x="671" y="0" type="line"/>
      <point x="841" y="0" type="line"/>
      <point x="1209" y="705" type="line"/>
      <point x="991" y="705" type="line"/>
      <point x="756" y="234" type="line"/>
      <point x="801" y="234" type="line"/>
      <point x="718" y="705" type="line"/>
      <point x="566" y="705" type="line"/>
      <point x="322" y="234" type="line"/>
      <point x="370" y="234" type="line"/>
      <point x="289" y="705" type="line"/>
      <point x="82" y="705" type="line"/>
    </contour>
  </outline>
</glyph>
<glyph name="X" format="2">
  <advance width="713"/>
  <unicode hex="0058"/>
  <anchor x="320" y="0" name="bottom"/>
  <anchor x="429" y="705" name="top"/>
  <outline>
    <contour>
      <point x="-71" y="0" type="line"/>
      <point x="189" y="0" type="line"/>
      <point x="385" y="245" type="line"/>
      <point x="335" y="245" type="line"/>
      <point x="477" y="0" type="line"/>
      <point x="714" y="0" type="line"/>
      <point x="469" y="404" type="line"/>
      <point x="469" y="306" type="line"/>
      <point x="823" y="705" type="line"/>
      <point x="562" y="705" type="line"/>
      <point x="364" y="461" type="line"/>
      <point x="415" y="461" type="line"/>
      <point x="278" y="705" type="line"/>
      <point x="43" y="705" type="line"/>
      <point x="285" y="306" type="line"/>
      <point x="285" y="404" type="line"/>
    </contour>
  </outline>
</glyph>
<glyph name="Z" format="2">
  <advance width="636"/>
  <unicode hex="005A"/>
  <guideline x="418" y="301" angle="226.5038"/>
  <anchor x="302" y="0" name="bottom"/>
  <anchor x="390" y="705" name="top"/>
  <outline>
    <contour>
      <point x="9" y="0" type="line"/>
      <point x="581" y="0" type="line"/>
      <point x="609" y="176" type="line"/>
      <point x="238" y="176" type="line"/>
      <point x="244" y="118" type="line"/>
      <point x="651" y="547" type="line"/>
      <point x="676" y="705" type="line"/>
      <point x="120" y="705" type="line"/>
      <point x="93" y="529" type="line"/>
      <point x="448" y="529" type="line"/>
      <point x="444" y="588" type="line"/>
      <point x="34" y="158" type="line"/>
    </contour>
  </outline>
</glyph>
<glyph name="bracketright" format="2">
  <advance width="427"/>
  <unicode hex="005D"/>
  <outline>
    <contour>
      <point x="-44" y="-180" type="line"/>
      <point x="262" y="-180" type="line"/>
      <point x="403" y="705" type="line"/>
      <point x="97" y="705" type="line"/>
      <point x="73" y="553" type="line"/>
      <point x="171" y="553" type="line"/>
      <point x="79" y="-28" type="line"/>
      <point x="-19" y="-28" type="line"/>
    </contour>
  </outline>
</glyph>
<glyph name="b" format="2">
  <advance width="632"/>
  <unicode hex="0062"/>
  <anchor x="268" y="0" name="bottom"/>
  <anchor x="403" y="705" name="top"/>
  <outline>
    <contour>
      <point x="361" y="-12" type="curve" smooth="yes"/>
      <point x="480" y="-12"/>
      <point x="584" y="70"/>
      <point x="607" y="212" type="curve" smooth="yes"/>
      <point x="629" y="354"/>
      <point x="555" y="456"/>
      <point x="425" y="456" type="curve" smooth="yes"/>
      <point x="353" y="456"/>
      <point x="290" y="423"/>
      <point x="261" y="378" type="curve"/>
      <point x="277" y="378" type="line"/>
      <point x="329" y="705" type="line"/>
      <point x="121" y="705" type="line"/>
      <point x="9" y="0" type="line"/>
      <point x="211" y="0" type="line"/>
      <point x="223" y="73" type="line"/>
      <point x="215" y="73" type="line"/>
      <point x="228" y="26"/>
      <point x="286" y="-12"/>
    </contour>
    <contour>
      <point x="311" y="138" type="curve" smooth="yes"/>
      <point x="265" y="138"/>
      <point x="238" y="164"/>
      <point x="247" y="222" type="curve" smooth="yes"/>
      <point x="256" y="280"/>
      <point x="292" y="307"/>
      <point x="338" y="307" type="curve" smooth="yes"/>
      <point x="384" y="307"/>
      <point x="410" y="280"/>
      <point x="401" y="222" type="curve" smooth="yes"/>
      <point x="392" y="164"/>
      <point x="357" y="138"/>
    </contour>
  </outline>
</glyph>
<glyph name="c" format="2">
  <advance width="491"/>
  <unicode hex="0063"/>
  <anchor x="259" y="0" name="bottom"/>
  <anchor x="336" y="484" name="top"/>
  <outline>
    <contour>
      <point x="274" y="-12" type="curve" smooth="yes"/>
      <point x="336" y="-12"/>
      <point x="409" y="4"/>
      <point x="459" y="30" type="curve"/>
      <point x="432" y="170" type="line"/>
      <point x="400" y="152"/>
      <point x="353" y="138"/>
      <point x="317" y="138" type="curve" smooth="yes"/>
      <point x="257" y="138"/>
      <point x="229" y="169"/>
      <point x="237" y="222" type="curve" smooth="yes"/>
      <point x="246" y="276"/>
      <point x="284" y="307"/>
      <point x="344" y="307" type="curve" smooth="yes"/>
      <point x="381" y="307"/>
      <point x="422" y="293"/>
      <point x="448" y="274" type="curve"/>
      <point x="510" y="415" type="line"/>
      <point x="468" y="442"/>
      <point x="400" y="456"/>
      <point x="348" y="456" type="curve" smooth="yes"/>
      <point x="174" y="456"/>
      <point x="50" y="376"/>
      <point x="27" y="232" type="curve" smooth="yes"/>
      <point x="5" y="89"/>
      <point x="100" y="-12"/>
    </contour>
  </outline>
</glyph>
<glyph name="e" format="2">
  <advance width="563"/>
  <unicode hex="0065"/>
  <anchor x="258" y="0" name="bottom"/>
  <anchor x="366" y="0" name="ogonek"/>
  <anchor x="335" y="484" name="top"/>
  <outline>
    <contour>
      <point x="296" y="-12" type="curve" smooth="yes"/>
      <point x="359" y="-12"/>
      <point x="442" y="6"/>
      <point x="498" y="33" type="curve"/>
      <point x="476" y="164" type="line"/>
      <point x="429" y="143"/>
      <point x="369" y="132"/>
      <point x="324" y="132" type="curve" smooth="yes"/>
      <point x="235" y="132"/>
      <point x="206" y="159"/>
      <point x="217" y="226" type="curve" smooth="yes"/>
      <point x="219" y="242" type="line" smooth="yes"/>
      <point x="229" y="302"/>
      <point x="264" y="331"/>
      <point x="315" y="331" type="curve" smooth="yes"/>
      <point x="363" y="331"/>
      <point x="386" y="306"/>
      <point x="378" y="252" type="curve"/>
      <point x="396" y="266" type="line"/>
      <point x="207" y="266" type="line"/>
      <point x="194" y="183" type="line"/>
      <point x="537" y="183" type="line"/>
      <point x="542" y="215" type="line" smooth="yes"/>
      <point x="565" y="360"/>
      <point x="471" y="456"/>
      <point x="318" y="456" type="curve" smooth="yes"/>
      <point x="165" y="456"/>
      <point x="49" y="367"/>
      <point x="27" y="234" type="curve" smooth="yes"/>
      <point x="5" y="92"/>
      <point x="101" y="-12"/>
    </contour>
  </outline>
</glyph>
<glyph name="g" format="2">
  <advance width="638"/>
  <unicode hex="0067"/>
  <anchor x="359" y="484" name="top"/>
  <outline>
    <contour>
      <point x="231" y="-192" type="curve" smooth="yes"/>
      <point x="421" y="-192"/>
      <point x="543" y="-103"/>
      <point x="571" y="75" type="curve" smooth="yes"/>
      <point x="629" y="444" type="line"/>
      <point x="427" y="444" type="line"/>
      <point x="417" y="378" type="line"/>
      <point x="423" y="378" type="line"/>
      <point x="405" y="424"/>
      <point x="348" y="456"/>
      <point x="276" y="456" type="curve" smooth="yes"/>
      <point x="152" y="456"/>
      <point x="50" y="377"/>
      <point x="29" y="245" type="curve" smooth="yes"/>
      <point x="8" y="113"/>
      <point x="82" y="13"/>
      <point x="216" y="13" type="curve" smooth="yes"/>
      <point x="288" y="13"/>
      <point x="354" y="49"/>
      <point x="385" y="94" type="curve"/>
      <point x="372" y="94" type="line"/>
      <point x="365" y="52" type="line" smooth="yes"/>
      <point x="355" y="-13"/>
      <point x="313" y="-40"/>
      <point x="235" y="-40" type="curve" smooth="yes"/>
      <point x="181" y="-40"/>
      <point x="101" y="-22"/>
      <point x="59" y="4" type="curve"/>
      <point x="-15" y="-137" type="line"/>
      <point x="48" y="-176"/>
      <point x="137" y="-192"/>
    </contour>
    <contour>
      <point x="301" y="161" type="curve" smooth="yes"/>
      <point x="250" y="161"/>
      <point x="226" y="189"/>
      <point x="233" y="235" type="curve" smooth="yes"/>
      <point x="240" y="280"/>
      <point x="274" y="308"/>
      <point x="325" y="308" type="curve" smooth="yes"/>
      <point x="376" y="308"/>
      <point x="400" y="280"/>
      <point x="393" y="235" type="curve" smooth="yes"/>
      <point x="386" y="189"/>
      <point x="352" y="161"/>
    </contour>
  </outline>
</glyph>
<glyph name="i" format="2">
  <advance width="296"/>
  <unicode hex="0069"/>
  <anchor x="114" y="0" name="bottom"/>
  <anchor x="165" y="0" name="ogonek"/>
  <outline>
    <contour>
      <point x="88" y="518" type="line"/>
      <point x="302" y="518" type="line"/>
      <point x="331" y="700" type="line"/>
      <point x="117" y="700" type="line"/>
    </contour>
    <contour>
      <point x="9" y="0" type="line"/>
      <point x="217" y="0" type="line"/>
      <point x="287" y="444" type="line"/>
      <point x="79" y="444" type="line"/>
    </contour>
  </outline>
</glyph>
<glyph name="k" format="2">
  <advance width="605"/>
  <unicode hex="006B"/>
  <anchor x="267" y="0" name="bottom"/>
  <anchor x="387" y="705" name="top"/>
  <outline>
    <contour>
      <point x="9" y="0" type="line"/>
      <point x="217" y="0" type="line"/>
      <point x="245" y="179" type="line"/>
      <point x="247" y="179" type="line"/>
      <point x="358" y="0" type="line"/>
      <point x="601" y="0" type="line"/>
      <point x="439" y="262" type="line"/>
      <point x="440" y="201" type="line"/>
      <point x="669" y="444" type="line"/>
      <point x="421" y="444" type="line"/>
      <point x="262" y="271" type="line"/>
      <point x="260" y="271" type="line"/>
      <point x="329" y="705" type="line"/>
      <point x="121" y="705" type="line"/>
    </contour>
  </outline>
</glyph>
<glyph name="l" format="2">
  <advance width="364"/>
  <unicode hex="006C"/>
  <anchor x="168" y="0" name="bottom"/>
  <anchor x="173" y="315" name="center"/>
  <anchor x="417" y="315" name="dot"/>
  <anchor x="225" y="705" name="top"/>
  <anchor x="359" y="705" name="topright"/>
  <outline>
    <contour>
      <point x="216" y="-12" type="curve" smooth="yes"/>
      <point x="251" y="-12"/>
      <point x="283" y="-8"/>
      <point x="313" y="1" type="curve"/>
      <point x="339" y="158" type="line"/>
      <point x="327" y="155"/>
      <point x="312" y="154"/>
      <point x="299" y="154" type="curve" smooth="yes"/>
      <point x="259" y="154"/>
      <point x="245" y="176"/>
      <point x="251" y="212" type="curve" smooth="yes"/>
      <point x="329" y="705" type="line"/>
      <point x="121" y="705" type="line"/>
      <point x="42" y="207" type="line" smooth="yes"/>
      <point x="20" y="69"/>
      <point x="67" y="-12"/>
    </contour>
  </outline>
</glyph>
<glyph name="n" format="2">
  <advance width="618"/>
  <unicode hex="006E"/>
  <anchor x="276" y="0" name="bottom"/>
  <anchor x="353" y="484" name="top"/>
  <outline>
    <contour>
      <point x="9" y="0" type="line"/>
      <point x="217" y="0" type="line"/>
      <point x="253" y="227" type="line" smooth="yes"/>
      <point x="260" y="271"/>
      <point x="290" y="299"/>
      <point x="334" y="299" type="curve" smooth="yes"/>
      <point x="364" y="299"/>
      <point x="378" y="283"/>
      <point x="370" y="235" type="curve" smooth="yes"/>
      <point x="333" y="0" type="line"/>
      <point x="541" y="0" type="line"/>
      <point x="580" y="247" type="line" smooth="yes"/>
      <point x="602" y="388"/>
      <point x="553" y="456"/>
      <point x="435" y="456" type="curve" smooth="yes"/>
      <point x="361" y="456"/>
      <point x="297" y="423"/>
      <point x="255" y="367" type="curve"/>
      <point x="269" y="367" type="line"/>
      <point x="281" y="444" type="line"/>
      <point x="79" y="444" type="line"/>
    </contour>
  </outline>
</glyph>
<glyph name="o" format="2">
  <advance width="616"/>
  <unicode hex="006F"/>
  <anchor x="272" y="0" name="bottom"/>
  <anchor x="307" y="222" name="center"/>
  <anchor x="331" y="0" name="ogonek"/>
  <anchor x="349" y="484" name="top"/>
  <anchor x="413" y="435" name="topright"/>
  <outline>
    <contour>
      <point x="280" y="-12" type="curve" smooth="yes"/>
      <point x="441" y="-12"/>
      <point x="567" y="69"/>
      <point x="590" y="212" type="curve" smooth="yes"/>
      <point x="613" y="356"/>
      <point x="515" y="456"/>
      <point x="334" y="456" type="curve" smooth="yes"/>
      <point x="173" y="456"/>
      <point x="49" y="376"/>
      <point x="26" y="232" type="curve" smooth="yes"/>
      <point x="3" y="89"/>
      <point x="99" y="-12"/>
    </contour>
    <contour>
      <point x="294" y="138" type="curve" smooth="yes"/>
      <point x="248" y="138"/>
      <point x="221" y="164"/>
      <point x="230" y="222" type="curve" smooth="yes"/>
      <point x="239" y="280"/>
      <point x="275" y="307"/>
      <point x="321" y="307" type="curve" smooth="yes"/>
      <point x="367" y="307"/>
      <point x="393" y="280"/>
      <point x="384" y="222" type="curve" smooth="yes"/>
      <point x="375" y="164"/>
      <point x="340" y="138"/>
    </contour>
  </outline>
</glyph>
<glyph name="q" format="2">
  <advance width="632"/>
  <unicode hex="0071"/>
  <anchor x="285" y="0" name="bottom"/>
  <anchor x="362" y="484" name="top"/>
  <outline>
    <contour>
      <point x="316" y="-180" type="line"/>
      <point x="524" y="-180" type="line"/>
      <point x="623" y="444" type="line"/>
      <point x="421" y="444" type="line"/>
      <point x="410" y="372" type="line"/>
      <point x="418" y="372" type="line"/>
      <point x="405" y="419"/>
      <point x="347" y="456"/>
      <point x="272" y="456" type="curve" smooth="yes"/>
      <point x="152" y="456"/>
      <point x="50" y="374"/>
      <point x="27" y="232" type="curve" smooth="yes"/>
      <point x="5" y="91"/>
      <point x="82" y="-12"/>
      <point x="203" y="-12" type="curve" smooth="yes"/>
      <point x="275" y="-12"/>
      <point x="342" y="22"/>
      <point x="372" y="66" type="curve"/>
      <point x="355" y="66" type="line"/>
    </contour>
    <contour>
      <point x="295" y="138" type="curve" smooth="yes"/>
      <point x="249" y="138"/>
      <point x="222" y="164"/>
      <point x="231" y="222" type="curve" smooth="yes"/>
      <point x="240" y="280"/>
      <point x="276" y="307"/>
      <point x="322" y="307" type="curve" smooth="yes"/>
      <point x="368" y="307"/>
      <point x="394" y="280"/>
      <point x="385" y="222" type="curve" smooth="yes"/>
      <point x="376" y="164"/>
      <point x="341" y="138"/>
    </contour>
  </outline>
</glyph>
<glyph name="s" format="2">
  <advance width="501"/>
  <unicode hex="0073"/>
  <anchor x="217" y="0" name="bottom"/>
  <anchor x="302" y="484" name="top"/>
  <outline>
    <contour>
      <point x="213" y="-12" type="curve" smooth="yes"/>
      <point x="364" y="-12"/>
      <point x="459" y="47"/>
      <point x="474" y="142" type="curve" smooth="yes"/>
      <point x="486" y="219"/>
      <point x="446" y="266"/>
      <point x="358" y="276" type="curve" smooth="yes"/>
      <point x="240" y="289" type="line" smooth="yes"/>
      <point x="225" y="291"/>
      <point x="218" y="297"/>
      <point x="219" y="305" type="curve" smooth="yes"/>
      <point x="221" y="317"/>
      <point x="241" y="328"/>
      <point x="294" y="328" type="curve" smooth="yes"/>
      <point x="336" y="328"/>
      <point x="399" y="313"/>
      <point x="438" y="292" type="curve"/>
      <point x="492" y="414" type="line"/>
      <point x="442" y="444"/>
      <point x="370" y="456"/>
      <point x="312" y="456" type="curve" smooth="yes"/>
      <point x="157" y="456"/>
      <point x="58" y="392"/>
      <point x="43" y="300" type="curve" smooth="yes"/>
      <point x="32" y="229"/>
      <point x="72" y="179"/>
      <point x="159" y="169" type="curve" smooth="yes"/>
      <point x="277" y="156" type="line" smooth="yes"/>
      <point x="293" y="155"/>
      <point x="300" y="150"/>
      <point x="298" y="140" type="curve" smooth="yes"/>
      <point x="296" y="128"/>
      <point x="280" y="117"/>
      <point x="232" y="117" type="curve" smooth="yes"/>
      <point x="168" y="117"/>
      <point x="98" y="134"/>
      <point x="55" y="158" type="curve"/>
      <point x="4" y="32" type="line"/>
      <point x="53" y="3"/>
      <point x="132" y="-12"/>
    </contour>
  </outline>
</glyph>
<glyph name="t" format="2">
  <advance width="449"/>
  <unicode hex="0074"/>
  <anchor x="222" y="0" name="bottom"/>
  <anchor x="208" y="224" name="center"/>
  <anchor x="249" y="585" name="top"/>
  <anchor x="402" y="705" name="topright"/>
  <outline>
    <contour>
      <point x="285" y="-12" type="curve" smooth="yes"/>
      <point x="327" y="-12"/>
      <point x="375" y="-2"/>
      <point x="412" y="15" type="curve"/>
      <point x="410" y="162" type="line"/>
      <point x="382" y="155"/>
      <point x="363" y="152"/>
      <point x="348" y="152" type="curve" smooth="yes"/>
      <point x="304" y="152"/>
      <point x="287" y="168"/>
      <point x="292" y="205" type="curve" smooth="yes"/>
      <point x="306" y="292" type="line"/>
      <point x="442" y="292" type="line"/>
      <point x="466" y="444" type="line"/>
      <point x="330" y="444" type="line"/>
      <point x="353" y="585" type="line"/>
      <point x="145" y="585" type="line"/>
      <point x="122" y="444" type="line"/>
      <point x="31" y="444" type="line"/>
      <point x="7" y="292" type="line"/>
      <point x="98" y="292" type="line"/>
      <point x="84" y="202" type="line" smooth="yes"/>
      <point x="63" y="68"/>
      <point x="125" y="-12"/>
    </contour>
  </outline>
</glyph>
<glyph name="u" format="2">
  <advance width="613"/>
  <unicode hex="0075"/>
  <anchor x="271" y="0" name="bottom"/>
  <anchor x="464" y="0" name="ogonek"/>
  <anchor x="348" y="484" name="top"/>
  <anchor x="458" y="434" name="topright"/>
  <outline>
    <contour>
      <point x="200" y="-12" type="curve" smooth="yes"/>
      <point x="270" y="-12"/>
      <point x="322" y="21"/>
      <point x="364" y="80" type="curve"/>
      <point x="345" y="80" type="line"/>
      <point x="332" y="0" type="line"/>
      <point x="534" y="0" type="line"/>
      <point x="604" y="444" type="line"/>
      <point x="397" y="444" type="line"/>
      <point x="361" y="218" type="line" smooth="yes"/>
      <point x="354" y="176"/>
      <point x="322" y="145"/>
      <point x="287" y="145" type="curve" smooth="yes"/>
      <point x="255" y="145"/>
      <point x="241" y="162"/>
      <point x="247" y="203" type="curve" smooth="yes"/>
      <point x="285" y="444" type="line"/>
      <point x="77" y="444" type="line"/>
      <point x="38" y="197" type="line" smooth="yes"/>
      <point x="16" y="57"/>
      <point x="79" y="-12"/>
    </contour>
  </outline>
</glyph>
<glyph name="v" format="2">
  <advance width="550"/>
  <unicode hex="0076"/>
  <anchor x="243" y="0" name="bottom"/>
  <anchor x="320" y="484" name="top"/>
  <outline>
    <contour>
      <point x="158" y="0" type="line"/>
      <point x="322" y="0" type="line"/>
      <point x="616" y="444" type="line"/>
      <point x="405" y="444" type="line"/>
      <point x="248" y="192" type="line"/>
      <point x="281" y="192" type="line"/>
      <point x="211" y="444" type="line"/>
      <point x="7" y="444" type="line"/>
    </contour>
  </outline>
</glyph>
<glyph name="w" format="2">
  <advance width="877"/>
  <unicode hex="0077"/>
  <anchor x="404" y="0" name="bottom"/>
  <anchor x="481" y="484" name="top"/>
  <outline>
    <contour>
      <point x="159" y="0" type="line"/>
      <point x="317" y="0" type="line"/>
      <point x="475" y="253" type="line"/>
      <point x="409" y="253" type="line"/>
      <point x="490" y="0" type="line"/>
      <point x="648" y="0" type="line"/>
      <point x="936" y="444" type="line"/>
      <point x="738" y="444" type="line"/>
      <point x="580" y="201" type="line"/>
      <point x="605" y="201" type="line"/>
      <point x="532" y="444" type="line"/>
      <point x="412" y="444" type="line"/>
      <point x="261" y="201" type="line"/>
      <point x="283" y="201" type="line"/>
      <point x="207" y="444" type="line"/>
      <point x="9" y="444" type="line"/>
    </contour>
  </outline>
</glyph>
<glyph name="x" format="2">
  <advance width="587"/>
  <unicode hex="0078"/>
  <anchor x="259" y="0" name="bottom"/>
  <anchor x="336" y="484" name="top"/>
  <outline>
    <contour>
      <point x="-71" y="0" type="line"/>
      <point x="175" y="0" type="line"/>
      <point x="320" y="144" type="line"/>
      <point x="253" y="144" type="line"/>
      <point x="354" y="0" type="line"/>
      <point x="583" y="0" type="line"/>
      <point x="384" y="270" type="line"/>
      <point x="370" y="178" type="line"/>
      <point x="646" y="444" type="line"/>
      <point x="402" y="444" type="line"/>
      <point x="272" y="314" type="line"/>
      <point x="338" y="314" type="line"/>
      <point x="248" y="444" type="line"/>
      <point x="20" y="444" type="line"/>
      <point x="206" y="185" type="line"/>
      <point x="217" y="274" type="line"/>
    </contour>
  </outline>
</glyph>
<glyph name="y" format="2">
  <advance width="549"/>
  <unicode hex="0079"/>
  <anchor x="414" y="0" name="bottom"/>
  <anchor x="317" y="484" name="top"/>
  <outline>
    <contour>
      <point x="-18" y="-180" type="line"/>
      <point x="200" y="-180" type="line"/>
      <point x="616" y="444" type="line"/>
      <point x="405" y="444" type="line"/>
      <point x="247" y="192" type="line"/>
      <point x="280" y="192" type="line"/>
      <point x="210" y="444" type="line"/>
      <point x="6" y="444" type="line"/>
      <point x="157" y="0" type="line"/>
      <point x="159" y="78" type="line"/>
    </contour>
  </outline>
</glyph>
<glyph name="z" format="2">
  <advance width="494"/>
  <unicode hex="007A"/>
  <anchor x="216" y="0" name="bottom"/>
  <anchor x="293" y="484" name="top"/>
  <outline>
    <contour>
      <point x="3" y="0" type="line"/>
      <point x="439" y="0" type="line"/>
      <point x="463" y="150" type="line"/>
      <point x="215" y="150" type="line"/>
      <point x="206" y="96" type="line"/>
      <point x="479" y="316" type="line"/>
      <point x="499" y="444" type="line"/>
      <point x="73" y="444" type="line"/>
      <point x="50" y="295" type="line"/>
      <point x="285" y="295" type="line"/>
      <point x="293" y="345" type="line"/>
      <point x="23" y="129" type="line"/>
    </contour>
  </outline>
</glyph>
<glyph name="braceright" format="2">
  <advance width="464"/>
  <unicode hex="007D"/>
  <outline>
    <contour>
      <point x="-44" y="-180" type="line"/>
      <point x="103" y="-180" type="line" smooth="yes"/>
      <point x="202" y="-180"/>
      <point x="272" y="-121"/>
      <point x="288" y="-22" type="curve" smooth="yes"/>
      <point x="308" y="108" type="line" smooth="yes"/>
      <point x="316" y="159"/>
      <point x="333" y="178"/>
      <point x="373" y="183" type="curve" smooth="yes"/>
      <point x="426" y="188" type="line"/>
      <point x="449" y="335" type="line"/>
      <point x="398" y="340" type="line" smooth="yes"/>
      <point x="360" y="345"/>
      <point x="349" y="364"/>
      <point x="357" y="415" type="curve" smooth="yes"/>
      <point x="378" y="547" type="line" smooth="yes"/>
      <point x="393" y="646"/>
      <point x="343" y="705"/>
      <point x="244" y="705" type="curve" smooth="yes"/>
      <point x="97" y="705" type="line"/>
      <point x="73" y="553" type="line"/>
      <point x="132" y="553" type="line" smooth="yes"/>
      <point x="160" y="553"/>
      <point x="169" y="541"/>
      <point x="164" y="511" type="curve" smooth="yes"/>
      <point x="145" y="389" type="line" smooth="yes"/>
      <point x="134" y="323"/>
      <point x="177" y="259"/>
      <point x="231" y="259" type="curve"/>
      <point x="232" y="263" type="line"/>
      <point x="178" y="263"/>
      <point x="115" y="199"/>
      <point x="104" y="134" type="curve" smooth="yes"/>
      <point x="85" y="14" type="line" smooth="yes"/>
      <point x="80" y="-16"/>
      <point x="68" y="-28"/>
      <point x="40" y="-28" type="curve" smooth="yes"/>
      <point x="-19" y="-28" type="line"/>
    </contour>
  </outline>
</glyph>
<glyph name="exclamdown" format="2">
  <advance width="285"/>
  <unicode hex="00A1"/>
  <outline>
    <contour>
      <point x="-49" y="-180" type="line"/>
      <point x="206" y="-180" type="line"/>
      <point x="200" y="189" type="line"/>
      <point x="75" y="189" type="line"/>
    </contour>
    <contour>
      <point x="40" y="237" type="line"/>
      <point x="251" y="237" type="line"/>
      <point x="283" y="444" type="line"/>
      <point x="72" y="444" type="line"/>
    </contour>
  </outline>
</glyph>
<glyph name="cent" format="2">
  <advance width="600"/>
  <unicode hex="00A2"/>
  <outline>
    <contour>
      <point x="184" y="-115" type="line"/>
      <point x="344" y="-115" type="line"/>
      <point x="367" y="30" type="line"/>
      <point x="328" y="-1" type="line"/>
      <point x="399" y="-5"/>
      <point x="488" y="17"/>
      <point x="519" y="41" type="curve"/>
      <point x="480" y="184" type="line"/>
      <point x="450" y="165"/>
      <point x="412" y="153"/>
      <point x="374" y="153" type="curve" smooth="yes"/>
      <point x="308" y="153"/>
      <point x="282" y="187"/>
      <point x="282" y="226" type="curve" smooth="yes"/>
      <point x="282" y="280"/>
      <point x="310" y="344"/>
      <point x="396" y="344" type="curve" smooth="yes"/>
      <point x="439" y="344"/>
      <point x="483" y="330"/>
      <point x="508" y="312" type="curve"/>
      <point x="563" y="454" type="line"/>
      <point x="524" y="479"/>
      <point x="467" y="496"/>
      <point x="405" y="497" type="curve"/>
      <point x="435" y="463" type="line"/>
      <point x="459" y="613" type="line"/>
      <point x="299" y="613" type="line"/>
      <point x="273" y="449" type="line"/>
      <point x="315" y="494" type="line"/>
      <point x="151" y="470"/>
      <point x="69" y="351"/>
      <point x="69" y="223" type="curve" smooth="yes"/>
      <point x="69" y="119"/>
      <point x="126" y="39"/>
      <point x="238" y="10" type="curve"/>
      <point x="209" y="42" type="line"/>
    </contour>
  </outline>
</glyph>
<glyph name="currency" format="2">
  <advance width="600"/>
  <unicode hex="00A4"/>
  <outline>
    <contour>
      <point x="94" y="-37" type="line"/>
      <point x="166" y="37" type="line"/>
      <point x="205" y="12"/>
      <point x="251" y="-3"/>
      <point x="301" y="-3" type="curve" smooth="yes"/>
      <point x="353" y="-3"/>
      <point x="400" y="12"/>
      <point x="440" y="40" type="curve"/>
      <point x="513" y="-35" type="line"/>
      <point x="579" y="29" type="line"/>
      <point x="504" y="106" type="line"/>
      <point x="529" y="146"/>
      <point x="544" y="194"/>
      <point x="544" y="245" type="curve" smooth="yes"/>
      <point x="544" y="295"/>
      <point x="531" y="341"/>
      <point x="506" y="381" type="curve"/>
      <point x="582" y="458" type="line"/>
      <point x="509" y="531" type="line"/>
      <point x="434" y="454" type="line"/>
      <point x="396" y="479"/>
      <point x="350" y="493"/>
      <point x="301" y="493" type="curve" smooth="yes"/>
      <point x="253" y="493"/>
      <point x="207" y="478"/>
      <point x="168" y="454" type="curve"/>
      <point x="95" y="528" type="line"/>
      <point x="28" y="461" type="line"/>
      <point x="100" y="387" type="line"/>
      <point x="73" y="346"/>
      <point x="57" y="298"/>
      <point x="57" y="245" type="curve" smooth="yes"/>
      <point x="57" y="193"/>
      <point x="73" y="144"/>
      <point x="100" y="103" type="curve"/>
      <point x="28" y="29" type="line"/>
    </contour>
    <contour>
      <point x="302" y="155" type="curve" smooth="yes"/>
      <point x="252" y="155"/>
      <point x="217" y="196"/>
      <point x="217" y="245" type="curve" smooth="yes"/>
      <point x="217" y="294"/>
      <point x="255" y="336"/>
      <point x="302" y="335" type="curve" smooth="yes"/>
      <point x="347" y="334"/>
      <point x="386" y="294"/>
      <point x="386" y="245" type="curve" smooth="yes"/>
      <point x="386" y="196"/>
      <point x="347" y="155"/>
    </contour>
  </outline>
</glyph>
<glyph name="yen" format="2">
  <advance width="600"/>
  <unicode hex="00A5"/>
  <outline>
    <contour>
      <point x="158" y="0" type="line"/>
      <point x="373" y="0" type="line"/>
      <point x="395" y="143" type="line"/>
      <point x="528" y="143" type="line"/>
      <point x="546" y="255" type="line"/>
      <point x="413" y="255" type="line"/>
      <point x="421" y="305" type="line"/>
      <point x="554" y="305" type="line"/>
      <point x="572" y="417" type="line"/>
      <point x="468" y="417" type="line"/>
      <point x="464" y="393" type="line"/>
      <point x="714" y="705" type="line"/>
      <point x="477" y="705" type="line"/>
      <point x="312" y="479" type="line"/>
      <point x="354" y="479" type="line"/>
      <point x="261" y="705" type="line"/>
      <point x="40" y="705" type="line"/>
      <point x="190" y="393" type="line"/>
      <point x="194" y="417" type="line"/>
      <point x="92" y="417" type="line"/>
      <point x="74" y="305" type="line"/>
      <point x="206" y="305" type="line"/>
      <point x="198" y="255" type="line"/>
      <point x="66" y="255" type="line"/>
      <point x="48" y="143" type="line"/>
      <point x="180" y="143" type="line"/>
    </contour>
  </outline>
</glyph>
<glyph name="brokenbar" format="2">
  <advance width="332"/>
  <unicode hex="00A6"/>
  <outline>
    <contour>
      <point x="86" y="371" type="line"/>
      <point x="294" y="371" type="line"/>
      <point x="347" y="705" type="line"/>
      <point x="139" y="705" type="line"/>
    </contour>
    <contour>
      <point x="-1" y="-180" type="line"/>
      <point x="207" y="-180" type="line"/>
      <point x="260" y="154" type="line"/>
      <point x="52" y="154" type="line"/>
    </contour>
  </outline>
</glyph>
<glyph name="logicalnot" format="2">
  <advance width="600"/>
  <unicode hex="00AC"/>
  <outline>
    <contour>
      <point x="386" y="123" type="line"/>
      <point x="528" y="123" type="line"/>
      <point x="580" y="454" type="line"/>
      <point x="93" y="454" type="line"/>
      <point x="71" y="318" type="line"/>
      <point x="417" y="318" type="line"/>
    </contour>
  </outline>
</glyph>
<glyph name="degree" format="2">
  <advance width="394"/>
  <unicode hex="00B0"/>
  <outline>
    <contour>
      <point x="250" y="377" type="curve" smooth="yes"/>
      <point x="350" y="377"/>
      <point x="423" y="448"/>
      <point x="423" y="544" type="curve" smooth="yes"/>
      <point x="423" y="639"/>
      <point x="349" y="710"/>
      <point x="250" y="710" type="curve" smooth="yes"/>
      <point x="151" y="710"/>
      <point x="77" y="639"/>
      <point x="77" y="544" type="curve" smooth="yes"/>
      <point x="77" y="448"/>
      <point x="150" y="377"/>
    </contour>
    <contour>
      <point x="250" y="479" type="curve" smooth="yes"/>
      <point x="215" y="479"/>
      <point x="189" y="508"/>
      <point x="189" y="544" type="curve" smooth="yes"/>
      <point x="189" y="579"/>
      <point x="215" y="608"/>
      <point x="250" y="608" type="curve" smooth="yes"/>
      <point x="284" y="608"/>
      <point x="311" y="579"/>
      <point x="311" y="544" type="curve" smooth="yes"/>
      <point x="311" y="508"/>
      <point x="284" y="479"/>
    </contour>
  </outline>
</glyph>
<glyph name="plusminus" format="2">
  <advance width="600"/>
  <unicode hex="00B1"/>
  <outline>
    <contour>
      <point x="219" y="161" type="line"/>
      <point x="361" y="161" type="line"/>
      <point x="380" y="278" type="line"/>
      <point x="553" y="278" type="line"/>
      <point x="575" y="416" type="line"/>
      <point x="402" y="416" type="line"/>
      <point x="420" y="533" type="line"/>
      <point x="278" y="533" type="line"/>
      <point x="260" y="416" type="line"/>
      <point x="87" y="416" type="line"/>
      <point x="65" y="278" type="line"/>
      <point x="238" y="278" type="line"/>
    </contour>
    <contour>
      <point x="21" y="0" type="line"/>
      <point x="509" y="0" type="line"/>
      <point x="530" y="136" type="line"/>
      <point x="42" y="136" type="line"/>
    </contour>
  </outline>
</glyph>
<glyph name="multiply" format="2">
  <advance width="600"/>
  <unicode hex="00D7"/>
  <outline>
    <contour>
      <point x="167" y="53" type="line"/>
      <point x="317" y="190" type="line"/>
      <point x="443" y="53" type="line"/>
      <point x="542" y="149" type="line"/>
      <point x="416" y="287" type="line"/>
      <point x="566" y="424" type="line"/>
      <point x="473" y="521" type="line"/>
      <point x="323" y="383" type="line"/>
      <point x="197" y="521" type="line"/>
      <point x="98" y="424" type="line"/>
      <point x="224" y="287" type="line"/>
      <point x="74" y="149" type="line"/>
    </contour>
  </outline>
</glyph>
<glyph name="germandbls" format="2">
  <advance width="726"/>
  <unicode hex="00DF"/>
  <outline>
    <contour>
      <point x="454" y="-12" type="curve" smooth="yes"/>
      <point x="595" y="-12"/>
      <point x="689" y="47"/>
      <point x="706" y="154" type="curve" smooth="yes"/>
      <point x="718" y="231"/>
      <point x="679" y="281"/>
      <point x="588" y="301" type="curve" smooth="yes"/>
      <point x="525" y="315"/>
      <point x="517" y="323"/>
      <point x="520" y="339" type="curve" smooth="yes"/>
      <point x="522" y="354"/>
      <point x="535" y="372"/>
      <point x="578" y="423" type="curve" smooth="yes"/>
      <point x="619" y="470"/>
      <point x="635" y="507"/>
      <point x="641" y="544" type="curve" smooth="yes"/>
      <point x="659" y="655"/>
      <point x="573" y="717"/>
      <point x="427" y="717" type="curve" smooth="yes"/>
      <point x="224" y="717"/>
      <point x="106" y="611"/>
      <point x="76" y="423" type="curve" smooth="yes"/>
      <point x="9" y="0" type="line"/>
      <point x="217" y="0" type="line"/>
      <point x="289" y="455" type="line" smooth="yes"/>
      <point x="301" y="530"/>
      <point x="339" y="573"/>
      <point x="408" y="573" type="curve" smooth="yes"/>
      <point x="446" y="573"/>
      <point x="461" y="557"/>
      <point x="457" y="529" type="curve" smooth="yes"/>
      <point x="453" y="503"/>
      <point x="435" y="474"/>
      <point x="409" y="441" type="curve" smooth="yes"/>
      <point x="357" y="378"/>
      <point x="337" y="342"/>
      <point x="331" y="305" type="curve" smooth="yes"/>
      <point x="320" y="238"/>
      <point x="355" y="190"/>
      <point x="461" y="173" type="curve" smooth="yes"/>
      <point x="522" y="163"/>
      <point x="530" y="156"/>
      <point x="528" y="143" type="curve" smooth="yes"/>
      <point x="525" y="129"/>
      <point x="512" y="122"/>
      <point x="475" y="122" type="curve" smooth="yes"/>
      <point x="418" y="122"/>
      <point x="358" y="138"/>
      <point x="315" y="164" type="curve"/>
      <point x="262" y="37" type="line"/>
      <point x="309" y="6"/>
      <point x="384" y="-12"/>
    </contour>
  </outline>
</glyph>
<glyph name="ae" format="2">
  <advance width="873"/>
  <unicode hex="00E6"/>
  <anchor x="379" y="0" name="bottom"/>
  <anchor x="456" y="484" name="top"/>
  <outline>
    <contour>
      <point x="201" y="-12" type="curve" smooth="yes"/>
      <point x="298" y="-12"/>
      <point x="370" y="25"/>
      <point x="409" y="90" type="curve"/>
      <point x="376" y="90" type="line"/>
      <point x="410" y="22"/>
      <point x="493" y="-12"/>
      <point x="609" y="-12" type="curve" smooth="yes"/>
      <point x="669" y="-12"/>
      <point x="752" y="6"/>
      <point x="808" y="33" type="curve"/>
      <point x="786" y="164" type="line"/>
      <point x="739" y="143"/>
      <point x="681" y="131"/>
      <point x="641" y="131" type="curve" smooth="yes"/>
      <point x="561" y="131"/>
      <point x="524" y="153"/>
      <point x="536" y="227" type="curve" smooth="yes"/>
      <point x="538" y="242" type="line" smooth="yes"/>
      <point x="548" y="302"/>
      <point x="580" y="331"/>
      <point x="628" y="331" type="curve" smooth="yes"/>
      <point x="674" y="331"/>
      <point x="696" y="306"/>
      <point x="688" y="252" type="curve"/>
      <point x="706" y="266" type="line"/>
      <point x="525" y="266" type="line"/>
      <point x="512" y="183" type="line"/>
      <point x="847" y="183" type="line"/>
      <point x="852" y="215" type="line" smooth="yes"/>
      <point x="875" y="360"/>
      <point x="791" y="456"/>
      <point x="641" y="456" type="curve" smooth="yes"/>
      <point x="575" y="456"/>
      <point x="510" y="436"/>
      <point x="461" y="397" type="curve"/>
      <point x="500" y="397" type="line"/>
      <point x="468" y="438"/>
      <point x="403" y="456"/>
      <point x="321" y="456" type="curve" smooth="yes"/>
      <point x="243" y="456"/>
      <point x="133" y="433"/>
      <point x="76" y="402" type="curve"/>
      <point x="99" y="272" type="line"/>
      <point x="160" y="301"/>
      <point x="227" y="315"/>
      <point x="280" y="315" type="curve" smooth="yes"/>
      <point x="331" y="315"/>
      <point x="350" y="302"/>
      <point x="345" y="272" type="curve" smooth="yes"/>
      <point x="330" y="178" type="line" smooth="yes"/>
      <point x="324" y="140"/>
      <point x="289" y="116"/>
      <point x="250" y="116" type="curve" smooth="yes"/>
      <point x="216" y="116"/>
      <point x="204" y="131"/>
      <point x="206" y="148" type="curve" smooth="yes"/>
      <point x="210" y="169"/>
      <point x="235" y="185"/>
      <point x="290" y="185" type="curve" smooth="yes"/>
      <point x="347" y="185" type="line"/>
      <point x="360" y="268" type="line"/>
      <point x="310" y="268" type="line" smooth="yes"/>
      <point x="112" y="268"/>
      <point x="25" y="237"/>
      <point x="11" y="151" type="curve" smooth="yes"/>
      <point x="-3" y="63"/>
      <point x="65" y="-12"/>
    </contour>
  </outline>
</glyph>
<glyph name="eth" format="2">
  <advance width="620"/>
  <unicode hex="00F0"/>
  <outline>
    <contour>
      <point x="269" y="-12" type="curve" smooth="yes"/>
      <point x="452" y="-12"/>
      <point x="579" y="99"/>
      <point x="609" y="285" type="curve" smooth="yes"/>
      <point x="626" y="389"/>
      <point x="599" y="506"/>
      <point x="507" y="595" type="curve"/>
      <point x="502" y="578" type="line"/>
      <point x="620" y="634" type="line"/>
      <point x="584" y="718" type="line"/>
      <point x="416" y="639" type="line"/>
      <point x="445" y="643" type="line"/>
      <point x="389" y="680"/>
      <point x="315" y="706"/>
      <point x="223" y="719" type="curve"/>
      <point x="168" y="590" type="line"/>
      <point x="207" y="584"/>
      <point x="239" y="577"/>
      <point x="278" y="561" type="curve"/>
      <point x="278" y="574" type="line"/>
      <point x="141" y="509" type="line"/>
      <point x="177" y="425" type="line"/>
      <point x="375" y="518" type="line"/>
      <point x="348" y="518" type="line"/>
      <point x="406" y="471"/>
      <point x="435" y="402"/>
      <point x="422" y="319" type="curve"/>
      <point x="468" y="319" type="line"/>
      <point x="451" y="401"/>
      <point x="387" y="426"/>
      <point x="302" y="426" type="curve" smooth="yes"/>
      <point x="166" y="426"/>
      <point x="45" y="347"/>
      <point x="24" y="219" type="curve" smooth="yes"/>
      <point x="4" y="88"/>
      <point x="100" y="-12"/>
    </contour>
    <contour>
      <point x="295" y="139" type="curve" smooth="yes"/>
      <point x="248" y="139"/>
      <point x="222" y="166"/>
      <point x="229" y="209" type="curve" smooth="yes"/>
      <point x="236" y="250"/>
      <point x="269" y="278"/>
      <point x="317" y="278" type="curve" smooth="yes"/>
      <point x="366" y="278"/>
      <point x="389" y="250"/>
      <point x="382" y="209" type="curve" smooth="yes"/>
      <point x="375" y="167"/>
      <point x="344" y="139"/>
    </contour>
  </outline>
</glyph>
<glyph name="divide" format="2">
  <advance width="600"/>
  <unicode hex="00F7"/>
  <outline>
    <contour>
      <point x="56" y="219" type="line"/>
      <point x="544" y="219" type="line"/>
      <point x="566" y="355" type="line"/>
      <point x="78" y="355" type="line"/>
    </contour>
    <contour>
      <point x="195" y="24" type="line"/>
      <point x="333" y="24" type="line"/>
      <point x="355" y="163" type="line"/>
      <point x="217" y="163" type="line"/>
    </contour>
    <contour>
      <point x="256" y="411" type="line"/>
      <point x="394" y="411" type="line"/>
      <point x="416" y="550" type="line"/>
      <point x="278" y="550" type="line"/>
    </contour>
  </outline>
</glyph>
<glyph name="thorn" format="2">
  <advance width="632"/>
  <unicode hex="00FE"/>
  <anchor x="285" y="0" name="bottom"/>
  <anchor x="362" y="484" name="top"/>
  <outline>
    <contour>
      <point x="-20" y="-180" type="line"/>
      <point x="188" y="-180" type="line"/>
      <point x="227" y="66" type="line"/>
      <point x="216" y="66" type="line"/>
      <point x="231" y="22"/>
      <point x="289" y="-12"/>
      <point x="361" y="-12" type="curve" smooth="yes"/>
      <point x="481" y="-12"/>
      <point x="584" y="71"/>
      <point x="607" y="212" type="curve" smooth="yes"/>
      <point x="629" y="354"/>
      <point x="549" y="456"/>
      <point x="430" y="456" type="curve" smooth="yes"/>
      <point x="355" y="456"/>
      <point x="285" y="419"/>
      <point x="257" y="372" type="curve"/>
      <point x="276" y="372" type="line"/>
      <point x="329" y="705" type="line"/>
      <point x="121" y="705" type="line"/>
    </contour>
    <contour>
      <point x="311" y="138" type="curve" smooth="yes"/>
      <point x="265" y="138"/>
      <point x="238" y="164"/>
      <point x="247" y="222" type="curve" smooth="yes"/>
      <point x="256" y="280"/>
      <point x="292" y="307"/>
      <point x="338" y="307" type="curve" smooth="yes"/>
      <point x="384" y="307"/>
      <point x="410" y="280"/>
      <point x="401" y="222" type="curve" smooth="yes"/>
      <point x="392" y="164"/>
      <point x="357" y="138"/>
    </contour>
  </outline>
</glyph>
<glyph name="dcroat" format="2">
  <advance width="632"/>
  <unicode hex="0111"/>
  <outline>
    <contour>
      <point x="208" y="-12" type="curve" smooth="yes"/>
      <point x="283" y="-12"/>
      <point x="347" y="25"/>
      <point x="374" y="71" type="curve"/>
      <point x="362" y="71" type="line"/>
      <point x="351" y="0" type="line"/>
      <point x="553" y="0" type="line"/>
      <point x="631" y="495" type="line"/>
      <point x="711" y="495" type="line"/>
      <point x="734" y="635" type="line"/>
      <point x="654" y="635" type="line"/>
      <point x="665" y="705" type="line"/>
      <point x="457" y="705" type="line"/>
      <point x="446" y="635" type="line"/>
      <point x="251" y="635" type="line"/>
      <point x="228" y="495" type="line"/>
      <point x="423" y="495" type="line"/>
      <point x="404" y="370" type="line"/>
      <point x="415" y="370" type="line"/>
      <point x="398" y="413"/>
      <point x="343" y="446"/>
      <point x="271" y="446" type="curve" smooth="yes"/>
      <point x="150" y="446"/>
      <point x="49" y="370"/>
      <point x="26" y="227" type="curve" smooth="yes"/>
      <point x="4" y="85"/>
      <point x="78" y="-12"/>
    </contour>
    <contour>
      <point x="295" y="138" type="curve" smooth="yes"/>
      <point x="249" y="138"/>
      <point x="222" y="164"/>
      <point x="230" y="217" type="curve" smooth="yes"/>
      <point x="239" y="270"/>
      <point x="274" y="297"/>
      <point x="320" y="297" type="curve" smooth="yes"/>
      <point x="366" y="297"/>
      <point x="393" y="270"/>
      <point x="384" y="217" type="curve" smooth="yes"/>
      <point x="376" y="164"/>
      <point x="341" y="138"/>
    </contour>
  </outline>
</glyph>
<glyph name="Hbar" format="2">
  <advance width="854"/>
  <unicode hex="0126"/>
  <outline>
    <contour>
      <point x="51" y="0" type="line"/>
      <point x="266" y="0" type="line"/>
      <point x="306" y="249" type="line"/>
      <point x="556" y="249" type="line"/>
      <point x="516" y="0" type="line"/>
      <point x="731" y="0" type="line"/>
      <point x="810" y="495" type="line"/>
      <point x="884" y="495" type="line"/>
      <point x="908" y="645" type="line"/>
      <point x="834" y="645" type="line"/>
      <point x="843" y="705" type="line"/>
      <point x="628" y="705" type="line"/>
      <point x="619" y="645" type="line"/>
      <point x="369" y="645" type="line"/>
      <point x="378" y="705" type="line"/>
      <point x="163" y="705" type="line"/>
      <point x="154" y="645" type="line"/>
      <point x="80" y="645" type="line"/>
      <point x="56" y="495" type="line"/>
      <point x="130" y="495" type="line"/>
    </contour>
    <contour>
      <point x="334" y="425" type="line"/>
      <point x="345" y="495" type="line"/>
      <point x="595" y="495" type="line"/>
      <point x="584" y="425" type="line"/>
    </contour>
  </outline>
</glyph>
<glyph name="idotless" format="2">
  <advance width="296"/>
  <unicode hex="0131"/>
  <anchor x="113" y="0" name="bottom"/>
  <anchor x="165" y="0" name="ogonek"/>
  <anchor x="190" y="484" name="top"/>
  <outline>
    <contour>
      <point x="9" y="0" type="line"/>
      <point x="217" y="0" type="line"/>
      <point x="287" y="444" type="line"/>
      <point x="79" y="444" type="line"/>
    </contour>
  </outline>
</glyph>
<glyph name="kgreenlandic" format="2">
  <advance width="605"/>
  <unicode hex="0138"/>
  <anchor x="267" y="0" name="bottom"/>
  <anchor x="344" y="484" name="top"/>
  <outline>
    <contour>
      <point x="9" y="0" type="line"/>
      <point x="217" y="0" type="line"/>
      <point x="245" y="179" type="line"/>
      <point x="247" y="179" type="line"/>
      <point x="358" y="0" type="line"/>
      <point x="601" y="0" type="line"/>
      <point x="439" y="262" type="line"/>
      <point x="440" y="201" type="line"/>
      <point x="669" y="444" type="line"/>
      <point x="421" y="444" type="line"/>
      <point x="262" y="271" type="line"/>
      <point x="260" y="271" type="line"/>
      <point x="287" y="444" type="line"/>
      <point x="79" y="444" type="line"/>
    </contour>
  </outline>
</glyph>
<glyph name="eng" format="2">
  <advance width="618"/>
  <unicode hex="014B"/>
  <outline>
    <contour>
      <point x="217" y="-193" type="line"/>
      <point x="262" y="-190" type="line" smooth="yes"/>
      <point x="454" y="-177"/>
      <point x="522" y="-120"/>
      <point x="547" y="39" type="curve" smooth="yes"/>
      <point x="580" y="247" type="line" smooth="yes"/>
      <point x="602" y="388"/>
      <point x="553" y="456"/>
      <point x="435" y="456" type="curve" smooth="yes"/>
      <point x="361" y="456"/>
      <point x="297" y="423"/>
      <point x="255" y="367" type="curve"/>
      <point x="269" y="367" type="line"/>
      <point x="281" y="444" type="line"/>
      <point x="79" y="444" type="line"/>
      <point x="9" y="0" type="line"/>
      <point x="217" y="0" type="line"/>
      <point x="253" y="227" type="line" smooth="yes"/>
      <point x="260" y="271"/>
      <point x="290" y="299"/>
      <point x="334" y="299" type="curve" smooth="yes"/>
      <point x="364" y="299"/>
      <point x="378" y="283"/>
      <point x="370" y="235" type="curve" smooth="yes"/>
      <point x="334" y="8" type="line" smooth="yes"/>
      <point x="329" y="-24"/>
      <point x="314" y="-38"/>
      <point x="277" y="-42" type="curve" smooth="yes"/>
      <point x="226" y="-48" type="line"/>
    </contour>
  </outline>
</glyph>
<glyph name="OE" format="2">
  <advance width="1074"/>
  <unicode hex="0152"/>
  <anchor x="575" y="0" name="bottom"/>
  <anchor x="686" y="705" name="top"/>
  <outline>
    <contour>
      <point x="445" y="0" type="curve" smooth="yes"/>
      <point x="985" y="0" type="line"/>
      <point x="1011" y="164" type="line"/>
      <point x="702" y="164" type="line"/>
      <point x="720" y="276" type="line"/>
      <point x="1006" y="276" type="line"/>
      <point x="1032" y="440" type="line"/>
      <point x="746" y="440" type="line"/>
      <point x="762" y="541" type="line"/>
      <point x="1071" y="541" type="line"/>
      <point x="1097" y="705" type="line"/>
      <point x="485" y="705" type="line" smooth="yes"/>
      <point x="211" y="705"/>
      <point x="62" y="559"/>
      <point x="63" y="313" type="curve" smooth="yes"/>
      <point x="64" y="118"/>
      <point x="201" y="0"/>
    </contour>
    <contour>
      <point x="445" y="174" type="line" smooth="yes"/>
      <point x="340" y="174"/>
      <point x="286" y="224"/>
      <point x="286" y="317" type="curve" smooth="yes"/>
      <point x="286" y="455"/>
      <point x="355" y="531"/>
      <point x="483" y="531" type="curve" smooth="yes"/>
      <point x="556" y="531" type="line"/>
      <point x="499" y="174" type="line"/>
    </contour>
  </outline>
</glyph>
<glyph name="Bhook" format="2">
  <advance width="909"/>
  <unicode hex="0181"/>
  <outline>
    <contour>
      <point x="221" y="0" type="line"/>
      <point x="600" y="0" type="line" smooth="yes"/>
      <point x="764" y="0"/>
      <point x="871" y="76"/>
      <point x="871" y="212" type="curve" smooth="yes"/>
      <point x="871" y="293"/>
      <point x="822" y="355"/>
      <point x="735" y="372" type="curve"/>
      <point x="735" y="355" type="line"/>
      <point x="833" y="373"/>
      <point x="902" y="437"/>
      <point x="902" y="534" type="curve" smooth="yes"/>
      <point x="902" y="628"/>
      <point x="839" y="705"/>
      <point x="666" y="705" type="curve" smooth="yes"/>
      <point x="310" y="705" type="line" smooth="yes"/>
      <point x="148" y="705"/>
      <point x="66" y="644"/>
      <point x="45" y="504" type="curve" smooth="yes"/>
      <point x="34" y="432" type="line"/>
      <point x="205" y="432" type="line"/>
      <point x="212" y="478" type="line" smooth="yes"/>
      <point x="220" y="533"/>
      <point x="245" y="561"/>
      <point x="295" y="561" type="curve" smooth="yes"/>
      <point x="310" y="561" type="line"/>
    </contour>
    <contour>
      <point x="451" y="156" type="line"/>
      <point x="471" y="280" type="line"/>
      <point x="596" y="280" type="line" smooth="yes"/>
      <point x="643" y="280"/>
      <point x="668" y="263"/>
      <point x="668" y="227" type="curve" smooth="yes"/>
      <point x="668" y="183"/>
      <point x="642" y="156"/>
      <point x="586" y="156" type="curve" smooth="yes"/>
    </contour>
    <contour>
      <point x="495" y="436" type="line"/>
      <point x="513" y="549" type="line"/>
      <point x="629" y="549" type="line" smooth="yes"/>
      <point x="678" y="549"/>
      <point x="698" y="533"/>
      <point x="698" y="505" type="curve" smooth="yes"/>
      <point x="698" y="458"/>
      <point x="670" y="436"/>
      <point x="609" y="436" type="curve" smooth="yes"/>
    </contour>
  </outline>
</glyph>
<glyph name="Dhook" format="2">
  <advance width="999"/>
  <unicode hex="018A"/>
  <outline>
    <contour>
      <point x="221" y="0" type="line"/>
      <point x="567" y="0" type="line" smooth="yes"/>
      <point x="830" y="0"/>
      <point x="980" y="164"/>
      <point x="979" y="392" type="curve" smooth="yes"/>
      <point x="978" y="587"/>
      <point x="841" y="705"/>
      <point x="597" y="705" type="curve" smooth="yes"/>
      <point x="310" y="705" type="line" smooth="yes"/>
      <point x="148" y="705"/>
      <point x="66" y="644"/>
      <point x="45" y="504" type="curve" smooth="yes"/>
      <point x="34" y="432" type="line"/>
      <point x="205" y="432" type="line"/>
      <point x="212" y="478" type="line" smooth="yes"/>
      <point x="220" y="533"/>
      <point x="245" y="561"/>
      <point x="295" y="561" type="curve" smooth="yes"/>
      <point x="310" y="561" type="line"/>
    </contour>
    <contour>
      <point x="463" y="174" type="line"/>
      <point x="521" y="531" type="line"/>
      <point x="597" y="531" type="line" smooth="yes"/>
      <point x="702" y="531"/>
      <point x="756" y="481"/>
      <point x="756" y="388" type="curve" smooth="yes"/>
      <point x="756" y="250"/>
      <point x="687" y="174"/>
      <point x="569" y="174" type="curve" smooth="yes"/>
    </contour>
  </outline>
</glyph>
<glyph name="Schwa" format="2">
  <advance width="820"/>
  <unicode hex="018F"/>
  <anchor x="379" y="0" name="bottom"/>
  <anchor x="490" y="705" name="top"/>
  <outline>
    <contour>
      <point x="402" y="-12" type="curve" smooth="yes"/>
      <point x="682" y="-12"/>
      <point x="798" y="193"/>
      <point x="798" y="383" type="curve" smooth="yes"/>
      <point x="798" y="592"/>
      <point x="647" y="717"/>
      <point x="430" y="717" type="curve" smooth="yes"/>
      <point x="304" y="717"/>
      <point x="195" y="688"/>
      <point x="113" y="646" type="curve"/>
      <point x="176" y="482" type="line"/>
      <point x="241" y="517"/>
      <point x="327" y="538"/>
      <point x="399" y="538" type="curve" smooth="yes"/>
      <point x="514" y="538"/>
      <point x="575" y="487"/>
      <point x="575" y="393" type="curve" smooth="yes"/>
      <point x="575" y="268"/>
      <point x="530" y="158"/>
      <point x="409" y="158" type="curve" smooth="yes"/>
      <point x="312" y="158"/>
      <point x="258" y="218"/>
      <point x="280" y="353" type="curve"/>
      <point x="211" y="271" type="line"/>
      <point x="618" y="271" type="line"/>
      <point x="643" y="432" type="line"/>
      <point x="75" y="432" type="line"/>
      <point x="68" y="390" type="line" smooth="yes"/>
      <point x="27" y="147"/>
      <point x="175" y="-12"/>
    </contour>
  </outline>
</glyph>
<glyph name="yhook" format="2">
  <advance width="609"/>
  <unicode hex="01B4"/>
  <outline>
    <contour>
      <point x="324" y="315" type="curve" smooth="yes"/>
      <point x="247" y="192" type="line"/>
      <point x="280" y="192" type="line"/>
      <point x="210" y="444" type="line"/>
      <point x="6" y="444" type="line"/>
      <point x="157" y="0" type="line"/>
      <point x="159" y="78" type="line"/>
      <point x="-18" y="-180" type="line"/>
      <point x="200" y="-180" type="line"/>
      <point x="478" y="237" type="line" smooth="yes"/>
      <point x="504" y="277"/>
      <point x="537" y="297"/>
      <point x="572" y="297" type="curve" smooth="yes"/>
      <point x="586" y="297"/>
      <point x="597" y="297"/>
      <point x="611" y="292" type="curve"/>
      <point x="661" y="440" type="line"/>
      <point x="645" y="449"/>
      <point x="603" y="456"/>
      <point x="569" y="456" type="curve" smooth="yes"/>
      <point x="448" y="456"/>
      <point x="373" y="394"/>
    </contour>
  </outline>
</glyph>
<glyph name="gstroke" format="2">
  <advance width="638"/>
  <unicode hex="01E5"/>
  <outline>
    <contour>
      <point x="231" y="-192" type="curve" smooth="yes"/>
      <point x="381" y="-192"/>
      <point x="488" y="-136"/>
      <point x="541" y="-25" type="curve"/>
      <point x="530" y="-33" type="line"/>
      <point x="598" y="-33" type="line"/>
      <point x="609" y="41" type="line"/>
      <point x="558" y="41" type="line"/>
      <point x="560" y="23" type="line"/>
      <point x="564" y="41"/>
      <point x="568" y="59"/>
      <point x="571" y="75" type="curve" smooth="yes"/>
      <point x="629" y="444" type="line"/>
      <point x="427" y="444" type="line"/>
      <point x="417" y="376" type="line"/>
      <point x="424" y="380" type="line"/>
      <point x="405" y="425"/>
      <point x="347" y="456"/>
      <point x="277" y="456" type="curve" smooth="yes"/>
      <point x="153" y="456"/>
      <point x="52" y="387"/>
      <point x="32" y="266" type="curve" smooth="yes"/>
      <point x="14" y="146"/>
      <point x="95" y="57"/>
      <point x="219" y="57" type="curve" smooth="yes"/>
      <point x="290" y="57"/>
      <point x="360" y="86"/>
      <point x="390" y="129" type="curve"/>
      <point x="377" y="129" type="line"/>
      <point x="362" y="32" type="line" smooth="yes"/>
      <point x="361" y="25"/>
      <point x="359" y="18"/>
      <point x="357" y="11" type="curve"/>
      <point x="374" y="41" type="line"/>
      <point x="240" y="41" type="line"/>
      <point x="229" y="-33" type="line"/>
      <point x="344" y="-33" type="line"/>
      <point x="335" y="-26" type="line"/>
      <point x="313" y="-49"/>
      <point x="280" y="-59"/>
      <point x="232" y="-59" type="curve" smooth="yes"/>
      <point x="178" y="-59"/>
      <point x="95" y="-38"/>
      <point x="55" y="-9" type="curve"/>
      <point x="-15" y="-137" type="line"/>
      <point x="48" y="-176"/>
      <point x="137" y="-192"/>
    </contour>
    <contour>
      <point x="308" y="199" type="curve" smooth="yes"/>
      <point x="258" y="199"/>
      <point x="231" y="222"/>
      <point x="236" y="255" type="curve" smooth="yes"/>
      <point x="242" y="289"/>
      <point x="275" y="313"/>
      <point x="326" y="313" type="curve" smooth="yes"/>
      <point x="377" y="313"/>
      <point x="402" y="289"/>
      <point x="396" y="255" type="curve" smooth="yes"/>
      <point x="391" y="223"/>
      <point x="359" y="199"/>
    </contour>
  </outline>
</glyph>
<glyph name="jdotless" format="2">
  <advance width="303"/>
  <unicode hex="0237"/>
  <anchor x="118" y="0" name="bottom"/>
  <anchor x="195" y="484" name="top"/>
  <outline>
    <contour>
      <point x="-101" y="-193" type="line"/>
      <point x="-56" y="-190" type="line" smooth="yes"/>
      <point x="136" y="-177"/>
      <point x="204" y="-120"/>
      <point x="229" y="39" type="curve" smooth="yes"/>
      <point x="293" y="444" type="line"/>
      <point x="85" y="444" type="line"/>
      <point x="16" y="8" type="line" smooth="yes"/>
      <point x="11" y="-24"/>
      <point x="-4" y="-38"/>
      <point x="-41" y="-42" type="curve" smooth="yes"/>
      <point x="-92" y="-48" type="line"/>
    </contour>
  </outline>
</glyph>
<glyph name="bhook" format="2">
  <advance width="632"/>
  <unicode hex="0253"/>
  <outline>
    <contour>
      <point x="361" y="-12" type="curve" smooth="yes"/>
      <point x="480" y="-12"/>
      <point x="584" y="70"/>
      <point x="607" y="212" type="curve" smooth="yes"/>
      <point x="629" y="354"/>
      <point x="550" y="456"/>
      <point x="430" y="456" type="curve" smooth="yes"/>
      <point x="358" y="456"/>
      <point x="290" y="423"/>
      <point x="261" y="378" type="curve"/>
      <point x="277" y="378" type="line"/>
      <point x="292" y="476" type="line" smooth="yes"/>
      <point x="301" y="529"/>
      <point x="328" y="558"/>
      <point x="370" y="558" type="curve" smooth="yes"/>
      <point x="384" y="558"/>
      <point x="395" y="557"/>
      <point x="410" y="553" type="curve"/>
      <point x="457" y="704" type="line"/>
      <point x="437" y="712"/>
      <point x="400" y="717"/>
      <point x="376" y="717" type="curve" smooth="yes"/>
      <point x="206" y="717"/>
      <point x="108" y="622"/>
      <point x="85" y="480" type="curve" smooth="yes"/>
      <point x="9" y="0" type="line"/>
      <point x="211" y="0" type="line"/>
      <point x="223" y="73" type="line"/>
      <point x="215" y="73" type="line"/>
      <point x="228" y="26"/>
      <point x="286" y="-12"/>
    </contour>
    <contour>
      <point x="311" y="138" type="curve" smooth="yes"/>
      <point x="265" y="138"/>
      <point x="238" y="164"/>
      <point x="247" y="222" type="curve" smooth="yes"/>
      <point x="256" y="280"/>
      <point x="292" y="307"/>
      <point x="338" y="307" type="curve" smooth="yes"/>
      <point x="384" y="307"/>
      <point x="410" y="280"/>
      <point x="401" y="222" type="curve" smooth="yes"/>
      <point x="392" y="164"/>
      <point x="357" y="138"/>
    </contour>
  </outline>
</glyph>
<glyph name="dhook" format="2">
  <advance width="632"/>
  <unicode hex="0257"/>
  <outline>
    <contour>
      <point x="203" y="-12" type="curve" smooth="yes"/>
      <point x="278" y="-12"/>
      <point x="348" y="26"/>
      <point x="376" y="73" type="curve"/>
      <point x="363" y="73" type="line"/>
      <point x="351" y="0" type="line"/>
      <point x="553" y="0" type="line"/>
      <point x="628" y="476" type="line" smooth="yes"/>
      <point x="639" y="541"/>
      <point x="673" y="558"/>
      <point x="706" y="558" type="curve" smooth="yes"/>
      <point x="720" y="558"/>
      <point x="731" y="557"/>
      <point x="746" y="553" type="curve"/>
      <point x="793" y="704" type="line"/>
      <point x="775" y="712"/>
      <point x="736" y="717"/>
      <point x="712" y="717" type="curve" smooth="yes"/>
      <point x="542" y="717"/>
      <point x="444" y="622"/>
      <point x="421" y="480" type="curve" smooth="yes"/>
      <point x="405" y="378" type="line"/>
      <point x="417" y="378" type="line"/>
      <point x="401" y="423"/>
      <point x="344" y="456"/>
      <point x="272" y="456" type="curve" smooth="yes"/>
      <point x="151" y="456"/>
      <point x="50" y="374"/>
      <point x="27" y="232" type="curve" smooth="yes"/>
      <point x="5" y="90"/>
      <point x="83" y="-12"/>
    </contour>
    <contour>
      <point x="295" y="138" type="curve" smooth="yes"/>
      <point x="249" y="138"/>
      <point x="222" y="164"/>
      <point x="231" y="222" type="curve" smooth="yes"/>
      <point x="240" y="280"/>
      <point x="276" y="307"/>
      <point x="322" y="307" type="curve" smooth="yes"/>
      <point x="368" y="307"/>
      <point x="394" y="280"/>
      <point x="385" y="222" type="curve" smooth="yes"/>
      <point x="376" y="164"/>
      <point x="341" y="138"/>
    </contour>
  </outline>
</glyph>
<glyph name="schwa" format="2">
  <advance width="563"/>
  <unicode hex="0259"/>
  <outline>
    <contour>
      <point x="251" y="-12" type="curve" smooth="yes"/>
      <point x="398" y="-12"/>
      <point x="516" y="77"/>
      <point x="537" y="211" type="curve" smooth="yes"/>
      <point x="559" y="352"/>
      <point x="467" y="456"/>
      <point x="277" y="456" type="curve" smooth="yes"/>
      <point x="211" y="456"/>
      <point x="129" y="440"/>
      <point x="67" y="412" type="curve"/>
      <point x="87" y="283" type="line"/>
      <point x="139" y="301"/>
      <point x="199" y="313"/>
      <point x="250" y="313" type="curve" smooth="yes"/>
      <point x="332" y="313"/>
      <point x="358" y="285"/>
      <point x="348" y="218" type="curve" smooth="yes"/>
      <point x="345" y="203" type="line" smooth="yes"/>
      <point x="336" y="143"/>
      <point x="300" y="113"/>
      <point x="251" y="113" type="curve" smooth="yes"/>
      <point x="205" y="113"/>
      <point x="181" y="138"/>
      <point x="190" y="193" type="curve"/>
      <point x="167" y="178" type="line"/>
      <point x="356" y="178" type="line"/>
      <point x="369" y="261" type="line"/>
      <point x="26" y="261" type="line"/>
      <point x="21" y="230" type="line" smooth="yes"/>
      <point x="-3" y="75"/>
      <point x="91" y="-12"/>
    </contour>
  </outline>
</glyph>
<glyph name="commaturnedmod" format="2">
  <advance width="500"/>
  <unicode hex="02BB"/>
  <anchor x="292" y="484" name="_top"/>
  <anchor x="323" y="685" name="top"/>
  <outline>
    <contour>
      <point x="199" y="508" type="line"/>
      <point x="390" y="508" type="line"/>
      <point x="412" y="642" type="line"/>
      <point x="279" y="642" type="line"/>
      <point x="315" y="619" type="line"/>
      <point x="322" y="660"/>
      <point x="336" y="688"/>
      <point x="373" y="714" type="curve"/>
      <point x="312" y="760" type="line"/>
      <point x="248" y="714"/>
      <point x="224" y="662"/>
      <point x="213" y="593" type="curve" smooth="yes"/>
    </contour>
  </outline>
</glyph>
<glyph name="verticallinemod" format="2">
  <advance width="500"/>
  <unicode hex="02C8"/>
  <outline>
    <contour>
      <point x="241" y="542" type="line"/>
      <point x="361" y="542" type="line"/>
      <point x="397" y="770" type="line"/>
      <point x="277" y="770" type="line"/>
    </contour>
  </outline>
</glyph>
<glyph name="firsttonechinese" format="2">
  <advance width="500"/>
  <unicode hex="02C9"/>
  <anchor x="292" y="484" name="_top"/>
  <anchor x="323" y="685" name="top"/>
  <outline>
    <contour>
      <point x="127" y="549" type="line"/>
      <point x="477" y="549" type="line"/>
      <point x="494" y="659" type="line"/>
      <point x="144" y="659" type="line"/>
    </contour>
  </outline>
</glyph>
<glyph name="secondtonechinese" format="2">
  <advance width="500"/>
  <unicode hex="02CA"/>
  <anchor x="292" y="484" name="_top"/>
  <anchor x="323" y="685" name="top"/>
  <outline>
    <contour>
      <point x="229" y="508" type="line"/>
      <point x="361" y="508" type="line"/>
      <point x="558" y="735" type="line"/>
      <point x="366" y="735" type="line"/>
    </contour>
  </outline>
</glyph>
<glyph name="verticallinelowmod" format="2">
  <advance width="500"/>
  <unicode hex="02CC"/>
  <outline>
    <contour>
      <point x="112" y="-270" type="line"/>
      <point x="232" y="-270" type="line"/>
      <point x="265" y="-62" type="line"/>
      <point x="145" y="-62" type="line"/>
    </contour>
  </outline>
</glyph>
<glyph name="acutecomb" format="2">
  <unicode hex="0301"/>
  <anchor x="42" y="484" name="_top"/>
  <anchor x="73" y="685" name="top"/>
  <outline>
    <contour>
      <point x="-21" y="508" type="line"/>
      <point x="111" y="508" type="line"/>
      <point x="308" y="735" type="line"/>
      <point x="116" y="735" type="line"/>
    </contour>
  </outline>
</glyph>
<glyph name="tildecomb" format="2">
  <unicode hex="0303"/>
  <anchor x="42" y="484" name="_top"/>
  <anchor x="73" y="685" name="top"/>
  <outline>
    <contour>
      <point x="-81" y="518" type="line"/>
      <point x="-70" y="558"/>
      <point x="-48" y="580"/>
      <point x="-12" y="580" type="curve" smooth="yes"/>
      <point x="6" y="580"/>
      <point x="20" y="572"/>
      <point x="43" y="555" type="curve" smooth="yes"/>
      <point x="66" y="538"/>
      <point x="92" y="524"/>
      <point x="126" y="524" type="curve" smooth="yes"/>
      <point x="204" y="524"/>
      <point x="274" y="585"/>
      <point x="297" y="709" type="curve"/>
      <point x="206" y="715" type="line"/>
      <point x="194" y="673"/>
      <point x="171" y="653"/>
      <point x="137" y="653" type="curve" smooth="yes"/>
      <point x="119" y="653"/>
      <point x="107" y="661"/>
      <point x="82" y="679" type="curve" smooth="yes"/>
      <point x="58" y="695"/>
      <point x="33" y="709"/>
      <point x="-1" y="709" type="curve" smooth="yes"/>
      <point x="-79" y="709"/>
      <point x="-148" y="648"/>
      <point x="-172" y="524" type="curve"/>
    </contour>
  </outline>
</glyph>
<glyph name="macroncomb" format="2">
  <unicode hex="0304"/>
  <anchor x="42" y="484" name="_top"/>
  <anchor x="73" y="685" name="top"/>
  <outline>
    <contour>
      <point x="-123" y="549" type="line"/>
      <point x="227" y="549" type="line"/>
      <point x="244" y="659" type="line"/>
      <point x="-106" y="659" type="line"/>
    </contour>
  </outline>
</glyph>
<glyph name="brevecomb" format="2">
  <unicode hex="0306"/>
  <anchor x="42" y="484" name="_top"/>
  <anchor x="73" y="685" name="top"/>
  <outline>
    <contour>
      <point x="45" y="504" type="curve" smooth="yes"/>
      <point x="157" y="504"/>
      <point x="246" y="585"/>
      <point x="268" y="723" type="curve"/>
      <point x="160" y="732" type="line"/>
      <point x="143" y="656"/>
      <point x="109" y="620"/>
      <point x="63" y="620" type="curve" smooth="yes"/>
      <point x="17" y="620"/>
      <point x="-5" y="656"/>
      <point x="2" y="732" type="curve"/>
      <point x="-108" y="723" type="line"/>
      <point x="-130" y="585"/>
      <point x="-67" y="504"/>
    </contour>
  </outline>
</glyph>
<glyph name="dieresiscomb" format="2">
  <unicode hex="0308"/>
  <anchor x="42" y="484" name="_top"/>
  <anchor x="73" y="685" name="top"/>
  <outline>
    <contour>
      <point x="72" y="524" type="line"/>
      <point x="240" y="524" type="line"/>
      <point x="267" y="693" type="line"/>
      <point x="99" y="693" type="line"/>
    </contour>
    <contour>
      <point x="-144" y="524" type="line"/>
      <point x="24" y="524" type="line"/>
      <point x="51" y="693" type="line"/>
      <point x="-117" y="693" type="line"/>
    </contour>
  </outline>
</glyph>
<glyph name="hookabovecomb" format="2">
  <unicode hex="0309"/>
  <anchor x="42" y="484" name="_top"/>
  <anchor x="73" y="685" name="top"/>
  <outline>
    <contour>
      <point x="-13" y="508" type="line"/>
      <point x="103" y="508" type="line"/>
      <point x="107" y="529" type="line" smooth="yes"/>
      <point x="115" y="581"/>
      <point x="192" y="589"/>
      <point x="204" y="661" type="curve" smooth="yes"/>
      <point x="212" y="715"/>
      <point x="170" y="745"/>
      <point x="92" y="745" type="curve" smooth="yes"/>
      <point x="36" y="745"/>
      <point x="-11" y="736"/>
      <point x="-49" y="717" type="curve"/>
      <point x="-32" y="639" type="line"/>
      <point x="-12" y="649"/>
      <point x="5" y="654"/>
      <point x="25" y="654" type="curve" smooth="yes"/>
      <point x="43" y="654"/>
      <point x="53" y="647"/>
      <point x="51" y="630" type="curve" smooth="yes"/>
      <point x="46" y="599"/>
      <point x="0" y="585"/>
      <point x="-8" y="535" type="curve" smooth="yes"/>
    </contour>
  </outline>
</glyph>
<glyph name="ringcomb" format="2">
  <unicode hex="030A"/>
  <anchor x="42" y="484" name="_top"/>
  <anchor x="73" y="685" name="top"/>
  <outline>
    <contour>
      <point x="64" y="499" type="curve" smooth="yes"/>
      <point x="140" y="499"/>
      <point x="199" y="555"/>
      <point x="199" y="629" type="curve" smooth="yes"/>
      <point x="199" y="703"/>
      <point x="140" y="759"/>
      <point x="64" y="759" type="curve" smooth="yes"/>
      <point x="-12" y="759"/>
      <point x="-71" y="703"/>
      <point x="-71" y="629" type="curve" smooth="yes"/>
      <point x="-71" y="555"/>
      <point x="-12" y="499"/>
    </contour>
    <contour>
      <point x="64" y="576" type="curve" smooth="yes"/>
      <point x="35" y="576"/>
      <point x="12" y="598"/>
      <point x="12" y="629" type="curve" smooth="yes"/>
      <point x="12" y="660"/>
      <point x="35" y="681"/>
      <point x="64" y="681" type="curve" smooth="yes"/>
      <point x="93" y="681"/>
      <point x="116" y="660"/>
      <point x="116" y="629" type="curve" smooth="yes"/>
      <point x="116" y="598"/>
      <point x="93" y="576"/>
    </contour>
  </outline>
</glyph>
<glyph name="hungarumlautcomb" format="2">
  <unicode hex="030B"/>
  <anchor x="42" y="484" name="_top"/>
  <anchor x="73" y="685" name="top"/>
  <outline>
    <contour>
      <point x="83" y="508" type="line"/>
      <point x="188" y="508" type="line"/>
      <point x="322" y="735" type="line"/>
      <point x="160" y="735" type="line"/>
    </contour>
    <contour>
      <point x="-105" y="508" type="line"/>
      <point x="0" y="508" type="line"/>
      <point x="134" y="735" type="line"/>
      <point x="-28" y="735" type="line"/>
    </contour>
  </outline>
</glyph>
<glyph name="caroncomb" format="2">
  <unicode hex="030C"/>
  <anchor x="42" y="484" name="_top"/>
  <anchor x="73" y="685" name="top"/>
  <outline>
    <contour>
      <point x="-40" y="508" type="line"/>
      <point x="130" y="508" type="line"/>
      <point x="278" y="735" type="line"/>
      <point x="154" y="735" type="line"/>
      <point x="62" y="612" type="line"/>
      <point x="8" y="735" type="line"/>
      <point x="-116" y="735" type="line"/>
    </contour>
  </outline>
</glyph>
<glyph name="dblgravecomb" format="2">
  <unicode hex="030F"/>
  <anchor x="42" y="484" name="_top"/>
  <anchor x="73" y="685" name="top"/>
  <outline>
    <contour>
      <point x="90" y="508" type="line"/>
      <point x="195" y="508" type="line"/>
      <point x="190" y="735" type="line"/>
      <point x="28" y="735" type="line"/>
    </contour>
    <contour>
      <point x="-98" y="508" type="line"/>
      <point x="7" y="508" type="line"/>
      <point x="2" y="735" type="line"/>
      <point x="-160" y="735" type="line"/>
    </contour>
  </outline>
</glyph>
<glyph name="breveinvertedcomb" format="2">
  <unicode hex="0311"/>
  <anchor x="42" y="484" name="_top"/>
  <anchor x="73" y="685" name="top"/>
  <outline>
    <contour>
      <point x="-34" y="504" type="line"/>
      <point x="-17" y="581"/>
      <point x="17" y="616"/>
      <point x="63" y="616" type="curve" smooth="yes"/>
      <point x="109" y="616"/>
      <point x="131" y="581"/>
      <point x="124" y="504" type="curve"/>
      <point x="234" y="514" type="line"/>
      <point x="256" y="651"/>
      <point x="193" y="732"/>
      <point x="81" y="732" type="curve" smooth="yes"/>
      <point x="-31" y="732"/>
      <point x="-120" y="651"/>
      <point x="-142" y="514" type="curve"/>
    </contour>
  </outline>
</glyph>
<glyph name="horncomb" format="2">
  <unicode hex="031B"/>
  <anchor x="35" y="434" name="_topright"/>
  <outline>
    <contour>
      <point x="149" y="354" type="line"/>
      <point x="224" y="366"/>
      <point x="288" y="434"/>
      <point x="300" y="512" type="curve" smooth="yes"/>
      <point x="309" y="566" type="line"/>
      <point x="132" y="566" type="line"/>
      <point x="127" y="536" type="line" smooth="yes"/>
      <point x="114" y="452"/>
      <point x="80" y="444"/>
      <point x="36" y="444" type="curve"/>
      <point x="34" y="431" type="line"/>
    </contour>
  </outline>
</glyph>
<glyph name="dotbelowcomb" format="2">
  <unicode hex="0323"/>
  <anchor x="-35" y="0" name="_bottom"/>
  <anchor x="-62" y="-170" name="bottom"/>
  <outline>
    <contour>
      <point x="-162" y="-236" type="line"/>
      <point x="18" y="-236" type="line"/>
      <point x="44" y="-67" type="line"/>
      <point x="-136" y="-67" type="line"/>
    </contour>
  </outline>
</glyph>
<glyph name="dieresisbelowcomb" format="2">
  <unicode hex="0324"/>
  <anchor x="-35" y="0" name="_bottom"/>
  <anchor x="-62" y="-170" name="bottom"/>
  <outline>
    <contour>
      <point x="-45" y="-213" type="line"/>
      <point x="123" y="-213" type="line"/>
      <point x="150" y="-44" type="line"/>
      <point x="-18" y="-44" type="line"/>
    </contour>
    <contour>
      <point x="-261" y="-213" type="line"/>
      <point x="-93" y="-213" type="line"/>
      <point x="-66" y="-44" type="line"/>
      <point x="-234" y="-44" type="line"/>
    </contour>
  </outline>
</glyph>
<glyph name="cedillacomb" format="2">
  <unicode hex="0327"/>
  <anchor x="-35" y="0" name="_bottom"/>
  <outline>
    <contour>
      <point x="-71" y="-200" type="curve" smooth="yes"/>
      <point x="6" y="-200"/>
      <point x="67" y="-164"/>
      <point x="76" y="-106" type="curve" smooth="yes"/>
      <point x="84" y="-57"/>
      <point x="52" y="-28"/>
      <point x="-15" y="-28" type="curve" smooth="yes"/>
      <point x="-29" y="-28"/>
      <point x="-47" y="-31"/>
      <point x="-63" y="-37" type="curve"/>
      <point x="-20" y="-57" type="line"/>
      <point x="4" y="20" type="line"/>
      <point x="-91" y="20" type="line"/>
      <point x="-116" y="-63" type="line"/>
      <point x="-97" y="-87" type="line"/>
      <point x="-84" y="-85"/>
      <point x="-75" y="-84"/>
      <point x="-65" y="-84" type="curve" smooth="yes"/>
      <point x="-39" y="-84"/>
      <point x="-30" y="-89"/>
      <point x="-32" y="-98" type="curve" smooth="yes"/>
      <point x="-33" y="-110"/>
      <point x="-46" y="-115"/>
      <point x="-81" y="-115" type="curve" smooth="yes"/>
      <point x="-104" y="-115"/>
      <point x="-132" y="-108"/>
      <point x="-153" y="-97" type="curve"/>
      <point x="-193" y="-176" type="line"/>
      <point x="-162" y="-192"/>
      <point x="-118" y="-200"/>
    </contour>
  </outline>
</glyph>
<glyph name="macronbelowcomb" format="2">
  <unicode hex="0331"/>
  <anchor x="-35" y="0" name="_bottom"/>
  <anchor x="-62" y="-170" name="bottom"/>
  <outline>
    <contour>
      <point x="-239" y="-181" type="line"/>
      <point x="111" y="-181" type="line"/>
      <point x="129" y="-71" type="line"/>
      <point x="-221" y="-71" type="line"/>
    </contour>
  </outline>
</glyph>
<glyph name="strokeshortcomb" format="2">
  <unicode hex="0335"/>
  <anchor x="62" y="610" name="_stroke"/>
  <outline>
    <contour>
      <point x="-183" y="540" type="line"/>
      <point x="285" y="540" type="line"/>
      <point x="307" y="680" type="line"/>
      <point x="-161" y="680" type="line"/>
    </contour>
  </outline>
</glyph>
<glyph name="slashshortcomb" format="2">
  <unicode hex="0337"/>
  <anchor x="-9" y="316" name="_center"/>
  <outline>
    <contour>
      <point x="-198" y="154" type="line"/>
      <point x="223" y="338" type="line"/>
      <point x="181" y="477" type="line"/>
      <point x="-240" y="293" type="line"/>
    </contour>
  </outline>
</glyph>
<glyph name="slashlongcomb" format="2">
  <unicode hex="0338"/>
  <anchor x="29" y="222" name="_center"/>
  <outline>
    <contour>
      <point x="-154" y="-76" type="line"/>
      <point x="286" y="467" type="line"/>
      <point x="211" y="520" type="line"/>
      <point x="-229" y="-23" type="line"/>
    </contour>
  </outline>
</glyph>
<glyph name="Delta" format="2">
  <advance width="773"/>
  <unicode hex="0394"/>
  <outline>
    <contour>
      <point x="-4" y="0" type="line"/>
      <point x="713" y="0" type="line"/>
      <point x="725" y="115" type="line"/>
      <point x="547" y="705" type="line"/>
      <point x="378" y="705" type="line"/>
      <point x="14" y="115" type="line"/>
    </contour>
    <contour>
      <point x="433" y="484" type="line"/>
      <point x="435" y="484" type="line"/>
      <point x="531" y="119" type="line"/>
      <point x="538" y="164" type="line"/>
      <point x="229" y="164" type="line"/>
      <point x="222" y="119" type="line"/>
    </contour>
  </outline>
</glyph>
<glyph name="Sigma" format="2">
  <advance width="600"/>
  <unicode hex="03A3"/>
  <outline>
    <contour>
      <point x="-49" y="-180" type="line"/>
      <point x="520" y="-180" type="line"/>
      <point x="548" y="-6" type="line"/>
      <point x="208" y="-6" type="line"/>
      <point x="211" y="-48" type="line"/>
      <point x="452" y="210" type="line"/>
      <point x="469" y="315" type="line"/>
      <point x="284" y="573" type="line"/>
      <point x="293" y="531" type="line"/>
      <point x="633" y="531" type="line"/>
      <point x="660" y="705" type="line"/>
      <point x="91" y="705" type="line"/>
      <point x="68" y="555" type="line"/>
      <point x="293" y="233" type="line"/>
      <point x="276" y="292" type="line"/>
      <point x="-25" y="-30" type="line"/>
    </contour>
  </outline>
</glyph>
<glyph name="Omega" format="2">
  <advance width="838"/>
  <unicode hex="03A9"/>
  <outline>
    <contour>
      <point x="-6" y="0" type="line"/>
      <point x="338" y="0" type="line"/>
      <point x="364" y="166" type="line"/>
      <point x="311" y="223"/>
      <point x="284" y="292"/>
      <point x="284" y="358" type="curve" smooth="yes"/>
      <point x="284" y="465"/>
      <point x="344" y="537"/>
      <point x="459" y="537" type="curve" smooth="yes"/>
      <point x="554" y="537"/>
      <point x="604" y="486"/>
      <point x="604" y="393" type="curve" smooth="yes"/>
      <point x="604" y="295"/>
      <point x="542" y="215"/>
      <point x="456" y="166" type="curve"/>
      <point x="430" y="0" type="line"/>
      <point x="774" y="0" type="line"/>
      <point x="801" y="170" type="line"/>
      <point x="553" y="170" type="line"/>
      <point x="551" y="121" type="line"/>
      <point x="721" y="170"/>
      <point x="827" y="273"/>
      <point x="827" y="449" type="curve" smooth="yes"/>
      <point x="827" y="609"/>
      <point x="661" y="716"/>
      <point x="466" y="716" type="curve" smooth="yes"/>
      <point x="234" y="716"/>
      <point x="61" y="600"/>
      <point x="61" y="371" type="curve" smooth="yes"/>
      <point x="61" y="278"/>
      <point x="123" y="181"/>
      <point x="253" y="121" type="curve"/>
      <point x="255" y="170" type="line"/>
      <point x="21" y="170" type="line"/>
    </contour>
  </outline>
</glyph>
<glyph name="mu" format="2">
  <advance width="613"/>
  <unicode hex="03BC"/>
  <outline>
    <contour>
      <point x="-22" y="-180" type="line"/>
      <point x="186" y="-180" type="line"/>
      <point x="202" y="20" type="line"/>
      <point x="206" y="20" type="line"/>
      <point x="216" y="0"/>
      <point x="227" y="-12"/>
      <point x="254" y="-12" type="curve" smooth="yes"/>
      <point x="285" y="-12"/>
      <point x="324" y="22"/>
      <point x="340" y="83" type="curve"/>
      <point x="344" y="83" type="line"/>
      <point x="331" y="0" type="line"/>
      <point x="534" y="0" type="line"/>
      <point x="604" y="444" type="line"/>
      <point x="396" y="444" type="line"/>
      <point x="361" y="218" type="line" smooth="yes"/>
      <point x="354" y="176"/>
      <point x="322" y="145"/>
      <point x="287" y="145" type="curve" smooth="yes"/>
      <point x="255" y="145"/>
      <point x="241" y="162"/>
      <point x="247" y="203" type="curve" smooth="yes"/>
      <point x="285" y="444" type="line"/>
      <point x="77" y="444" type="line"/>
    </contour>
  </outline>
</glyph>
<glyph name="pi" format="2">
  <advance width="677"/>
  <unicode hex="03C0"/>
  <outline>
    <contour>
      <point x="543" y="-12" type="curve" smooth="yes"/>
      <point x="566" y="-12"/>
      <point x="592" y="-10"/>
      <point x="626" y="-6" type="curve"/>
      <point x="660" y="156" type="line"/>
      <point x="648" y="156"/>
      <point x="635" y="154"/>
      <point x="625" y="154" type="curve" smooth="yes"/>
      <point x="565" y="154"/>
      <point x="547" y="179"/>
      <point x="557" y="237" type="curve" smooth="yes"/>
      <point x="565" y="292" type="line"/>
      <point x="656" y="292" type="line"/>
      <point x="680" y="444" type="line"/>
      <point x="38" y="444" type="line"/>
      <point x="14" y="292" type="line"/>
      <point x="102" y="292" type="line"/>
      <point x="85" y="213"/>
      <point x="57" y="134"/>
      <point x="-1" y="0" type="curve"/>
      <point x="210" y="0" type="line"/>
      <point x="262" y="98"/>
      <point x="286" y="178"/>
      <point x="310" y="292" type="curve"/>
      <point x="357" y="292" type="line"/>
      <point x="346" y="218" type="line" smooth="yes"/>
      <point x="323" y="76"/>
      <point x="379" y="-12"/>
    </contour>
  </outline>
</glyph>
<glyph name="Dje-cy" format="2">
  <advance width="923"/>
  <unicode hex="0402"/>
  <outline>
    <contour>
      <point x="579" y="-192" type="curve" smooth="yes"/>
      <point x="725" y="-192"/>
      <point x="830" y="-94"/>
      <point x="857" y="77" type="curve" smooth="yes"/>
      <point x="866" y="134" type="line" smooth="yes"/>
      <point x="897" y="332"/>
      <point x="762" y="455"/>
      <point x="586" y="455" type="curve" smooth="yes"/>
      <point x="543" y="455"/>
      <point x="498" y="447"/>
      <point x="471" y="439" type="curve"/>
      <point x="485" y="531" type="line"/>
      <point x="699" y="531" type="line"/>
      <point x="727" y="705" type="line"/>
      <point x="84" y="705" type="line"/>
      <point x="56" y="531" type="line"/>
      <point x="270" y="531" type="line"/>
      <point x="186" y="0" type="line"/>
      <point x="401" y="0" type="line"/>
      <point x="443" y="262" type="line"/>
      <point x="470" y="271"/>
      <point x="509" y="276"/>
      <point x="536" y="276" type="curve" smooth="yes"/>
      <point x="614" y="276"/>
      <point x="666" y="227"/>
      <point x="650" y="128" type="curve" smooth="yes"/>
      <point x="640" y="67" type="line" smooth="yes"/>
      <point x="631" y="10"/>
      <point x="592" y="-27"/>
      <point x="544" y="-27" type="curve" smooth="yes"/>
      <point x="518" y="-27"/>
      <point x="492" y="-23"/>
      <point x="470" y="-18" type="curve"/>
      <point x="438" y="-171" type="line"/>
      <point x="473" y="-184"/>
      <point x="518" y="-192"/>
    </contour>
  </outline>
</glyph>
<glyph name="E-cy" format="2">
  <advance width="692"/>
  <unicode hex="0404"/>
  <anchor x="366" y="0" name="bottom"/>
  <anchor x="476" y="705" name="top"/>
  <outline>
    <contour>
      <point x="415" y="-12" type="curve" smooth="yes"/>
      <point x="496" y="-12"/>
      <point x="599" y="14"/>
      <point x="653" y="54" type="curve"/>
      <point x="602" y="223" type="line"/>
      <point x="543" y="189"/>
      <point x="487" y="175"/>
      <point x="442" y="175" type="curve" smooth="yes"/>
      <point x="343" y="175"/>
      <point x="295" y="214"/>
      <point x="285" y="294" type="curve"/>
      <point x="279" y="277" type="line"/>
      <point x="532" y="277" type="line"/>
      <point x="558" y="441" type="line"/>
      <point x="283" y="441" type="line"/>
      <point x="295" y="405" type="line"/>
      <point x="318" y="478"/>
      <point x="375" y="530"/>
      <point x="467" y="530" type="curve" smooth="yes"/>
      <point x="520" y="530"/>
      <point x="579" y="510"/>
      <point x="631" y="475" type="curve"/>
      <point x="710" y="644" type="line"/>
      <point x="661" y="685"/>
      <point x="567" y="717"/>
      <point x="471" y="717" type="curve" smooth="yes"/>
      <point x="203" y="717"/>
      <point x="62" y="539"/>
      <point x="62" y="315" type="curve" smooth="yes"/>
      <point x="62" y="102"/>
      <point x="214" y="-12"/>
    </contour>
  </outline>
</glyph>
<glyph name="Tshe-cy" format="2">
  <advance width="899"/>
  <unicode hex="040B"/>
  <outline>
    <contour>
      <point x="186" y="0" type="line"/>
      <point x="401" y="0" type="line"/>
      <point x="443" y="262" type="line"/>
      <point x="470" y="271"/>
      <point x="506" y="276"/>
      <point x="533" y="276" type="curve" smooth="yes"/>
      <point x="611" y="276"/>
      <point x="644" y="239"/>
      <point x="628" y="140" type="curve" smooth="yes"/>
      <point x="606" y="0" type="line"/>
      <point x="821" y="0" type="line"/>
      <point x="842" y="136" type="line" smooth="yes"/>
      <point x="873" y="334"/>
      <point x="759" y="455"/>
      <point x="583" y="455" type="curve" smooth="yes"/>
      <point x="540" y="455"/>
      <point x="497" y="447"/>
      <point x="470" y="439" type="curve"/>
      <point x="485" y="531" type="line"/>
      <point x="699" y="531" type="line"/>
      <point x="727" y="705" type="line"/>
      <point x="84" y="705" type="line"/>
      <point x="56" y="531" type="line"/>
      <point x="270" y="531" type="line"/>
    </contour>
  </outline>
</glyph>
<glyph name="Dzhe-cy" format="2">
  <advance width="786"/>
  <unicode hex="040F"/>
  <outline>
    <contour>
      <point x="237" y="-180" type="line"/>
      <point x="422" y="-180" type="line"/>
      <point x="451" y="0" type="line"/>
      <point x="694" y="0" type="line"/>
      <point x="806" y="705" type="line"/>
      <point x="591" y="705" type="line"/>
      <point x="507" y="174" type="line"/>
      <point x="265" y="174" type="line"/>
      <point x="349" y="705" type="line"/>
      <point x="134" y="705" type="line"/>
      <point x="22" y="0" type="line"/>
      <point x="266" y="0" type="line"/>
    </contour>
  </outline>
</glyph>
<glyph name="Ge-cy" format="2">
  <advance width="591"/>
  <unicode hex="0413"/>
  <anchor x="37" y="0" name="bottomright"/>
  <anchor x="199" y="359" name="stroke"/>
  <anchor x="362" y="705" name="top"/>
  <outline>
    <contour>
      <point x="22" y="0" type="line"/>
      <point x="237" y="0" type="line"/>
      <point x="321" y="531" type="line"/>
      <point x="621" y="531" type="line"/>
      <point x="649" y="705" type="line"/>
      <point x="134" y="705" type="line"/>
    </contour>
  </outline>
</glyph>
<glyph name="De-cy" format="2">
  <advance width="838"/>
  <unicode hex="0414"/>
  <guideline x="390" y="164" angle="0"/>
  <outline>
    <contour>
      <point x="-55" y="-180" type="line"/>
      <point x="130" y="-180" type="line"/>
      <point x="159" y="0" type="line"/>
      <point x="597" y="0" type="line"/>
      <point x="568" y="-180" type="line"/>
      <point x="753" y="-180" type="line"/>
      <point x="808" y="164" type="line"/>
      <point x="708" y="164" type="line"/>
      <point x="793" y="705" type="line"/>
      <point x="235" y="705" type="line"/>
      <point x="204" y="506" type="line" smooth="yes"/>
      <point x="178" y="339"/>
      <point x="136" y="230"/>
      <point x="72" y="165" type="curve"/>
      <point x="0" y="165" type="line"/>
    </contour>
    <contour>
      <point x="291" y="164" type="line"/>
      <point x="347" y="234"/>
      <point x="374" y="343"/>
      <point x="398" y="492" type="curve" smooth="yes"/>
      <point x="406" y="541" type="line"/>
      <point x="553" y="541" type="line"/>
      <point x="493" y="164" type="line"/>
    </contour>
  </outline>
</glyph>
<glyph name="Zhe-cy" format="2">
  <advance width="1100"/>
  <unicode hex="0416"/>
  <guideline x="627" y="705" angle="0"/>
  <anchor x="842" y="0" name="bottomright"/>
  <anchor x="627" y="705" name="top"/>
  <outline>
    <contour>
      <point x="-44" y="0" type="line"/>
      <point x="188" y="0" type="line"/>
      <point x="308" y="195" type="line" smooth="yes"/>
      <point x="336" y="241"/>
      <point x="368" y="259"/>
      <point x="423" y="259" type="curve" smooth="yes"/>
      <point x="454" y="259" type="line"/>
      <point x="413" y="0" type="line"/>
      <point x="618" y="0" type="line"/>
      <point x="659" y="259" type="line"/>
      <point x="689" y="259" type="line" smooth="yes"/>
      <point x="744" y="259"/>
      <point x="769" y="240"/>
      <point x="785" y="195" type="curve" smooth="yes"/>
      <point x="855" y="0" type="line"/>
      <point x="1074" y="0" type="line"/>
      <point x="975" y="262" type="line" smooth="yes"/>
      <point x="940" y="355"/>
      <point x="904" y="405"/>
      <point x="810" y="425" type="curve"/>
      <point x="892" y="369" type="line"/>
      <point x="1156" y="705" type="line"/>
      <point x="919" y="705" type="line"/>
      <point x="706" y="414" type="line"/>
      <point x="735" y="433" type="line"/>
      <point x="686" y="433" type="line"/>
      <point x="729" y="705" type="line"/>
      <point x="524" y="705" type="line"/>
      <point x="481" y="433" type="line"/>
      <point x="432" y="433" type="line"/>
      <point x="459" y="414" type="line"/>
      <point x="337" y="705" type="line"/>
      <point x="114" y="705" type="line"/>
      <point x="271" y="369" type="line"/>
      <point x="347" y="425" type="line"/>
      <point x="248" y="405"/>
      <point x="178" y="359"/>
      <point x="118" y="262" type="curve" smooth="yes"/>
    </contour>
  </outline>
</glyph>
<glyph name="Ii-cy" format="2">
  <advance width="763"/>
  <unicode hex="0418"/>
  <anchor x="471" y="0" name="bottomright"/>
  <anchor x="453" y="705" name="top"/>
  <outline>
    <contour>
      <point x="22" y="0" type="line"/>
      <point x="179" y="0" type="line"/>
      <point x="558" y="380" type="line"/>
      <point x="533" y="390" type="line"/>
      <point x="471" y="0" type="line"/>
      <point x="671" y="0" type="line"/>
      <point x="783" y="705" type="line"/>
      <point x="626" y="705" type="line"/>
      <point x="247" y="325" type="line"/>
      <point x="273" y="315" type="line"/>
      <point x="334" y="705" type="line"/>
      <point x="134" y="705" type="line"/>
    </contour>
  </outline>
</glyph>
<glyph name="El-cy" format="2">
  <advance width="772"/>
  <unicode hex="041B"/>
  <anchor x="478" y="0" name="bottomright"/>
  <outline>
    <contour>
      <point x="88" y="-20" type="line"/>
      <point x="256" y="52"/>
      <point x="348" y="193"/>
      <point x="385" y="420" type="curve" smooth="yes"/>
      <point x="403" y="531" type="line"/>
      <point x="548" y="531" type="line"/>
      <point x="464" y="0" type="line"/>
      <point x="679" y="0" type="line"/>
      <point x="791" y="705" type="line"/>
      <point x="233" y="705" type="line"/>
      <point x="197" y="476" type="line" smooth="yes"/>
      <point x="167" y="287"/>
      <point x="114" y="197"/>
      <point x="-6" y="131" type="curve"/>
    </contour>
  </outline>
</glyph>
<glyph name="Pe-cy" format="2">
  <advance width="786"/>
  <unicode hex="041F"/>
  <anchor x="493" y="0" name="bottomright"/>
  <outline>
    <contour>
      <point x="22" y="0" type="line"/>
      <point x="237" y="0" type="line"/>
      <point x="321" y="531" type="line"/>
      <point x="563" y="531" type="line"/>
      <point x="479" y="0" type="line"/>
      <point x="694" y="0" type="line"/>
      <point x="806" y="705" type="line"/>
      <point x="134" y="705" type="line"/>
    </contour>
  </outline>
</glyph>
<glyph name="U-cy" format="2">
  <advance width="693"/>
  <unicode hex="0423"/>
  <anchor x="412" y="705" name="top"/>
  <outline>
    <contour>
      <point x="105" y="0" type="line"/>
      <point x="335" y="0" type="line"/>
      <point x="800" y="705" type="line"/>
      <point x="570" y="705" type="line"/>
      <point x="357" y="380" type="line"/>
      <point x="392" y="380" type="line"/>
      <point x="255" y="705" type="line"/>
      <point x="40" y="705" type="line"/>
      <point x="268" y="191" type="line"/>
      <point x="267" y="247" type="line"/>
    </contour>
  </outline>
</glyph>
<glyph name="Ef-cy" format="2">
  <advance width="959"/>
  <unicode hex="0424"/>
  <outline>
    <contour>
      <point x="331" y="-30" type="line"/>
      <point x="546" y="-30" type="line"/>
      <point x="563" y="80" type="line"/>
      <point x="520" y="47" type="line"/>
      <point x="548" y="47" type="line" smooth="yes"/>
      <point x="815" y="47"/>
      <point x="936" y="196"/>
      <point x="936" y="383" type="curve" smooth="yes"/>
      <point x="936" y="561"/>
      <point x="804" y="657"/>
      <point x="604" y="657" type="curve" smooth="yes"/>
      <point x="592" y="657" type="line"/>
      <point x="650" y="624" type="line"/>
      <point x="668" y="740" type="line"/>
      <point x="453" y="740" type="line"/>
      <point x="436" y="630" type="line"/>
      <point x="479" y="663" type="line"/>
      <point x="451" y="663" type="line" smooth="yes"/>
      <point x="184" y="663"/>
      <point x="63" y="514"/>
      <point x="63" y="327" type="curve" smooth="yes"/>
      <point x="63" y="149"/>
      <point x="195" y="53"/>
      <point x="395" y="53" type="curve" smooth="yes"/>
      <point x="407" y="53" type="line"/>
      <point x="349" y="86" type="line"/>
    </contour>
    <contour>
      <point x="366" y="179" type="line"/>
      <point x="425" y="209" type="line"/>
      <point x="412" y="209" type="line"/>
      <point x="302" y="209"/>
      <point x="280" y="251"/>
      <point x="280" y="334" type="curve" smooth="yes"/>
      <point x="280" y="429"/>
      <point x="315" y="507"/>
      <point x="437" y="507" type="curve" smooth="yes"/>
      <point x="458" y="507" type="line"/>
      <point x="423" y="537" type="line"/>
    </contour>
    <contour>
      <point x="576" y="173" type="line"/>
      <point x="633" y="531" type="line"/>
      <point x="574" y="501" type="line"/>
      <point x="587" y="501" type="line"/>
      <point x="697" y="501"/>
      <point x="719" y="459"/>
      <point x="719" y="376" type="curve" smooth="yes"/>
      <point x="719" y="281"/>
      <point x="684" y="203"/>
      <point x="562" y="203" type="curve" smooth="yes"/>
      <point x="541" y="203" type="line"/>
    </contour>
  </outline>
</glyph>
<glyph name="Tse-cy" format="2">
  <advance width="851"/>
  <unicode hex="0426"/>
  <guideline x="386" y="174" angle="0"/>
  <outline>
    <contour>
      <point x="581" y="-180" type="line"/>
      <point x="766" y="-180" type="line"/>
      <point x="822" y="174" type="line"/>
      <point x="722" y="174" type="line"/>
      <point x="806" y="705" type="line"/>
      <point x="591" y="705" type="line"/>
      <point x="507" y="174" type="line"/>
      <point x="265" y="174" type="line"/>
      <point x="349" y="705" type="line"/>
      <point x="134" y="705" type="line"/>
      <point x="22" y="0" type="line"/>
      <point x="610" y="0" type="line"/>
    </contour>
  </outline>
</glyph>
<glyph name="Sha-cy" format="2">
  <advance width="1101"/>
  <unicode hex="0428"/>
  <outline>
    <contour>
      <point x="22" y="0" type="line"/>
      <point x="1009" y="0" type="line"/>
      <point x="1121" y="705" type="line"/>
      <point x="910" y="705" type="line"/>
      <point x="826" y="174" type="line"/>
      <point x="649" y="174" type="line"/>
      <point x="733" y="705" type="line"/>
      <point x="522" y="705" type="line"/>
      <point x="438" y="174" type="line"/>
      <point x="261" y="174" type="line"/>
      <point x="345" y="705" type="line"/>
      <point x="134" y="705" type="line"/>
    </contour>
  </outline>
</glyph>
<glyph name="Ereversed-cy" format="2">
  <advance width="692"/>
  <unicode hex="042D"/>
  <anchor x="294" y="0" name="bottom"/>
  <anchor x="405" y="705" name="top"/>
  <outline>
    <contour>
      <point x="273" y="-12" type="curve" smooth="yes"/>
      <point x="541" y="-12"/>
      <point x="682" y="166"/>
      <point x="682" y="390" type="curve" smooth="yes"/>
      <point x="682" y="603"/>
      <point x="534" y="717"/>
      <point x="333" y="717" type="curve" smooth="yes"/>
      <point x="252" y="717"/>
      <point x="145" y="691"/>
      <point x="91" y="651" type="curve"/>
      <point x="142" y="482" type="line"/>
      <point x="201" y="516"/>
      <point x="261" y="530"/>
      <point x="306" y="530" type="curve" smooth="yes"/>
      <point x="409" y="530"/>
      <point x="450" y="492"/>
      <point x="458" y="413" type="curve"/>
      <point x="482" y="441" type="line"/>
      <point x="215" y="441" type="line"/>
      <point x="189" y="277" type="line"/>
      <point x="477" y="277" type="line"/>
      <point x="454" y="321" type="line"/>
      <point x="437" y="237"/>
      <point x="382" y="175"/>
      <point x="277" y="175" type="curve" smooth="yes"/>
      <point x="224" y="175"/>
      <point x="165" y="195"/>
      <point x="113" y="230" type="curve"/>
      <point x="34" y="61" type="line"/>
      <point x="83" y="20"/>
      <point x="177" y="-12"/>
    </contour>
  </outline>
</glyph>
<glyph name="Iu-cy" format="2">
  <advance width="1110"/>
  <unicode hex="042E"/>
  <outline>
    <contour>
      <point x="705" y="-12" type="curve" smooth="yes"/>
      <point x="929" y="-12"/>
      <point x="1090" y="151"/>
      <point x="1090" y="397" type="curve" smooth="yes"/>
      <point x="1090" y="597"/>
      <point x="952" y="717"/>
      <point x="750" y="717" type="curve" smooth="yes"/>
      <point x="572" y="717"/>
      <point x="433" y="613"/>
      <point x="385" y="445" type="curve"/>
      <point x="308" y="445" type="line"/>
      <point x="349" y="705" type="line"/>
      <point x="134" y="705" type="line"/>
      <point x="22" y="0" type="line"/>
      <point x="237" y="0" type="line"/>
      <point x="280" y="269" type="line"/>
      <point x="368" y="269" type="line"/>
      <point x="385" y="93"/>
      <point x="517" y="-12"/>
    </contour>
    <contour>
      <point x="708" y="167" type="curve" smooth="yes"/>
      <point x="637" y="167"/>
      <point x="589" y="214"/>
      <point x="589" y="312" type="curve" smooth="yes"/>
      <point x="589" y="448"/>
      <point x="651" y="538"/>
      <point x="747" y="538" type="curve" smooth="yes"/>
      <point x="818" y="538"/>
      <point x="867" y="491"/>
      <point x="867" y="393" type="curve" smooth="yes"/>
      <point x="867" y="257"/>
      <point x="804" y="167"/>
    </contour>
  </outline>
</glyph>
<glyph name="Ia-cy" format="2">
  <advance width="722"/>
  <unicode hex="042F"/>
  <outline>
    <contour>
      <point x="-21" y="0" type="line"/>
      <point x="220" y="0" type="line"/>
      <point x="373" y="224" type="line" smooth="yes"/>
      <point x="386" y="243"/>
      <point x="411" y="252"/>
      <point x="432" y="252" type="curve" smooth="yes"/>
      <point x="455" y="252" type="line"/>
      <point x="415" y="0" type="line"/>
      <point x="630" y="0" type="line"/>
      <point x="742" y="705" type="line"/>
      <point x="378" y="705" type="line" smooth="yes"/>
      <point x="213" y="705"/>
      <point x="92" y="632"/>
      <point x="92" y="459" type="curve" smooth="yes"/>
      <point x="92" y="339"/>
      <point x="173" y="264"/>
      <point x="312" y="254" type="curve"/>
      <point x="299" y="273" type="line"/>
      <point x="248" y="273" type="line" smooth="yes"/>
      <point x="190" y="273"/>
      <point x="147" y="246"/>
      <point x="110" y="191" type="curve" smooth="yes"/>
    </contour>
    <contour>
      <point x="387" y="402" type="line" smooth="yes"/>
      <point x="325" y="402"/>
      <point x="297" y="422"/>
      <point x="297" y="463" type="curve" smooth="yes"/>
      <point x="297" y="516"/>
      <point x="329" y="541"/>
      <point x="390" y="541" type="curve" smooth="yes"/>
      <point x="501" y="541" type="line"/>
      <point x="479" y="402" type="line"/>
    </contour>
  </outline>
</glyph>
<glyph name="be-cy" format="2">
  <advance width="636"/>
  <unicode hex="0431"/>
  <outline>
    <contour>
      <point x="300" y="-12" type="curve" smooth="yes"/>
      <point x="452" y="-12"/>
      <point x="577" y="67"/>
      <point x="601" y="215" type="curve" smooth="yes"/>
      <point x="622" y="348"/>
      <point x="539" y="441"/>
      <point x="424" y="441" type="curve" smooth="yes"/>
      <point x="302" y="441"/>
      <point x="235" y="366"/>
      <point x="210" y="293" type="curve"/>
      <point x="240" y="293" type="line"/>
      <point x="254" y="377" type="line" smooth="yes"/>
      <point x="266" y="452"/>
      <point x="315" y="489"/>
      <point x="402" y="512" type="curve" smooth="yes"/>
      <point x="626" y="570" type="line"/>
      <point x="594" y="728" type="line"/>
      <point x="402" y="683" type="line" smooth="yes"/>
      <point x="187" y="633"/>
      <point x="84" y="529"/>
      <point x="55" y="345" type="curve" smooth="yes"/>
      <point x="45" y="285" type="line" smooth="yes"/>
      <point x="14" y="87"/>
      <point x="111" y="-12"/>
    </contour>
    <contour>
      <point x="307" y="138" type="curve" smooth="yes"/>
      <point x="259" y="138"/>
      <point x="235" y="165"/>
      <point x="243" y="214" type="curve" smooth="yes"/>
      <point x="251" y="264"/>
      <point x="283" y="292"/>
      <point x="330" y="292" type="curve" smooth="yes"/>
      <point x="378" y="292"/>
      <point x="402" y="264"/>
      <point x="394" y="214" type="curve" smooth="yes"/>
      <point x="386" y="164"/>
      <point x="354" y="138"/>
    </contour>
  </outline>
</glyph>
<glyph name="ge-cy" format="2">
  <advance width="500"/>
  <unicode hex="0433"/>
  <anchor x="33" y="0" name="bottomright"/>
  <anchor x="194" y="224" name="center"/>
  <anchor x="289" y="484" name="top"/>
  <outline>
    <contour>
      <point x="19" y="0" type="line"/>
      <point x="227" y="0" type="line"/>
      <point x="272" y="285" type="line"/>
      <point x="489" y="285" type="line"/>
      <point x="514" y="444" type="line"/>
      <point x="89" y="444" type="line"/>
    </contour>
  </outline>
</glyph>
<glyph name="zhe-cy" format="2">
  <advance width="908"/>
  <unicode hex="0436"/>
  <anchor x="689" y="0" name="bottomright"/>
  <anchor x="496" y="484" name="top"/>
  <outline>
    <contour>
      <point x="-58" y="0" type="line"/>
      <point x="173" y="0" type="line"/>
      <point x="259" y="120" type="line" smooth="yes"/>
      <point x="274" y="140"/>
      <point x="290" y="148"/>
      <point x="312" y="148" type="curve" smooth="yes"/>
      <point x="339" y="148" type="line"/>
      <point x="316" y="0" type="line"/>
      <point x="523" y="0" type="line"/>
      <point x="546" y="148" type="line"/>
      <point x="583" y="148" type="line" smooth="yes"/>
      <point x="605" y="148"/>
      <point x="619" y="140"/>
      <point x="627" y="120" type="curve" smooth="yes"/>
      <point x="676" y="0" type="line"/>
      <point x="886" y="0" type="line"/>
      <point x="808" y="191" type="line" smooth="yes"/>
      <point x="792" y="229"/>
      <point x="755" y="264"/>
      <point x="705" y="270" type="curve"/>
      <point x="733" y="206" type="line"/>
      <point x="952" y="444" type="line"/>
      <point x="726" y="444" type="line"/>
      <point x="596" y="301" type="line"/>
      <point x="571" y="301" type="line"/>
      <point x="593" y="444" type="line"/>
      <point x="386" y="444" type="line"/>
      <point x="364" y="301" type="line"/>
      <point x="339" y="301" type="line"/>
      <point x="253" y="444" type="line"/>
      <point x="40" y="444" type="line"/>
      <point x="186" y="206" type="line"/>
      <point x="210" y="270" type="line"/>
      <point x="158" y="264"/>
      <point x="108" y="229"/>
      <point x="81" y="191" type="curve" smooth="yes"/>
    </contour>
  </outline>
</glyph>
<glyph name="ze-cy" format="2">
  <advance width="562"/>
  <unicode hex="0437"/>
  <anchor x="249" y="0" name="bottom"/>
  <anchor x="315" y="494" name="top"/>
  <outline>
    <contour>
      <point x="245" y="-12" type="curve" smooth="yes"/>
      <point x="400" y="-12"/>
      <point x="509" y="41"/>
      <point x="522" y="123" type="curve" smooth="yes"/>
      <point x="534" y="196"/>
      <point x="497" y="230"/>
      <point x="411" y="240" type="curve"/>
      <point x="409" y="225" type="line"/>
      <point x="479" y="237"/>
      <point x="527" y="276"/>
      <point x="535" y="324" type="curve" smooth="yes"/>
      <point x="548" y="409"/>
      <point x="469" y="456"/>
      <point x="312" y="456" type="curve" smooth="yes"/>
      <point x="214" y="456"/>
      <point x="120" y="437"/>
      <point x="60" y="411" type="curve"/>
      <point x="84" y="297" type="line"/>
      <point x="135" y="314"/>
      <point x="193" y="328"/>
      <point x="265" y="328" type="curve" smooth="yes"/>
      <point x="333" y="328"/>
      <point x="349" y="320"/>
      <point x="346" y="304" type="curve" smooth="yes"/>
      <point x="344" y="292"/>
      <point x="333" y="285"/>
      <point x="305" y="285" type="curve" smooth="yes"/>
      <point x="162" y="285" type="line"/>
      <point x="143" y="162" type="line"/>
      <point x="301" y="162" type="line" smooth="yes"/>
      <point x="334" y="162"/>
      <point x="342" y="154"/>
      <point x="340" y="140" type="curve" smooth="yes"/>
      <point x="337" y="119"/>
      <point x="307" y="114"/>
      <point x="255" y="114" type="curve" smooth="yes"/>
      <point x="183" y="114"/>
      <point x="102" y="128"/>
      <point x="54" y="151" type="curve"/>
      <point x="-5" y="35" type="line"/>
      <point x="53" y="3"/>
      <point x="139" y="-12"/>
    </contour>
  </outline>
</glyph>
<glyph name="ii-cy" format="2">
  <advance width="642"/>
  <unicode hex="0438"/>
  <anchor x="366" y="0" name="bottomright"/>
  <anchor x="363" y="484" name="top"/>
  <outline>
    <contour>
      <point x="19" y="0" type="line"/>
      <point x="187" y="0" type="line"/>
      <point x="439" y="233" type="line"/>
      <point x="403" y="233" type="line"/>
      <point x="366" y="0" type="line"/>
      <point x="553" y="0" type="line"/>
      <point x="623" y="444" type="line"/>
      <point x="455" y="444" type="line"/>
      <point x="203" y="211" type="line"/>
      <point x="239" y="211" type="line"/>
      <point x="276" y="444" type="line"/>
      <point x="89" y="444" type="line"/>
    </contour>
  </outline>
</glyph>
<glyph name="ka-cy" format="2">
  <advance width="622"/>
  <unicode hex="043A"/>
  <anchor x="403" y="0" name="bottomright"/>
  <anchor x="306" y="224" name="center"/>
  <anchor x="381" y="484" name="top"/>
  <outline>
    <contour>
      <point x="19" y="0" type="line"/>
      <point x="227" y="0" type="line"/>
      <point x="250" y="148" type="line"/>
      <point x="297" y="148" type="line" smooth="yes"/>
      <point x="319" y="148"/>
      <point x="333" y="140"/>
      <point x="341" y="120" type="curve" smooth="yes"/>
      <point x="390" y="0" type="line"/>
      <point x="600" y="0" type="line"/>
      <point x="522" y="191" type="line" smooth="yes"/>
      <point x="506" y="229"/>
      <point x="469" y="264"/>
      <point x="419" y="270" type="curve"/>
      <point x="440" y="206" type="line"/>
      <point x="659" y="444" type="line"/>
      <point x="433" y="444" type="line"/>
      <point x="303" y="301" type="line"/>
      <point x="275" y="301" type="line"/>
      <point x="297" y="444" type="line"/>
      <point x="89" y="444" type="line"/>
    </contour>
  </outline>
</glyph>
<glyph name="em-cy" format="2">
  <advance width="734"/>
  <unicode hex="043C"/>
  <anchor x="463" y="0" name="bottomright"/>
  <outline>
    <contour>
      <point x="19" y="0" type="line"/>
      <point x="201" y="0" type="line"/>
      <point x="238" y="231" type="line"/>
      <point x="210" y="231" type="line"/>
      <point x="306" y="73" type="line"/>
      <point x="398" y="73" type="line"/>
      <point x="544" y="231" type="line"/>
      <point x="500" y="231" type="line"/>
      <point x="463" y="0" type="line"/>
      <point x="645" y="0" type="line"/>
      <point x="715" y="444" type="line"/>
      <point x="547" y="444" type="line"/>
      <point x="373" y="251" type="line"/>
      <point x="257" y="444" type="line"/>
      <point x="89" y="444" type="line"/>
    </contour>
  </outline>
</glyph>
<glyph name="en-cy" format="2">
  <advance width="647"/>
  <unicode hex="043D"/>
  <anchor x="364" y="0" name="bottomright"/>
  <outline>
    <contour>
      <point x="19" y="0" type="line"/>
      <point x="227" y="0" type="line"/>
      <point x="250" y="146" type="line"/>
      <point x="373" y="146" type="line"/>
      <point x="350" y="0" type="line"/>
      <point x="558" y="0" type="line"/>
      <point x="628" y="444" type="line"/>
      <point x="420" y="444" type="line"/>
      <point x="398" y="303" type="line"/>
      <point x="275" y="303" type="line"/>
      <point x="297" y="444" type="line"/>
      <point x="89" y="444" type="line"/>
    </contour>
  </outline>
</glyph>
<glyph name="pe-cy" format="2">
  <advance width="644"/>
  <unicode hex="043F"/>
  <anchor x="361" y="0" name="bottomright"/>
  <outline>
    <contour>
      <point x="19" y="0" type="line"/>
      <point x="227" y="0" type="line"/>
      <point x="272" y="287" type="line"/>
      <point x="392" y="287" type="line"/>
      <point x="347" y="0" type="line"/>
      <point x="555" y="0" type="line"/>
      <point x="625" y="444" type="line"/>
      <point x="89" y="444" type="line"/>
    </contour>
  </outline>
</glyph>
<glyph name="te-cy" format="2">
  <advance width="528"/>
  <unicode hex="0442"/>
  <anchor x="139" y="0" name="bottomright"/>
  <outline>
    <contour>
      <point x="125" y="0" type="line"/>
      <point x="333" y="0" type="line"/>
      <point x="378" y="286" type="line"/>
      <point x="528" y="286" type="line"/>
      <point x="553" y="444" type="line"/>
      <point x="45" y="444" type="line"/>
      <point x="20" y="286" type="line"/>
      <point x="170" y="286" type="line"/>
    </contour>
  </outline>
</glyph>
<glyph name="ef-cy" format="2">
  <advance width="920"/>
  <unicode hex="0444"/>
  <outline>
    <contour>
      <point x="292" y="-180" type="line"/>
      <point x="500" y="-180" type="line"/>
      <point x="539" y="66" type="line"/>
      <point x="526" y="66" type="line"/>
      <point x="543" y="20"/>
      <point x="585" y="-12"/>
      <point x="653" y="-12" type="curve" smooth="yes"/>
      <point x="767" y="-12"/>
      <point x="862" y="73"/>
      <point x="884" y="212" type="curve" smooth="yes"/>
      <point x="906" y="353"/>
      <point x="835" y="456"/>
      <point x="722" y="456" type="curve" smooth="yes"/>
      <point x="653" y="456"/>
      <point x="600" y="423"/>
      <point x="571" y="379" type="curve"/>
      <point x="589" y="379" type="line"/>
      <point x="641" y="705" type="line"/>
      <point x="433" y="705" type="line"/>
      <point x="381" y="381" type="line"/>
      <point x="393" y="381" type="line"/>
      <point x="377" y="426"/>
      <point x="335" y="456"/>
      <point x="267" y="456" type="curve" smooth="yes"/>
      <point x="154" y="456"/>
      <point x="59" y="373"/>
      <point x="36" y="232" type="curve" smooth="yes"/>
      <point x="15" y="93"/>
      <point x="85" y="-12"/>
      <point x="198" y="-12" type="curve" smooth="yes"/>
      <point x="265" y="-12"/>
      <point x="316" y="17"/>
      <point x="348" y="63" type="curve"/>
      <point x="331" y="63" type="line"/>
    </contour>
    <contour>
      <point x="287" y="136" type="curve" smooth="yes"/>
      <point x="250" y="136"/>
      <point x="231" y="163"/>
      <point x="240" y="223" type="curve" smooth="yes"/>
      <point x="250" y="283"/>
      <point x="278" y="309"/>
      <point x="314" y="309" type="curve" smooth="yes"/>
      <point x="349" y="309"/>
      <point x="369" y="283"/>
      <point x="359" y="223" type="curve" smooth="yes"/>
      <point x="350" y="163"/>
      <point x="323" y="136"/>
    </contour>
    <contour>
      <point x="608" y="136" type="curve" smooth="yes"/>
      <point x="572" y="136"/>
      <point x="552" y="163"/>
      <point x="561" y="223" type="curve" smooth="yes"/>
      <point x="571" y="283"/>
      <point x="598" y="309"/>
      <point x="635" y="309" type="curve" smooth="yes"/>
      <point x="671" y="309"/>
      <point x="691" y="283"/>
      <point x="681" y="223" type="curve" smooth="yes"/>
      <point x="672" y="163"/>
      <point x="644" y="136"/>
    </contour>
  </outline>
</glyph>
<glyph name="tse-cy" format="2">
  <advance width="671"/>
  <unicode hex="0446"/>
  <outline>
    <contour>
      <point x="431" y="-130" type="line"/>
      <point x="606" y="-130" type="line"/>
      <point x="652" y="157" type="line"/>
      <point x="567" y="157" type="line"/>
      <point x="612" y="444" type="line"/>
      <point x="404" y="444" type="line"/>
      <point x="359" y="157" type="line"/>
      <point x="252" y="157" type="line"/>
      <point x="297" y="444" type="line"/>
      <point x="89" y="444" type="line"/>
      <point x="19" y="0" type="line"/>
      <point x="452" y="0" type="line"/>
    </contour>
  </outline>
</glyph>
<glyph name="che-cy" format="2">
  <advance width="615"/>
  <unicode hex="0447"/>
  <anchor x="332" y="0" name="bottomright"/>
  <anchor x="292" y="180" name="center"/>
  <anchor x="340" y="484" name="top"/>
  <outline>
    <contour>
      <point x="323" y="0" type="line"/>
      <point x="526" y="0" type="line"/>
      <point x="596" y="444" type="line"/>
      <point x="388" y="444" type="line"/>
      <point x="362" y="279" type="line"/>
      <point x="353" y="275"/>
      <point x="337" y="273"/>
      <point x="324" y="273" type="curve" smooth="yes"/>
      <point x="268" y="273"/>
      <point x="254" y="298"/>
      <point x="263" y="354" type="curve" smooth="yes"/>
      <point x="277" y="444" type="line"/>
      <point x="69" y="444" type="line"/>
      <point x="52" y="335" type="line" smooth="yes"/>
      <point x="29" y="189"/>
      <point x="106" y="110"/>
      <point x="253" y="110" type="curve" smooth="yes"/>
      <point x="278" y="110"/>
      <point x="308" y="113"/>
      <point x="342" y="121" type="curve"/>
    </contour>
  </outline>
</glyph>
<glyph name="sha-cy" format="2">
  <advance width="893"/>
  <unicode hex="0448"/>
  <outline>
    <contour>
      <point x="19" y="0" type="line"/>
      <point x="804" y="0" type="line"/>
      <point x="874" y="444" type="line"/>
      <point x="681" y="444" type="line"/>
      <point x="636" y="157" type="line"/>
      <point x="533" y="157" type="line"/>
      <point x="578" y="444" type="line"/>
      <point x="385" y="444" type="line"/>
      <point x="340" y="157" type="line"/>
      <point x="237" y="157" type="line"/>
      <point x="282" y="444" type="line"/>
      <point x="89" y="444" type="line"/>
    </contour>
  </outline>
</glyph>
<glyph name="shcha-cy" format="2">
  <advance width="933"/>
  <unicode hex="0449"/>
  <outline>
    <contour>
      <point x="693" y="-130" type="line"/>
      <point x="868" y="-130" type="line"/>
      <point x="914" y="157" type="line"/>
      <point x="829" y="157" type="line"/>
      <point x="874" y="444" type="line"/>
      <point x="681" y="444" type="line"/>
      <point x="636" y="157" type="line"/>
      <point x="533" y="157" type="line"/>
      <point x="578" y="444" type="line"/>
      <point x="385" y="444" type="line"/>
      <point x="340" y="157" type="line"/>
      <point x="237" y="157" type="line"/>
      <point x="282" y="444" type="line"/>
      <point x="89" y="444" type="line"/>
      <point x="19" y="0" type="line"/>
      <point x="714" y="0" type="line"/>
    </contour>
  </outline>
</glyph>
<glyph name="hardsign-cy" format="2">
  <advance width="670"/>
  <unicode hex="044A"/>
  <outline>
    <contour>
      <point x="105" y="0" type="line"/>
      <point x="424" y="0" type="line" smooth="yes"/>
      <point x="542" y="0"/>
      <point x="625" y="56"/>
      <point x="642" y="157" type="curve" smooth="yes"/>
      <point x="658" y="261"/>
      <point x="603" y="324"/>
      <point x="475" y="324" type="curve" smooth="yes"/>
      <point x="364" y="324" type="line"/>
      <point x="383" y="444" type="line"/>
      <point x="45" y="444" type="line"/>
      <point x="20" y="283" type="line"/>
      <point x="150" y="283" type="line"/>
    </contour>
    <contour>
      <point x="332" y="123" type="line"/>
      <point x="345" y="202" type="line"/>
      <point x="412" y="202" type="line" smooth="yes"/>
      <point x="444" y="202"/>
      <point x="460" y="189"/>
      <point x="456" y="163" type="curve" smooth="yes"/>
      <point x="452" y="137"/>
      <point x="430" y="123"/>
      <point x="399" y="123" type="curve" smooth="yes"/>
    </contour>
  </outline>
</glyph>
<glyph name="softsign-cy" format="2">
  <advance width="584"/>
  <unicode hex="044C"/>
  <outline>
    <contour>
      <point x="19" y="0" type="line"/>
      <point x="338" y="0" type="line" smooth="yes"/>
      <point x="456" y="0"/>
      <point x="539" y="56"/>
      <point x="556" y="157" type="curve" smooth="yes"/>
      <point x="572" y="261"/>
      <point x="517" y="324"/>
      <point x="389" y="324" type="curve" smooth="yes"/>
      <point x="278" y="324" type="line"/>
      <point x="297" y="444" type="line"/>
      <point x="89" y="444" type="line"/>
    </contour>
    <contour>
      <point x="246" y="123" type="line"/>
      <point x="259" y="202" type="line"/>
      <point x="326" y="202" type="line" smooth="yes"/>
      <point x="358" y="202"/>
      <point x="374" y="189"/>
      <point x="370" y="163" type="curve" smooth="yes"/>
      <point x="366" y="137"/>
      <point x="344" y="123"/>
      <point x="313" y="123" type="curve" smooth="yes"/>
    </contour>
  </outline>
</glyph>
<glyph name="ereversed-cy" format="2">
  <advance width="547"/>
  <unicode hex="044D"/>
  <anchor x="283" y="484" name="top"/>
  <outline>
    <contour>
      <point x="178" y="-12" type="curve" smooth="yes"/>
      <point x="358" y="-12"/>
      <point x="488" y="67"/>
      <point x="511" y="212" type="curve" smooth="yes"/>
      <point x="534" y="358"/>
      <point x="432" y="456"/>
      <point x="247" y="456" type="curve" smooth="yes"/>
      <point x="177" y="456"/>
      <point x="97" y="439"/>
      <point x="43" y="409" type="curve"/>
      <point x="68" y="295" type="line"/>
      <point x="116" y="317"/>
      <point x="167" y="329"/>
      <point x="213" y="329" type="curve" smooth="yes"/>
      <point x="278" y="329"/>
      <point x="320" y="311"/>
      <point x="330" y="257" type="curve"/>
      <point x="347" y="284" type="line"/>
      <point x="129" y="284" type="line"/>
      <point x="110" y="163" type="line"/>
      <point x="328" y="163" type="line"/>
      <point x="320" y="193" type="line"/>
      <point x="298" y="137"/>
      <point x="244" y="116"/>
      <point x="179" y="116" type="curve" smooth="yes"/>
      <point x="135" y="116"/>
      <point x="86" y="130"/>
      <point x="45" y="150" type="curve"/>
      <point x="-16" y="36" type="line"/>
      <point x="29" y="5"/>
      <point x="103" y="-12"/>
    </contour>
  </outline>
</glyph>
<glyph name="iu-cy" format="2">
  <advance width="905"/>
  <unicode hex="044E"/>
  <outline>
    <contour>
      <point x="550" y="-12" type="curve" smooth="yes"/>
      <point x="721" y="-12"/>
      <point x="847" y="69"/>
      <point x="870" y="212" type="curve" smooth="yes"/>
      <point x="892" y="356"/>
      <point x="795" y="456"/>
      <point x="624" y="456" type="curve" smooth="yes"/>
      <point x="480" y="456"/>
      <point x="380" y="398"/>
      <point x="331" y="303" type="curve"/>
      <point x="270" y="303" type="line"/>
      <point x="292" y="445" type="line"/>
      <point x="89" y="445" type="line"/>
      <point x="19" y="0" type="line"/>
      <point x="222" y="0" type="line"/>
      <point x="245" y="146" type="line"/>
      <point x="305" y="146" type="line"/>
      <point x="330" y="47"/>
      <point x="412" y="-12"/>
    </contour>
    <contour>
      <point x="574" y="138" type="curve" smooth="yes"/>
      <point x="528" y="138"/>
      <point x="501" y="164"/>
      <point x="510" y="222" type="curve" smooth="yes"/>
      <point x="519" y="280"/>
      <point x="555" y="307"/>
      <point x="601" y="307" type="curve" smooth="yes"/>
      <point x="647" y="307"/>
      <point x="673" y="280"/>
      <point x="664" y="222" type="curve" smooth="yes"/>
      <point x="655" y="164"/>
      <point x="620" y="138"/>
    </contour>
  </outline>
</glyph>
<glyph name="ia-cy" format="2">
  <advance width="602"/>
  <unicode hex="044F"/>
  <outline>
    <contour>
      <point x="-32" y="0" type="line"/>
      <point x="210" y="0" type="line"/>
      <point x="285" y="96" type="line" smooth="yes"/>
      <point x="299" y="113"/>
      <point x="313" y="124"/>
      <point x="330" y="124" type="curve" smooth="yes"/>
      <point x="343" y="124" type="line"/>
      <point x="323" y="0" type="line"/>
      <point x="513" y="0" type="line"/>
      <point x="583" y="444" type="line"/>
      <point x="268" y="444" type="line" smooth="yes"/>
      <point x="138" y="444"/>
      <point x="62" y="402"/>
      <point x="47" y="310" type="curve" smooth="yes"/>
      <point x="33" y="218"/>
      <point x="86" y="160"/>
      <point x="213" y="160" type="curve"/>
      <point x="216" y="174" type="line"/>
      <point x="181" y="174" type="line" smooth="yes"/>
      <point x="138" y="174"/>
      <point x="86" y="147"/>
      <point x="53" y="106" type="curve" smooth="yes"/>
    </contour>
    <contour>
      <point x="283" y="241" type="line" smooth="yes"/>
      <point x="250" y="241"/>
      <point x="233" y="257"/>
      <point x="237" y="284" type="curve" smooth="yes"/>
      <point x="241" y="311"/>
      <point x="264" y="327"/>
      <point x="297" y="327" type="curve" smooth="yes"/>
      <point x="375" y="327" type="line"/>
      <point x="361" y="241" type="line"/>
    </contour>
  </outline>
</glyph>
<glyph name="e-cy" format="2">
  <advance width="547"/>
  <unicode hex="0454"/>
  <outline>
    <contour>
      <point x="296" y="-12" type="curve" smooth="yes"/>
      <point x="371" y="-12"/>
      <point x="451" y="5"/>
      <point x="506" y="36" type="curve"/>
      <point x="481" y="150" type="line"/>
      <point x="434" y="130"/>
      <point x="379" y="116"/>
      <point x="335" y="116" type="curve" smooth="yes"/>
      <point x="270" y="116"/>
      <point x="224" y="137"/>
      <point x="220" y="193" type="curve"/>
      <point x="202" y="163" type="line"/>
      <point x="420" y="163" type="line"/>
      <point x="439" y="284" type="line"/>
      <point x="221" y="284" type="line"/>
      <point x="230" y="257" type="line"/>
      <point x="256" y="311"/>
      <point x="304" y="329"/>
      <point x="369" y="329" type="curve" smooth="yes"/>
      <point x="415" y="329"/>
      <point x="462" y="317"/>
      <point x="504" y="295" type="curve"/>
      <point x="555" y="409" type="line"/>
      <point x="514" y="439"/>
      <point x="440" y="456"/>
      <point x="380" y="456" type="curve" smooth="yes"/>
      <point x="190" y="456"/>
      <point x="60" y="378"/>
      <point x="36" y="232" type="curve" smooth="yes"/>
      <point x="14" y="87"/>
      <point x="116" y="-12"/>
    </contour>
  </outline>
</glyph>
<glyph name="lje-cy" format="2">
  <advance width="902"/>
  <unicode hex="0459"/>
  <outline>
    <contour>
      <point x="29" y="-18" type="line"/>
      <point x="190" y="-14"/>
      <point x="283" y="94"/>
      <point x="307" y="245" type="curve" smooth="yes"/>
      <point x="313" y="287" type="line"/>
      <point x="387" y="287" type="line"/>
      <point x="342" y="0" type="line"/>
      <point x="656" y="0" type="line" smooth="yes"/>
      <point x="774" y="0"/>
      <point x="857" y="56"/>
      <point x="874" y="157" type="curve" smooth="yes"/>
      <point x="890" y="261"/>
      <point x="835" y="324"/>
      <point x="707" y="324" type="curve" smooth="yes"/>
      <point x="596" y="324" type="line"/>
      <point x="615" y="444" type="line"/>
      <point x="150" y="444" type="line"/>
      <point x="120" y="252" type="line" smooth="yes"/>
      <point x="110" y="188"/>
      <point x="71" y="148"/>
      <point x="-1" y="146" type="curve"/>
    </contour>
    <contour>
      <point x="564" y="123" type="line"/>
      <point x="577" y="202" type="line"/>
      <point x="644" y="202" type="line" smooth="yes"/>
      <point x="676" y="202"/>
      <point x="692" y="189"/>
      <point x="688" y="163" type="curve" smooth="yes"/>
      <point x="684" y="137"/>
      <point x="662" y="123"/>
      <point x="631" y="123" type="curve" smooth="yes"/>
    </contour>
  </outline>
</glyph>
<glyph name="nje-cy" format="2">
  <advance width="915"/>
  <unicode hex="045A"/>
  <outline>
    <contour>
      <point x="19" y="0" type="line"/>
      <point x="227" y="0" type="line"/>
      <point x="250" y="146" type="line"/>
      <point x="373" y="146" type="line"/>
      <point x="350" y="0" type="line"/>
      <point x="669" y="0" type="line" smooth="yes"/>
      <point x="787" y="0"/>
      <point x="870" y="56"/>
      <point x="887" y="157" type="curve" smooth="yes"/>
      <point x="903" y="261"/>
      <point x="848" y="324"/>
      <point x="720" y="324" type="curve" smooth="yes"/>
      <point x="609" y="324" type="line"/>
      <point x="628" y="444" type="line"/>
      <point x="420" y="444" type="line"/>
      <point x="398" y="303" type="line"/>
      <point x="275" y="303" type="line"/>
      <point x="297" y="444" type="line"/>
      <point x="89" y="444" type="line"/>
    </contour>
    <contour>
      <point x="577" y="123" type="line"/>
      <point x="590" y="202" type="line"/>
      <point x="657" y="202" type="line" smooth="yes"/>
      <point x="689" y="202"/>
      <point x="705" y="189"/>
      <point x="701" y="163" type="curve" smooth="yes"/>
      <point x="697" y="137"/>
      <point x="675" y="123"/>
      <point x="644" y="123" type="curve" smooth="yes"/>
    </contour>
  </outline>
</glyph>
<glyph name="dzhe-cy" format="2">
  <advance width="644"/>
  <unicode hex="045F"/>
  <outline>
    <contour>
      <point x="178" y="-130" type="line"/>
      <point x="353" y="-130" type="line"/>
      <point x="374" y="0" type="line"/>
      <point x="555" y="0" type="line"/>
      <point x="625" y="444" type="line"/>
      <point x="417" y="444" type="line"/>
      <point x="372" y="157" type="line"/>
      <point x="252" y="157" type="line"/>
      <point x="297" y="444" type="line"/>
      <point x="89" y="444" type="line"/>
      <point x="19" y="0" type="line"/>
      <point x="199" y="0" type="line"/>
    </contour>
  </outline>
</glyph>
<glyph name="Yat-cy" format="2">
  <advance width="780"/>
  <unicode hex="0462"/>
  <outline>
    <contour>
      <point x="114" y="0" type="line"/>
      <point x="458" y="0" type="line" smooth="yes"/>
      <point x="655" y="0"/>
      <point x="758" y="86"/>
      <point x="758" y="241" type="curve" smooth="yes"/>
      <point x="758" y="354"/>
      <point x="673" y="442"/>
      <point x="495" y="442" type="curve" smooth="yes"/>
      <point x="389" y="442" type="line"/>
      <point x="398" y="497" type="line"/>
      <point x="631" y="497" type="line"/>
      <point x="655" y="645" type="line"/>
      <point x="421" y="645" type="line"/>
      <point x="431" y="705" type="line"/>
      <point x="226" y="705" type="line"/>
      <point x="216" y="645" type="line"/>
      <point x="48" y="645" type="line"/>
      <point x="24" y="497" type="line"/>
      <point x="193" y="497" type="line"/>
    </contour>
    <contour>
      <point x="346" y="160" type="line"/>
      <point x="365" y="282" type="line"/>
      <point x="465" y="282" type="line" smooth="yes"/>
      <point x="537" y="282"/>
      <point x="555" y="265"/>
      <point x="555" y="227" type="curve" smooth="yes"/>
      <point x="555" y="183"/>
      <point x="524" y="160"/>
      <point x="463" y="160" type="curve" smooth="yes"/>
    </contour>
  </outline>
</glyph>
<glyph name="yat-cy" format="2">
  <advance width="670"/>
  <unicode hex="0463"/>
  <outline>
    <contour>
      <point x="105" y="0" type="line"/>
      <point x="439" y="0" type="line" smooth="yes"/>
      <point x="546" y="0"/>
      <point x="623" y="41"/>
      <point x="639" y="139" type="curve" smooth="yes"/>
      <point x="654" y="235"/>
      <point x="595" y="294"/>
      <point x="486" y="294" type="curve" smooth="yes"/>
      <point x="360" y="294" type="line"/>
      <point x="367" y="336" type="line"/>
      <point x="536" y="336" type="line"/>
      <point x="557" y="466" type="line"/>
      <point x="387" y="466" type="line"/>
      <point x="425" y="705" type="line"/>
      <point x="217" y="705" type="line"/>
      <point x="179" y="466" type="line"/>
      <point x="49" y="466" type="line"/>
      <point x="28" y="336" type="line"/>
      <point x="158" y="336" type="line"/>
    </contour>
    <contour>
      <point x="330" y="110" type="line"/>
      <point x="342" y="184" type="line"/>
      <point x="414" y="184" type="line" smooth="yes"/>
      <point x="441" y="184"/>
      <point x="457" y="172"/>
      <point x="453" y="148" type="curve" smooth="yes"/>
      <point x="450" y="124"/>
      <point x="429" y="110"/>
      <point x="402" y="110" type="curve" smooth="yes"/>
    </contour>
  </outline>
</glyph>
<glyph name="yusbig-cy" format="2">
  <advance width="908"/>
  <unicode hex="046B"/>
  <outline>
    <contour>
      <point x="-63" y="0" type="line"/>
      <point x="168" y="0" type="line"/>
      <point x="250" y="94" type="line" smooth="yes"/>
      <point x="269" y="115"/>
      <point x="286" y="124"/>
      <point x="308" y="124" type="curve" smooth="yes"/>
      <point x="336" y="124" type="line"/>
      <point x="316" y="0" type="line"/>
      <point x="523" y="0" type="line"/>
      <point x="543" y="124" type="line"/>
      <point x="571" y="124" type="line" smooth="yes"/>
      <point x="592" y="124"/>
      <point x="605" y="115"/>
      <point x="618" y="94" type="curve" smooth="yes"/>
      <point x="671" y="0" type="line"/>
      <point x="881" y="0" type="line"/>
      <point x="787" y="176" type="line" smooth="yes"/>
      <point x="750" y="245"/>
      <point x="717" y="273"/>
      <point x="631" y="273" type="curve" smooth="yes"/>
      <point x="588" y="273" type="line"/>
      <point x="616" y="212" type="line"/>
      <point x="863" y="444" type="line"/>
      <point x="115" y="444" type="line"/>
      <point x="290" y="212" type="line"/>
      <point x="336" y="273" type="line"/>
      <point x="283" y="273" type="line" smooth="yes"/>
      <point x="197" y="273"/>
      <point x="147" y="245"/>
      <point x="88" y="176" type="curve" smooth="yes"/>
    </contour>
    <contour>
      <point x="453" y="230" type="line"/>
      <point x="344" y="378" type="line"/>
      <point x="335" y="322" type="line"/>
      <point x="605" y="322" type="line"/>
      <point x="614" y="378" type="line"/>
      <point x="457" y="230" type="line"/>
    </contour>
  </outline>
</glyph>
<glyph name="Izhitsa-cy" format="2">
  <advance width="820"/>
  <unicode hex="0474"/>
  <outline>
    <contour>
      <point x="261" y="0" type="line"/>
      <point x="430" y="0" type="line"/>
      <point x="668" y="395" type="line" smooth="yes"/>
      <point x="737" y="510"/>
      <point x="765" y="543"/>
      <point x="869" y="543" type="curve"/>
      <point x="863" y="716" type="line"/>
      <point x="682" y="716"/>
      <point x="600" y="668"/>
      <point x="500" y="493" type="curve" smooth="yes"/>
      <point x="335" y="203" type="line"/>
      <point x="398" y="203" type="line"/>
      <point x="261" y="705" type="line"/>
      <point x="47" y="705" type="line"/>
    </contour>
  </outline>
</glyph>
<glyph name="izhitsa-cy" format="2">
  <advance width="617"/>
  <unicode hex="0475"/>
  <outline>
    <contour>
      <point x="168" y="0" type="line"/>
      <point x="332" y="0" type="line"/>
      <point x="477" y="222" type="line" smooth="yes"/>
      <point x="515" y="278"/>
      <point x="550" y="296"/>
      <point x="624" y="294" type="curve"/>
      <point x="632" y="456" type="line"/>
      <point x="478" y="456"/>
      <point x="398" y="418"/>
      <point x="332" y="312" type="curve" smooth="yes"/>
      <point x="258" y="192" type="line"/>
      <point x="291" y="192" type="line"/>
      <point x="221" y="444" type="line"/>
      <point x="17" y="444" type="line"/>
    </contour>
  </outline>
</glyph>
<glyph name="Iishorttail-cy" format="2">
  <advance width="804"/>
  <unicode hex="048A"/>
  <outline>
    <contour>
      <point x="456" y="-180" type="line"/>
      <point x="637" y="-180" type="line"/>
      <point x="809" y="167" type="line"/>
      <point x="698" y="167" type="line"/>
      <point x="783" y="705" type="line"/>
      <point x="626" y="705" type="line"/>
      <point x="248" y="326" type="line"/>
      <point x="273" y="314" type="line"/>
      <point x="334" y="705" type="line"/>
      <point x="134" y="705" type="line"/>
      <point x="22" y="0" type="line"/>
      <point x="179" y="0" type="line"/>
      <point x="558" y="380" type="line"/>
      <point x="533" y="392" type="line"/>
      <point x="471" y="0" type="line"/>
      <point x="545" y="0" type="line"/>
    </contour>
    <contour>
      <point x="459" y="760" type="curve" smooth="yes"/>
      <point x="581" y="760"/>
      <point x="666" y="829"/>
      <point x="695" y="915" type="curve"/>
      <point x="608" y="944" type="line"/>
      <point x="586" y="896"/>
      <point x="545" y="863"/>
      <point x="478" y="863" type="curve" smooth="yes"/>
      <point x="412" y="863"/>
      <point x="381" y="886"/>
      <point x="368" y="945" type="curve"/>
      <point x="268" y="915" type="line"/>
      <point x="264" y="836"/>
      <point x="315" y="760"/>
    </contour>
  </outline>
</glyph>
<glyph name="Semisoftsign-cy" format="2">
  <advance width="770"/>
  <unicode hex="048C"/>
  <outline>
    <contour>
      <point x="104" y="0" type="line"/>
      <point x="448" y="0" type="line" smooth="yes"/>
      <point x="645" y="0"/>
      <point x="748" y="86"/>
      <point x="748" y="241" type="curve" smooth="yes"/>
      <point x="748" y="354"/>
      <point x="663" y="442"/>
      <point x="485" y="442" type="curve" smooth="yes"/>
      <point x="380" y="442" type="line"/>
      <point x="389" y="497" type="line"/>
      <point x="528" y="497" type="line"/>
      <point x="552" y="645" type="line"/>
      <point x="412" y="645" type="line"/>
      <point x="422" y="705" type="line"/>
      <point x="216" y="705" type="line"/>
      <point x="206" y="645" type="line"/>
      <point x="68" y="645" type="line"/>
      <point x="44" y="497" type="line"/>
      <point x="183" y="497" type="line"/>
    </contour>
    <contour>
      <point x="336" y="160" type="line"/>
      <point x="355" y="282" type="line"/>
      <point x="455" y="282" type="line" smooth="yes"/>
      <point x="527" y="282"/>
      <point x="545" y="265"/>
      <point x="545" y="227" type="curve" smooth="yes"/>
      <point x="545" y="183"/>
      <point x="514" y="160"/>
      <point x="453" y="160" type="curve" smooth="yes"/>
    </contour>
  </outline>
</glyph>
<glyph name="Gheupturn-cy" format="2">
  <advance width="591"/>
  <unicode hex="0490"/>
  <outline>
    <contour>
      <point x="22" y="0" type="line"/>
      <point x="237" y="0" type="line"/>
      <point x="321" y="531" type="line"/>
      <point x="621" y="531" type="line"/>
      <point x="675" y="874" type="line"/>
      <point x="490" y="874" type="line"/>
      <point x="463" y="705" type="line"/>
      <point x="134" y="705" type="line"/>
    </contour>
  </outline>
</glyph>
<glyph name="gheupturn-cy" format="2">
  <advance width="500"/>
  <unicode hex="0491"/>
  <outline>
    <contour>
      <point x="19" y="0" type="line"/>
      <point x="227" y="0" type="line"/>
      <point x="272" y="286" type="line"/>
      <point x="489" y="286" type="line"/>
      <point x="531" y="552" type="line"/>
      <point x="356" y="552" type="line"/>
      <point x="339" y="444" type="line"/>
      <point x="89" y="444" type="line"/>
    </contour>
  </outline>
</glyph>
<glyph name="Ghestroke-cy" format="2">
  <advance width="644"/>
  <unicode hex="0492"/>
  <guideline x="238" y="435" angle="0"/>
  <outline>
    <contour>
      <point x="75" y="0" type="line"/>
      <point x="290" y="0" type="line"/>
      <point x="332" y="264" type="line"/>
      <point x="502" y="264" type="line"/>
      <point x="525" y="412" type="line"/>
      <point x="355" y="412" type="line"/>
      <point x="374" y="531" type="line"/>
      <point x="673" y="531" type="line"/>
      <point x="701" y="705" type="line"/>
      <point x="186" y="705" type="line"/>
      <point x="140" y="412" type="line"/>
      <point x="50" y="412" type="line"/>
      <point x="27" y="264" type="line"/>
      <point x="117" y="264" type="line"/>
    </contour>
  </outline>
</glyph>
<glyph name="ghestroke-cy" format="2">
  <advance width="530"/>
  <unicode hex="0493"/>
  <outline>
    <contour>
      <point x="49" y="0" type="line"/>
      <point x="257" y="0" type="line"/>
      <point x="274" y="105" type="line"/>
      <point x="402" y="105" type="line"/>
      <point x="423" y="240" type="line"/>
      <point x="295" y="240" type="line"/>
      <point x="302" y="285" type="line"/>
      <point x="519" y="285" type="line"/>
      <point x="544" y="444" type="line"/>
      <point x="119" y="444" type="line"/>
      <point x="87" y="240" type="line"/>
      <point x="7" y="240" type="line"/>
      <point x="-14" y="105" type="line"/>
      <point x="66" y="105" type="line"/>
    </contour>
  </outline>
</glyph>
<glyph name="Ghemiddlehook-cy" format="2">
  <advance width="759"/>
  <unicode hex="0494"/>
  <outline>
    <contour>
      <point x="415" y="-192" type="curve" smooth="yes"/>
      <point x="561" y="-192"/>
      <point x="666" y="-94"/>
      <point x="693" y="77" type="curve" smooth="yes"/>
      <point x="702" y="134" type="line" smooth="yes"/>
      <point x="733" y="332"/>
      <point x="599" y="455"/>
      <point x="423" y="455" type="curve" smooth="yes"/>
      <point x="380" y="455"/>
      <point x="334" y="447"/>
      <point x="307" y="439" type="curve"/>
      <point x="322" y="531" type="line"/>
      <point x="641" y="531" type="line"/>
      <point x="668" y="705" type="line"/>
      <point x="134" y="705" type="line"/>
      <point x="22" y="0" type="line"/>
      <point x="237" y="0" type="line"/>
      <point x="279" y="262" type="line"/>
      <point x="306" y="271"/>
      <point x="345" y="276"/>
      <point x="372" y="276" type="curve" smooth="yes"/>
      <point x="450" y="276"/>
      <point x="502" y="227"/>
      <point x="486" y="128" type="curve" smooth="yes"/>
      <point x="476" y="67" type="line" smooth="yes"/>
      <point x="467" y="10"/>
      <point x="428" y="-27"/>
      <point x="380" y="-27" type="curve" smooth="yes"/>
      <point x="354" y="-27"/>
      <point x="328" y="-23"/>
      <point x="306" y="-18" type="curve"/>
      <point x="274" y="-171" type="line"/>
      <point x="309" y="-184"/>
      <point x="354" y="-192"/>
    </contour>
  </outline>
</glyph>
<glyph name="ghemiddlehook-cy" format="2">
  <advance width="624"/>
  <unicode hex="0495"/>
  <outline>
    <contour>
      <point x="308" y="-188" type="line"/>
      <point x="492" y="-136"/>
      <point x="553" y="-52"/>
      <point x="569" y="51" type="curve" smooth="yes"/>
      <point x="574" y="80" type="line" smooth="yes"/>
      <point x="593" y="203"/>
      <point x="541" y="273"/>
      <point x="423" y="273" type="curve" smooth="yes"/>
      <point x="341" y="273"/>
      <point x="277" y="240"/>
      <point x="228" y="178" type="curve"/>
      <point x="255" y="178" type="line"/>
      <point x="276" y="309" type="line"/>
      <point x="493" y="309" type="line"/>
      <point x="514" y="444" type="line"/>
      <point x="89" y="444" type="line"/>
      <point x="19" y="0" type="line"/>
      <point x="227" y="0" type="line"/>
      <point x="236" y="54" type="line" smooth="yes"/>
      <point x="242" y="95"/>
      <point x="277" y="125"/>
      <point x="322" y="125" type="curve" smooth="yes"/>
      <point x="363" y="125"/>
      <point x="370" y="110"/>
      <point x="364" y="68" type="curve" smooth="yes"/>
      <point x="361" y="51" type="line" smooth="yes"/>
      <point x="353" y="-3"/>
      <point x="334" y="-20"/>
      <point x="264" y="-41" type="curve"/>
    </contour>
  </outline>
</glyph>
<glyph name="Zedescender-cy" format="2">
  <advance width="624"/>
  <unicode hex="0498"/>
  <outline>
    <contour>
      <point x="172" y="-180" type="line"/>
      <point x="346" y="-180" type="line"/>
      <point x="374" y="-5" type="line"/>
      <point x="509" y="19"/>
      <point x="582" y="99"/>
      <point x="582" y="212" type="curve" smooth="yes"/>
      <point x="582" y="293"/>
      <point x="533" y="355"/>
      <point x="445" y="372" type="curve"/>
      <point x="446" y="355" type="line"/>
      <point x="544" y="373"/>
      <point x="613" y="437"/>
      <point x="613" y="534" type="curve" smooth="yes"/>
      <point x="613" y="628"/>
      <point x="530" y="717"/>
      <point x="359" y="717" type="curve" smooth="yes"/>
      <point x="258" y="717"/>
      <point x="158" y="692"/>
      <point x="80" y="649" type="curve"/>
      <point x="140" y="494" type="line"/>
      <point x="196" y="523"/>
      <point x="257" y="542"/>
      <point x="327" y="542" type="curve" smooth="yes"/>
      <point x="389" y="542"/>
      <point x="407" y="527"/>
      <point x="407" y="493" type="curve" smooth="yes"/>
      <point x="407" y="455"/>
      <point x="373" y="440"/>
      <point x="321" y="440" type="curve" smooth="yes"/>
      <point x="164" y="440" type="line"/>
      <point x="138" y="276" type="line"/>
      <point x="309" y="276" type="line" smooth="yes"/>
      <point x="356" y="276"/>
      <point x="377" y="260"/>
      <point x="377" y="225" type="curve" smooth="yes"/>
      <point x="377" y="182"/>
      <point x="323" y="163"/>
      <point x="276" y="163" type="curve" smooth="yes"/>
      <point x="213" y="163"/>
      <point x="134" y="181"/>
      <point x="82" y="222" type="curve"/>
      <point x="9" y="73" type="line"/>
      <point x="65" y="31"/>
      <point x="133" y="6"/>
      <point x="200" y="-5" type="curve"/>
    </contour>
  </outline>
</glyph>
<glyph name="zedescender-cy" format="2">
  <advance width="562"/>
  <unicode hex="0499"/>
  <outline>
    <contour>
      <point x="148" y="-130" type="line"/>
      <point x="308" y="-130" type="line"/>
      <point x="328" y="-6" type="line"/>
      <point x="438" y="9"/>
      <point x="511" y="56"/>
      <point x="522" y="123" type="curve" smooth="yes"/>
      <point x="534" y="198"/>
      <point x="496" y="231"/>
      <point x="404" y="241" type="curve"/>
      <point x="409" y="224" type="line"/>
      <point x="479" y="237"/>
      <point x="526" y="276"/>
      <point x="535" y="324" type="curve" smooth="yes"/>
      <point x="548" y="409"/>
      <point x="469" y="456"/>
      <point x="312" y="456" type="curve" smooth="yes"/>
      <point x="214" y="456"/>
      <point x="120" y="437"/>
      <point x="60" y="411" type="curve"/>
      <point x="84" y="297" type="line"/>
      <point x="135" y="314"/>
      <point x="193" y="328"/>
      <point x="265" y="328" type="curve" smooth="yes"/>
      <point x="333" y="328"/>
      <point x="349" y="320"/>
      <point x="346" y="304" type="curve" smooth="yes"/>
      <point x="344" y="292"/>
      <point x="333" y="285"/>
      <point x="305" y="285" type="curve" smooth="yes"/>
      <point x="162" y="285" type="line"/>
      <point x="143" y="162" type="line"/>
      <point x="301" y="162" type="line" smooth="yes"/>
      <point x="334" y="162"/>
      <point x="342" y="154"/>
      <point x="340" y="140" type="curve" smooth="yes"/>
      <point x="337" y="119"/>
      <point x="307" y="114"/>
      <point x="255" y="114" type="curve" smooth="yes"/>
      <point x="183" y="114"/>
      <point x="102" y="128"/>
      <point x="54" y="151" type="curve"/>
      <point x="-5" y="35" type="line"/>
      <point x="38" y="11"/>
      <point x="97" y="-3"/>
      <point x="167" y="-9" type="curve"/>
    </contour>
  </outline>
</glyph>
<glyph name="Kaverticalstroke-cy" format="2">
  <advance width="834"/>
  <unicode hex="049C"/>
  <outline>
    <contour>
      <point x="22" y="0" type="line"/>
      <point x="237" y="0" type="line"/>
      <point x="279" y="262" type="line"/>
      <point x="316" y="262" type="line"/>
      <point x="292" y="111" type="line"/>
      <point x="405" y="111" type="line"/>
      <point x="431" y="271" type="line"/>
      <point x="413" y="262" type="line"/>
      <point x="425" y="262" type="line" smooth="yes"/>
      <point x="480" y="262"/>
      <point x="505" y="243"/>
      <point x="521" y="198" type="curve" smooth="yes"/>
      <point x="589" y="0" type="line"/>
      <point x="808" y="0" type="line"/>
      <point x="710" y="262" type="line" smooth="yes"/>
      <point x="675" y="355"/>
      <point x="639" y="405"/>
      <point x="545" y="425" type="curve"/>
      <point x="633" y="369" type="line"/>
      <point x="886" y="705" type="line"/>
      <point x="653" y="705" type="line"/>
      <point x="453" y="432" type="line"/>
      <point x="456" y="432" type="line"/>
      <point x="481" y="590" type="line"/>
      <point x="368" y="590" type="line"/>
      <point x="343" y="432" type="line"/>
      <point x="306" y="432" type="line"/>
      <point x="349" y="705" type="line"/>
      <point x="134" y="705" type="line"/>
    </contour>
  </outline>
</glyph>
<glyph name="kaverticalstroke-cy" format="2">
  <advance width="753"/>
  <unicode hex="049D"/>
  <outline>
    <contour>
      <point x="19" y="0" type="line"/>
      <point x="227" y="0" type="line"/>
      <point x="250" y="148" type="line"/>
      <point x="291" y="148" type="line"/>
      <point x="275" y="46" type="line"/>
      <point x="389" y="46" type="line"/>
      <point x="408" y="164" type="line"/>
      <point x="399" y="148" type="line"/>
      <point x="423" y="148" type="line" smooth="yes"/>
      <point x="445" y="148"/>
      <point x="459" y="140"/>
      <point x="467" y="120" type="curve" smooth="yes"/>
      <point x="516" y="0" type="line"/>
      <point x="726" y="0" type="line"/>
      <point x="648" y="191" type="line" smooth="yes"/>
      <point x="632" y="229"/>
      <point x="595" y="264"/>
      <point x="545" y="270" type="curve"/>
      <point x="577" y="206" type="line"/>
      <point x="796" y="444" type="line"/>
      <point x="571" y="444" type="line"/>
      <point x="441" y="301" type="line"/>
      <point x="430" y="301" type="line"/>
      <point x="445" y="396" type="line"/>
      <point x="331" y="396" type="line"/>
      <point x="316" y="301" type="line"/>
      <point x="275" y="301" type="line"/>
      <point x="297" y="444" type="line"/>
      <point x="89" y="444" type="line"/>
    </contour>
  </outline>
</glyph>
<glyph name="Kastroke-cy" format="2">
  <advance width="828"/>
  <unicode hex="049E"/>
  <outline>
    <contour>
      <point x="94" y="0" type="line"/>
      <point x="309" y="0" type="line"/>
      <point x="350" y="259" type="line"/>
      <point x="418" y="259" type="line" smooth="yes"/>
      <point x="473" y="259"/>
      <point x="498" y="240"/>
      <point x="514" y="195" type="curve" smooth="yes"/>
      <point x="583" y="0" type="line"/>
      <point x="802" y="0" type="line"/>
      <point x="704" y="262" type="line" smooth="yes"/>
      <point x="669" y="355"/>
      <point x="633" y="405"/>
      <point x="539" y="425" type="curve"/>
      <point x="633" y="350" type="line"/>
      <point x="900" y="705" type="line"/>
      <point x="667" y="705" type="line"/>
      <point x="454" y="414" type="line"/>
      <point x="484" y="433" type="line"/>
      <point x="378" y="433" type="line"/>
      <point x="390" y="505" type="line"/>
      <point x="490" y="505" type="line"/>
      <point x="512" y="643" type="line"/>
      <point x="411" y="643" type="line"/>
      <point x="421" y="705" type="line"/>
      <point x="206" y="705" type="line"/>
      <point x="196" y="643" type="line"/>
      <point x="57" y="643" type="line"/>
      <point x="35" y="505" type="line"/>
      <point x="175" y="505" type="line"/>
    </contour>
  </outline>
</glyph>
<glyph name="kastroke-cy" format="2">
  <advance width="622"/>
  <unicode hex="049F"/>
  <outline>
    <contour>
      <point x="19" y="0" type="line"/>
      <point x="227" y="0" type="line"/>
      <point x="250" y="148" type="line"/>
      <point x="292" y="148" type="line" smooth="yes"/>
      <point x="314" y="148"/>
      <point x="328" y="140"/>
      <point x="336" y="120" type="curve" smooth="yes"/>
      <point x="385" y="0" type="line"/>
      <point x="595" y="0" type="line"/>
      <point x="517" y="191" type="line" smooth="yes"/>
      <point x="501" y="229"/>
      <point x="464" y="264"/>
      <point x="414" y="270" type="curve"/>
      <point x="447" y="206" type="line"/>
      <point x="666" y="444" type="line"/>
      <point x="440" y="444" type="line"/>
      <point x="310" y="301" type="line"/>
      <point x="275" y="301" type="line"/>
      <point x="306" y="495" type="line"/>
      <point x="485" y="495" type="line"/>
      <point x="508" y="635" type="line"/>
      <point x="328" y="635" type="line"/>
      <point x="339" y="705" type="line"/>
      <point x="131" y="705" type="line"/>
      <point x="120" y="635" type="line"/>
      <point x="40" y="635" type="line"/>
      <point x="17" y="495" type="line"/>
      <point x="97" y="495" type="line"/>
    </contour>
  </outline>
</glyph>
<glyph name="kabashkir-cy" format="2">
  <advance width="708"/>
  <unicode hex="04A1"/>
  <outline>
    <contour>
      <point x="105" y="0" type="line"/>
      <point x="313" y="0" type="line"/>
      <point x="336" y="148" type="line"/>
      <point x="378" y="148" type="line" smooth="yes"/>
      <point x="400" y="148"/>
      <point x="414" y="140"/>
      <point x="422" y="120" type="curve" smooth="yes"/>
      <point x="471" y="0" type="line"/>
      <point x="681" y="0" type="line"/>
      <point x="603" y="191" type="line" smooth="yes"/>
      <point x="587" y="229"/>
      <point x="550" y="264"/>
      <point x="500" y="270" type="curve"/>
      <point x="533" y="206" type="line"/>
      <point x="752" y="444" type="line"/>
      <point x="526" y="444" type="line"/>
      <point x="396" y="301" type="line"/>
      <point x="361" y="301" type="line"/>
      <point x="383" y="444" type="line"/>
      <point x="45" y="444" type="line"/>
      <point x="20" y="283" type="line"/>
      <point x="150" y="283" type="line"/>
    </contour>
  </outline>
</glyph>
<glyph name="endescender-cy" format="2">
  <advance width="687"/>
  <unicode hex="04A3"/>
  <outline>
    <contour>
      <point x="447" y="-130" type="line"/>
      <point x="622" y="-130" type="line"/>
      <point x="667" y="152" type="line"/>
      <point x="582" y="152" type="line"/>
      <point x="628" y="444" type="line"/>
      <point x="420" y="444" type="line"/>
      <point x="398" y="303" type="line"/>
      <point x="275" y="303" type="line"/>
      <point x="297" y="444" type="line"/>
      <point x="89" y="444" type="line"/>
      <point x="19" y="0" type="line"/>
      <point x="227" y="0" type="line"/>
      <point x="250" y="146" type="line"/>
      <point x="373" y="146" type="line"/>
      <point x="350" y="0" type="line"/>
      <point x="468" y="0" type="line"/>
    </contour>
  </outline>
</glyph>
<glyph name="Enghe-cy" format="2">
  <advance width="958"/>
  <unicode hex="04A4"/>
  <outline>
    <contour>
      <point x="22" y="0" type="line"/>
      <point x="237" y="0" type="line"/>
      <point x="280" y="269" type="line"/>
      <point x="530" y="269" type="line"/>
      <point x="487" y="0" type="line"/>
      <point x="702" y="0" type="line"/>
      <point x="786" y="531" type="line"/>
      <point x="1000" y="531" type="line"/>
      <point x="1028" y="705" type="line"/>
      <point x="599" y="705" type="line"/>
      <point x="558" y="445" type="line"/>
      <point x="308" y="445" type="line"/>
      <point x="349" y="705" type="line"/>
      <point x="134" y="705" type="line"/>
    </contour>
  </outline>
</glyph>
<glyph name="enghe-cy" format="2">
  <advance width="794"/>
  <unicode hex="04A5"/>
  <outline>
    <contour>
      <point x="19" y="0" type="line"/>
      <point x="227" y="0" type="line"/>
      <point x="250" y="146" type="line"/>
      <point x="373" y="146" type="line"/>
      <point x="350" y="0" type="line"/>
      <point x="558" y="0" type="line"/>
      <point x="603" y="283" type="line"/>
      <point x="783" y="283" type="line"/>
      <point x="808" y="444" type="line"/>
      <point x="420" y="444" type="line"/>
      <point x="398" y="303" type="line"/>
      <point x="275" y="303" type="line"/>
      <point x="297" y="444" type="line"/>
      <point x="89" y="444" type="line"/>
    </contour>
  </outline>
</glyph>
<glyph name="haabkhasian-cy" format="2">
  <advance width="803"/>
  <unicode hex="04A9"/>
  <outline>
    <contour>
      <point x="315" y="-12" type="curve" smooth="yes"/>
      <point x="507" y="-12"/>
      <point x="686" y="92"/>
      <point x="703" y="204" type="curve" smooth="yes"/>
      <point x="717" y="291"/>
      <point x="646" y="351"/>
      <point x="523" y="351" type="curve" smooth="yes"/>
      <point x="412" y="351"/>
      <point x="325" y="298"/>
      <point x="312" y="214" type="curve" smooth="yes"/>
      <point x="294" y="98"/>
      <point x="436" y="-12"/>
      <point x="618" y="-12" type="curve" smooth="yes"/>
      <point x="668" y="-12"/>
      <point x="729" y="-3"/>
      <point x="777" y="14" type="curve"/>
      <point x="773" y="147" type="line"/>
      <point x="730" y="129"/>
      <point x="668" y="117"/>
      <point x="612" y="117" type="curve" smooth="yes"/>
      <point x="485" y="117"/>
      <point x="455" y="133"/>
      <point x="463" y="186" type="curve" smooth="yes"/>
      <point x="468" y="213"/>
      <point x="486" y="230"/>
      <point x="510" y="230" type="curve" smooth="yes"/>
      <point x="534" y="230"/>
      <point x="548" y="213"/>
      <point x="543" y="186" type="curve" smooth="yes"/>
      <point x="536" y="136"/>
      <point x="491" y="117"/>
      <point x="373" y="117" type="curve" smooth="yes"/>
      <point x="265" y="117"/>
      <point x="224" y="156"/>
      <point x="235" y="227" type="curve" smooth="yes"/>
      <point x="245" y="290"/>
      <point x="294" y="329"/>
      <point x="358" y="329" type="curve" smooth="yes"/>
      <point x="367" y="329"/>
      <point x="376" y="329"/>
      <point x="384" y="328" type="curve"/>
      <point x="414" y="449" type="line"/>
      <point x="391" y="454"/>
      <point x="368" y="456"/>
      <point x="343" y="456" type="curve" smooth="yes"/>
      <point x="189" y="456"/>
      <point x="61" y="383"/>
      <point x="38" y="235" type="curve" smooth="yes"/>
      <point x="14" y="87"/>
      <point x="112" y="-12"/>
    </contour>
  </outline>
</glyph>
<glyph name="Tedescender-cy" format="2">
  <advance width="631"/>
  <unicode hex="04AC"/>
  <outline>
    <contour>
      <point x="275" y="-180" type="line"/>
      <point x="460" y="-180" type="line"/>
      <point x="515" y="167" type="line"/>
      <point x="415" y="167" type="line"/>
      <point x="473" y="531" type="line"/>
      <point x="673" y="531" type="line"/>
      <point x="701" y="705" type="line"/>
      <point x="84" y="705" type="line"/>
      <point x="56" y="531" type="line"/>
      <point x="258" y="531" type="line"/>
      <point x="174" y="0" type="line"/>
      <point x="304" y="0" type="line"/>
    </contour>
  </outline>
</glyph>
<glyph name="tedescender-cy" format="2">
  <advance width="528"/>
  <unicode hex="04AD"/>
  <outline>
    <contour>
      <point x="222" y="-130" type="line"/>
      <point x="397" y="-130" type="line"/>
      <point x="442" y="152" type="line"/>
      <point x="357" y="152" type="line"/>
      <point x="378" y="286" type="line"/>
      <point x="528" y="286" type="line"/>
      <point x="553" y="444" type="line"/>
      <point x="45" y="444" type="line"/>
      <point x="20" y="286" type="line"/>
      <point x="170" y="286" type="line"/>
      <point x="125" y="0" type="line"/>
      <point x="243" y="0" type="line"/>
    </contour>
  </outline>
</glyph>
<glyph name="ustraight-cy" format="2">
  <advance width="570"/>
  <unicode hex="04AF"/>
  <anchor x="261" y="36" name="center"/>
  <outline>
    <contour>
      <point x="118" y="-180" type="line"/>
      <point x="326" y="-180" type="line"/>
      <point x="363" y="48" type="line"/>
      <point x="626" y="444" type="line"/>
      <point x="415" y="444" type="line"/>
      <point x="258" y="192" type="line"/>
      <point x="291" y="192" type="line"/>
      <point x="221" y="444" type="line"/>
      <point x="17" y="444" type="line"/>
      <point x="153" y="39" type="line"/>
    </contour>
  </outline>
</glyph>
<glyph name="ustraightstroke-cy" format="2">
  <advance width="570"/>
  <unicode hex="04B1"/>
  <outline>
    <contour>
      <point x="118" y="-180" type="line"/>
      <point x="326" y="-180" type="line"/>
      <point x="344" y="-67" type="line"/>
      <point x="478" y="-67" type="line"/>
      <point x="501" y="73" type="line"/>
      <point x="367" y="73" type="line"/>
      <point x="363" y="48" type="line"/>
      <point x="626" y="444" type="line"/>
      <point x="415" y="444" type="line"/>
      <point x="258" y="192" type="line"/>
      <point x="291" y="192" type="line"/>
      <point x="221" y="444" type="line"/>
      <point x="17" y="444" type="line"/>
      <point x="153" y="39" type="line"/>
      <point x="159" y="73" type="line"/>
      <point x="24" y="73" type="line"/>
      <point x="1" y="-67" type="line"/>
      <point x="136" y="-67" type="line"/>
    </contour>
  </outline>
</glyph>
<glyph name="Tetse-cy" format="2">
  <advance width="992"/>
  <unicode hex="04B4"/>
  <guideline x="525" y="174" angle="0"/>
  <outline>
    <contour>
      <point x="721" y="-180" type="line"/>
      <point x="906" y="-180" type="line"/>
      <point x="962" y="174" type="line"/>
      <point x="862" y="174" type="line"/>
      <point x="946" y="705" type="line"/>
      <point x="731" y="705" type="line"/>
      <point x="647" y="174" type="line"/>
      <point x="404" y="174" type="line"/>
      <point x="461" y="531" type="line"/>
      <point x="611" y="531" type="line"/>
      <point x="639" y="705" type="line"/>
      <point x="83" y="705" type="line"/>
      <point x="56" y="531" type="line"/>
      <point x="246" y="531" type="line"/>
      <point x="162" y="0" type="line"/>
      <point x="750" y="0" type="line"/>
    </contour>
  </outline>
</glyph>
<glyph name="tetse-cy" format="2">
  <advance width="805"/>
  <unicode hex="04B5"/>
  <outline>
    <contour>
      <point x="565" y="-130" type="line"/>
      <point x="740" y="-130" type="line"/>
      <point x="786" y="157" type="line"/>
      <point x="701" y="157" type="line"/>
      <point x="746" y="444" type="line"/>
      <point x="538" y="444" type="line"/>
      <point x="493" y="157" type="line"/>
      <point x="338" y="157" type="line"/>
      <point x="358" y="283" type="line"/>
      <point x="451" y="283" type="line"/>
      <point x="476" y="444" type="line"/>
      <point x="45" y="444" type="line"/>
      <point x="20" y="283" type="line"/>
      <point x="150" y="283" type="line"/>
      <point x="105" y="0" type="line"/>
      <point x="586" y="0" type="line"/>
    </contour>
  </outline>
</glyph>
<glyph name="Chedescender-cy" format="2">
  <advance width="791"/>
  <unicode hex="04B6"/>
  <outline>
    <contour>
      <point x="529" y="-180" type="line"/>
      <point x="714" y="-180" type="line"/>
      <point x="769" y="167" type="line"/>
      <point x="670" y="167" type="line"/>
      <point x="755" y="705" type="line"/>
      <point x="540" y="705" type="line"/>
      <point x="492" y="409" type="line"/>
      <point x="465" y="400"/>
      <point x="429" y="395"/>
      <point x="402" y="395" type="curve" smooth="yes"/>
      <point x="324" y="395"/>
      <point x="291" y="432"/>
      <point x="307" y="531" type="curve" smooth="yes"/>
      <point x="335" y="705" type="line"/>
      <point x="120" y="705" type="line"/>
      <point x="93" y="535" type="line" smooth="yes"/>
      <point x="63" y="341"/>
      <point x="182" y="216"/>
      <point x="351" y="216" type="curve" smooth="yes"/>
      <point x="394" y="216"/>
      <point x="437" y="224"/>
      <point x="464" y="232" type="curve"/>
      <point x="428" y="0" type="line"/>
      <point x="558" y="0" type="line"/>
    </contour>
  </outline>
</glyph>
